<svg xmlns="http://www.w3.org/2000/svg" width="86.681" height="100.781" viewBox="0 0 86.681 100.781">
  <g id="Grupo_700" data-name="Grupo 700" transform="translate(-2030.056 -1249.489)">
    <path id="Trazado_731" data-name="Trazado 731" d="M2104.173,1277.338h-.092a2.353,2.353,0,0,0-.206-.305c-6.214-7.569-55.2-7.515-60.32-.87a3.955,3.955,0,0,0-.436.711h-.044a42.694,42.694,0,1,0,61.1.464Z" fill="#fff" stroke="#835830" stroke-linecap="round" stroke-linejoin="round" stroke-width="1.293"/>
    <path id="Trazado_732" data-name="Trazado 732" d="M2103.565,1276.167c-6.267-6.9-54.488-6.919-59.4-.879C2035.721,1285.685,2110.442,1283.734,2103.565,1276.167Z" fill="#fff" stroke="#835830" stroke-linecap="round" stroke-linejoin="round" stroke-width="1.293"/>
    <path id="Trazado_733" data-name="Trazado 733" d="M2097.62,1276.156c-5.705-3.226-45.427-2.85-48.993.06C2042.487,1281.225,2103.881,1279.7,2097.62,1276.156Z" fill="#fff" stroke="#835830" stroke-linecap="round" stroke-linejoin="round" stroke-width="1.293"/>
    <g id="Grupo_698" data-name="Grupo 698">
      <path id="Trazado_734" data-name="Trazado 734" d="M2087.193,1278.676l2.306-13.484a1.311,1.311,0,0,0,1.282-1.487c1.163-.222,1.277-1.766,1.277-1.766a2.082,2.082,0,0,0,1.121-1.757s4.359-3.778,8.055-7.083a1.538,1.538,0,1,0-1.718-2.552c-1.086.764-8.551,7.272-8.551,7.272a1.414,1.414,0,0,0-1.974,1.2c-1.513-.044-1.667,2.009-1.667,2.009a1.945,1.945,0,0,0-.509,2.71c-.324,1.393-2.622,15.188-2.622,15.188C2086.043,1278.755,2085.914,1278.87,2087.193,1278.676Z" fill="#fff" stroke="#835830" stroke-linecap="round" stroke-linejoin="round" stroke-width="1.293"/>
      <g id="Grupo_697" data-name="Grupo 697">
        <path id="Trazado_735" data-name="Trazado 735" d="M2090.951,1257.923a10.191,10.191,0,0,1,2.215,2.362" fill="#fff" stroke="#835830" stroke-linecap="round" stroke-linejoin="round" stroke-width="1.293"/>
        <path id="Trazado_736" data-name="Trazado 736" d="M2088.991,1259.017s0,.682,2.937,2.728" fill="#fff" stroke="#835830" stroke-linecap="round" stroke-linejoin="round" stroke-width="1.293"/>
        <path id="Trazado_737" data-name="Trazado 737" d="M2087.324,1261.026a14.378,14.378,0,0,0,3.457,2.679" fill="#fff" stroke="#835830" stroke-linecap="round" stroke-linejoin="round" stroke-width="1.293"/>
        <path id="Trazado_738" data-name="Trazado 738" d="M2086.914,1263.851a3.582,3.582,0,0,0,2.585,1.341" fill="#fff" stroke="#835830" stroke-linecap="round" stroke-linejoin="round" stroke-width="1.293"/>
      </g>
      <path id="Trazado_739" data-name="Trazado 739" d="M2100.178,1250.281c-2.088.56-.812,3.794,1.319,2.473" fill="#fff" stroke="#835830" stroke-linecap="round" stroke-linejoin="round" stroke-width="1.293"/>
    </g>
    <g id="Grupo_699" data-name="Grupo 699">
      <path id="Trazado_740" data-name="Trazado 740" d="M2072.911,1258a18.517,18.517,0,0,0-5.638-2.628,31.86,31.86,0,0,0-15.583-.431l-.56-1.783v0h0v0a.337.337,0,0,0-.02-.045.382.382,0,0,0-.022-.052.377.377,0,0,0-.029-.043c-.01-.014-.018-.029-.029-.042s-.028-.027-.042-.041-.02-.021-.031-.03-.036-.024-.054-.035l-.03-.02a.485.485,0,0,0-.063-.026.268.268,0,0,0-.031-.012.464.464,0,0,0-.067-.014c-.011,0-.021-.005-.032-.006a.461.461,0,0,0-.065,0h-.039a.5.5,0,0,0-.054.011.412.412,0,0,0-.049.01h0a.4.4,0,0,0-.043.018.418.418,0,0,0-.053.023.364.364,0,0,0-.04.027.385.385,0,0,0-.045.032.366.366,0,0,0-.035.035c-.012.012-.025.024-.036.037s-.019.029-.028.043a.349.349,0,0,0-.027.042c-.008.015-.013.031-.02.047s-.014.03-.019.046-.006.034-.01.051a.394.394,0,0,0-.009.049.308.308,0,0,0,0,.052.445.445,0,0,0,0,.051.314.314,0,0,0,.01.051.434.434,0,0,0,.01.052l.515,1.667a15.692,15.692,0,0,0-5.1,2.167c-2.915,1.845-7.046,5.6-10.168,13.008a.523.523,0,0,0,.142.6.518.518,0,0,0,.342.127.525.525,0,0,0,.275-.077,11.18,11.18,0,0,1,7.7-.919h.01a.512.512,0,0,0,.1.012h0a.336.336,0,0,0,.044-.005.464.464,0,0,0,.073-.009.319.319,0,0,0,.041-.014.441.441,0,0,0,.07-.026.372.372,0,0,0,.037-.023.4.4,0,0,0,.063-.041l0,0c.014-.012.025-.027.038-.04a.521.521,0,0,0,.04-.039,9,9,0,0,1,10.09-2.357l3.479,11.282a.526.526,0,0,0,1.005-.31l-3.385-10.976c4.808-5.648,10.072-4.107,10.345-4.022a.52.52,0,0,0,.333,0h0a.606.606,0,0,0,.068-.028h0a.519.519,0,0,0,.225-.218c.007-.014.014-.027.02-.041,1.991-4.438,5.847-4.252,6.009-4.242a.526.526,0,0,0,.359-.94Z" fill="#835830" stroke="#835830" stroke-linecap="round" stroke-linejoin="round" stroke-width="0.354"/>
      <path id="Trazado_741" data-name="Trazado 741" d="M2036.9,1269.453c2.917-6.292,6.543-9.569,9.144-11.229a16.825,16.825,0,0,1,2.463-1.305,15.268,15.268,0,0,0-4.247,7.032,20.457,20.457,0,0,0-.829,4.937A12.615,12.615,0,0,0,2036.9,1269.453Z" fill="#fff" stroke="#835830" stroke-linecap="round" stroke-linejoin="round" stroke-width="0.354"/>
      <path id="Trazado_742" data-name="Trazado 742" d="M2046.662,1266.8a10.382,10.382,0,0,0-2.129,1.407c.226-2.651,1.316-8.682,6.479-11.863l3.059,9.918A9.945,9.945,0,0,0,2046.662,1266.8Z" fill="#fff" stroke="#835830" stroke-linecap="round" stroke-linejoin="round" stroke-width="0.354"/>
      <path id="Trazado_743" data-name="Trazado 743" d="M2055.34,1266.153c-.576-1.8-1.947-6.084-3.226-9.922,7.561,1.5,11.2,4.422,12.665,5.974C2062.768,1262.019,2058.965,1262.317,2055.34,1266.153Z" fill="#fff" stroke="#835830" stroke-linecap="round" stroke-linejoin="round" stroke-width="0.354"/>
      <path id="Trazado_744" data-name="Trazado 744" d="M2065.979,1261.959c-1.177-1.434-4.473-4.558-11.886-6.369a29.942,29.942,0,0,1,12.82.769,21.105,21.105,0,0,1,4.124,1.7A7.642,7.642,0,0,0,2065.979,1261.959Z" fill="#fff" stroke="#835830" stroke-linecap="round" stroke-linejoin="round" stroke-width="0.354"/>
    </g>
  </g>
</svg>
