<svg xmlns="http://www.w3.org/2000/svg" width="91.853" height="100.781" viewBox="0 0 91.853 100.781">
  <g id="Grupo_916" data-name="Grupo 916" transform="translate(-621.96 -1244.427)">
    <g id="Grupo_696" data-name="Grupo 696" transform="translate(-1252.286 -5.062)">
      <path id="Trazado_717" data-name="Trazado 717" d="M1948.362,1277.338h-.092a2.15,2.15,0,0,0-.206-.305c-6.214-7.569-55.2-7.515-60.32-.87a4.026,4.026,0,0,0-.436.711h-.044a42.693,42.693,0,1,0,61.1.464Z" fill="#fff" stroke="#835830" stroke-linecap="round" stroke-linejoin="round" stroke-width="1.293"/>
      <path id="Trazado_718" data-name="Trazado 718" d="M1947.755,1276.167c-6.267-6.9-54.489-6.919-59.4-.879C1879.91,1285.685,1954.632,1283.734,1947.755,1276.167Z" fill="#fff" stroke="#835830" stroke-linecap="round" stroke-linejoin="round" stroke-width="1.293"/>
      <path id="Trazado_719" data-name="Trazado 719" d="M1941.81,1276.156c-5.706-3.226-45.428-2.85-48.994.06C1886.676,1281.225,1948.07,1279.7,1941.81,1276.156Z" fill="#fff" stroke="#835830" stroke-linecap="round" stroke-linejoin="round" stroke-width="1.293"/>
      <g id="Grupo_694" data-name="Grupo 694">
        <path id="Trazado_720" data-name="Trazado 720" d="M1931.383,1278.676l2.306-13.484a1.31,1.31,0,0,0,1.281-1.487c1.163-.222,1.278-1.766,1.278-1.766a2.084,2.084,0,0,0,1.121-1.757s4.358-3.778,8.054-7.083a1.538,1.538,0,1,0-1.718-2.552c-1.086.764-8.551,7.272-8.551,7.272a1.413,1.413,0,0,0-1.973,1.2c-1.514-.044-1.667,2.009-1.667,2.009a1.945,1.945,0,0,0-.51,2.71c-.324,1.393-2.622,15.188-2.622,15.188C1930.233,1278.755,1930.1,1278.87,1931.383,1278.676Z" fill="#fff" stroke="#835830" stroke-linecap="round" stroke-linejoin="round" stroke-width="1.293"/>
        <g id="Grupo_693" data-name="Grupo 693">
          <path id="Trazado_721" data-name="Trazado 721" d="M1935.14,1257.923a10.167,10.167,0,0,1,2.215,2.362" fill="#fff" stroke="#835830" stroke-linecap="round" stroke-linejoin="round" stroke-width="1.293"/>
          <path id="Trazado_722" data-name="Trazado 722" d="M1933.181,1259.017s0,.682,2.937,2.728" fill="#fff" stroke="#835830" stroke-linecap="round" stroke-linejoin="round" stroke-width="1.293"/>
          <path id="Trazado_723" data-name="Trazado 723" d="M1931.514,1261.026a14.386,14.386,0,0,0,3.456,2.679" fill="#fff" stroke="#835830" stroke-linecap="round" stroke-linejoin="round" stroke-width="1.293"/>
          <path id="Trazado_724" data-name="Trazado 724" d="M1931.1,1263.851a3.586,3.586,0,0,0,2.586,1.341" fill="#fff" stroke="#835830" stroke-linecap="round" stroke-linejoin="round" stroke-width="1.293"/>
        </g>
        <path id="Trazado_725" data-name="Trazado 725" d="M1944.368,1250.281c-2.088.56-.812,3.794,1.318,2.473" fill="#fff" stroke="#835830" stroke-linecap="round" stroke-linejoin="round" stroke-width="1.293"/>
      </g>
      <g id="Grupo_695" data-name="Grupo 695">
        <path id="Trazado_726" data-name="Trazado 726" d="M1917.1,1258a18.52,18.52,0,0,0-5.637-2.628,31.864,31.864,0,0,0-15.584-.431l-.559-1.783v0h0v0c-.005-.016-.013-.03-.019-.045a.4.4,0,0,0-.022-.052c-.009-.015-.02-.029-.03-.043a.383.383,0,0,0-.029-.042c-.013-.015-.027-.027-.041-.041s-.02-.021-.032-.03a.5.5,0,0,0-.054-.035.284.284,0,0,0-.03-.02.485.485,0,0,0-.063-.026c-.01,0-.02-.009-.03-.012a.524.524,0,0,0-.067-.014c-.011,0-.022-.005-.033-.006a.449.449,0,0,0-.064,0h-.039a.491.491,0,0,0-.054.011.422.422,0,0,0-.05.01h0a.334.334,0,0,0-.043.018.527.527,0,0,0-.054.023c-.014.008-.027.018-.04.027s-.031.02-.045.032a.38.38,0,0,0-.035.035c-.012.012-.025.024-.036.037s-.019.029-.028.043-.019.027-.027.042-.013.031-.02.047-.013.03-.018.046a.471.471,0,0,0-.01.051.4.4,0,0,0-.01.049.462.462,0,0,0,0,.052.445.445,0,0,0,0,.051c0,.017.007.034.01.051a.493.493,0,0,0,.011.052l.514,1.667a15.7,15.7,0,0,0-5.1,2.167c-2.915,1.845-7.046,5.6-10.168,13.008a.527.527,0,0,0,.76.653,11.174,11.174,0,0,1,7.7-.919h.01a.511.511,0,0,0,.1.012h0a.338.338,0,0,0,.044-.005.468.468,0,0,0,.073-.009.318.318,0,0,0,.041-.014.4.4,0,0,0,.07-.026.278.278,0,0,0,.037-.023.326.326,0,0,0,.063-.041l0,0a.466.466,0,0,0,.038-.04.5.5,0,0,0,.04-.039,9,9,0,0,1,10.09-2.357l3.479,11.282a.526.526,0,0,0,1.005-.31l-3.385-10.976c4.808-5.648,10.073-4.107,10.345-4.022a.523.523,0,0,0,.334,0h0a.525.525,0,0,0,.068-.028h0a.52.52,0,0,0,.225-.218.409.409,0,0,0,.02-.041c1.991-4.438,5.847-4.252,6.009-4.242a.526.526,0,0,0,.359-.94Z" fill="#835830" stroke="#835830" stroke-linecap="round" stroke-linejoin="round" stroke-width="0.354"/>
        <path id="Trazado_727" data-name="Trazado 727" d="M1881.089,1269.453c2.917-6.292,6.543-9.569,9.144-11.229a16.781,16.781,0,0,1,2.464-1.305,15.272,15.272,0,0,0-4.248,7.032,20.457,20.457,0,0,0-.829,4.937A12.616,12.616,0,0,0,1881.089,1269.453Z" fill="#fff" stroke="#835830" stroke-linecap="round" stroke-linejoin="round" stroke-width="0.354"/>
        <path id="Trazado_728" data-name="Trazado 728" d="M1890.852,1266.8a10.388,10.388,0,0,0-2.13,1.407c.226-2.651,1.316-8.682,6.48-11.863l3.058,9.918A9.942,9.942,0,0,0,1890.852,1266.8Z" fill="#fff" stroke="#835830" stroke-linecap="round" stroke-linejoin="round" stroke-width="0.354"/>
        <path id="Trazado_729" data-name="Trazado 729" d="M1899.529,1266.153c-.575-1.8-1.946-6.084-3.226-9.922,7.561,1.5,11.2,4.422,12.666,5.974C1906.957,1262.019,1903.155,1262.317,1899.529,1266.153Z" fill="#fff" stroke="#835830" stroke-linecap="round" stroke-linejoin="round" stroke-width="0.354"/>
        <path id="Trazado_730" data-name="Trazado 730" d="M1910.168,1261.959c-1.176-1.434-4.473-4.558-11.886-6.369a29.948,29.948,0,0,1,12.821.769,21.054,21.054,0,0,1,4.123,1.7A7.642,7.642,0,0,0,1910.168,1261.959Z" fill="#fff" stroke="#835830" stroke-linecap="round" stroke-linejoin="round" stroke-width="0.354"/>
      </g>
    </g>
    <g id="Grupo_713" data-name="Grupo 713" transform="translate(-1252.286 -5.062)">
      <path id="Trazado_780" data-name="Trazado 780" d="M1927.1,1289.493c-3.614,1.01,6.142,20.243,9.7,19.3,5.436-1.441,9.28-10.286,8.848-12.752S1941.909,1285.351,1927.1,1289.493Z" fill="#fff" stroke="#835830" stroke-linecap="round" stroke-linejoin="round" stroke-width="1.293"/>
      <path id="Trazado_781" data-name="Trazado 781" d="M1927.1,1289.493s-.732,1.374,2.507,2.629,10.632.456,13.264-.957" fill="none" stroke="#835830" stroke-linecap="round" stroke-linejoin="round" stroke-width="1.293"/>
      <path id="Trazado_782" data-name="Trazado 782" d="M1958.558,1277.243c3.353-1.682,9.07,19.112,5.8,20.806-4.992,2.589-13.786-1.37-15.125-3.485S1944.816,1284.137,1958.558,1277.243Z" fill="#fff" stroke="#835830" stroke-linecap="round" stroke-linejoin="round" stroke-width="1.293"/>
      <path id="Trazado_783" data-name="Trazado 783" d="M1958.558,1277.243s1.465.525-.087,3.633-7.562,7.488-10.46,8.212" fill="none" stroke="#835830" stroke-linecap="round" stroke-linejoin="round" stroke-width="1.293"/>
      <circle id="Elipse_86" data-name="Elipse 86" cx="4.902" cy="4.902" r="4.902" transform="translate(1941.633 1288.02)" fill="#fff" stroke="#835830" stroke-linecap="round" stroke-linejoin="round" stroke-width="1.293"/>
    </g>
  </g>
</svg>
