<svg xmlns="http://www.w3.org/2000/svg" width="112.901" height="106.604" viewBox="0 0 112.901 106.604">
  <g id="Grupo_716" data-name="Grupo 716" transform="translate(-1987.113 -3526.284)">
    <path id="Trazado_784" data-name="Trazado 784" d="M2098.135,3574.027c.243-7.013-.159-7.107-.666-7.22-.842-.188-1.641-.374-2.422-.557a45.918,45.918,0,0,0-7.841-11.046c-.011-.011-.026-.017-.037-.027a2.191,2.191,0,0,0-.6-1.206c-2.083-2.291-8.2-3.881-15.889-4.81l1.021-5.97a1.741,1.741,0,0,0,.939-.536,2.065,2.065,0,0,0,.484-1.133,2.567,2.567,0,0,0,1.331-1.936,2.741,2.741,0,0,0,1.207-1.94c.864-.751,4.925-4.282,8.39-7.38a2.207,2.207,0,0,0,.465-3.132,2.172,2.172,0,0,0-2.977-.444c-1.064.75-7.558,6.394-8.894,7.557a1.94,1.94,0,0,0-1.5.182,2.184,2.184,0,0,0-.9,1.186,2.63,2.63,0,0,0-1.856,2.358,2.539,2.539,0,0,0-.6,3.269c-.211,1.034-.765,4.228-1.321,7.49a169.876,169.876,0,0,0-18.7-.5c-2.241.062-6.765.246-11.4.767l-1.192-3.867c5.1-6,10.694-4.361,10.983-4.271a.551.551,0,0,0,.354,0h0c.025-.009.048-.019.071-.03h0a.557.557,0,0,0,.239-.232.333.333,0,0,0,.021-.043c2.114-4.712,6.208-4.515,6.38-4.5a.558.558,0,0,0,.381-1,19.649,19.649,0,0,0-5.985-2.791,33.846,33.846,0,0,0-16.545-.457l-.595-1.892v0h0v0c-.006-.017-.014-.032-.021-.048s-.014-.038-.023-.055-.021-.03-.032-.046a.461.461,0,0,0-.03-.044c-.014-.016-.03-.029-.045-.044s-.021-.022-.033-.031a.536.536,0,0,0-.057-.038c-.011-.007-.021-.015-.032-.021s-.044-.019-.067-.028l-.032-.013a.65.65,0,0,0-.071-.014c-.012,0-.023-.006-.035-.007s-.046,0-.069,0h-.041c-.019,0-.038.008-.058.012a.474.474,0,0,0-.052.01h0a.452.452,0,0,0-.045.02.573.573,0,0,0-.057.024c-.015.009-.028.02-.043.029s-.033.021-.048.033-.024.025-.036.038a.466.466,0,0,0-.039.04c-.011.014-.019.03-.029.045s-.021.029-.029.044a.54.54,0,0,0-.021.05.488.488,0,0,0-.02.049.482.482,0,0,0-.01.054.464.464,0,0,0-.011.052c0,.018,0,.037,0,.056s0,.036,0,.054.008.036.011.053.006.038.011.056l.546,1.77a16.653,16.653,0,0,0-5.412,2.3c-3.095,1.958-7.481,5.944-10.8,13.811a.558.558,0,0,0,.806.693,11.873,11.873,0,0,1,8.18-.976l.01,0a.591.591,0,0,0,.109.012h0c.016,0,.031,0,.046-.005a.487.487,0,0,0,.078-.01.388.388,0,0,0,.044-.015.512.512,0,0,0,.074-.027.451.451,0,0,0,.039-.024.609.609,0,0,0,.067-.044l0,0a.464.464,0,0,0,.041-.041c.013-.015.029-.027.042-.043a9.554,9.554,0,0,1,10.712-2.5l1.233,4c-5.5.686-10.91,1.873-12.579,3.927a4.334,4.334,0,0,0-.473.724c-.066.072-.131.143-.188.216a4.661,4.661,0,0,0-.433.672l-.032.031a45.939,45.939,0,0,0-8.439,11.746c-.387.09-.778.18-1.179.27v-1.88c0-2.132-2.159-3.869-4.817-3.871h-.005a5.479,5.479,0,0,0-3.353,1.084,3.7,3.7,0,0,0-1.361,1.973,19.541,19.541,0,0,0-10.492,3.234c-3.083,2.151-4.781,5.034-4.784,8.115l0,2.769c0,3.082,1.691,5.967,4.769,8.124a16.676,16.676,0,0,0,3.341,1.786c-.129,5.678,1.1,14.161,8.375,19.972a61.024,61.024,0,0,0,15.709,8.794,45.856,45.856,0,0,0,78.828-42.794Zm-50.911-40.634a22.6,22.6,0,0,1,4.173,1.7,8.167,8.167,0,0,0-5.155,4.024c-1.2-1.419-4.629-4.665-12.169-6.593A31.613,31.613,0,0,1,2047.224,3533.393Zm-24.108,7.958a21.874,21.874,0,0,0-.879,5.168,13.46,13.46,0,0,0-6.7.551c3.094-6.585,6.919-10,9.593-11.707a18.094,18.094,0,0,1,2.165-1.184A16.381,16.381,0,0,0,2023.116,3541.351Zm2.594,2.972a11.1,11.1,0,0,0-2.125,1.376c.264-2.74,1.448-8.958,6.732-12.276l3.171,10.281A10.64,10.64,0,0,0,2025.71,3544.323Zm5.948-11.035c7.63,1.538,11.449,4.434,13.113,6.132a12.194,12.194,0,0,0-9.775,4.134C2034.4,3541.694,2032.986,3537.276,2031.658,3533.288Zm7.138,23.685a.548.548,0,0,0-.018-.187l-1.144-3.709c4.229-.353,9.549-.573,15.358-.6,4.669-.024,9.008.078,12.8.282-.312,1.851-.566,3.371-.679,4.052A252.978,252.978,0,0,1,2038.8,3556.973Zm-1.151-.071c-2.237-.149-4.239-.35-5.887-.609-3.533-.556-3.825-1.177-3.831-1.177h0s.029-.106.255-.291c.8-.654,3.852-1.23,8.314-1.648Zm32.374-3.854c4.806.41,8.237,1.021,9.558,1.767.036.021.066.039.092.056-.9.645-4.863,1.224-10.244,1.648Zm1.232-10.916a3.325,3.325,0,0,1-2.3-1.155.515.515,0,0,0-.106-.113c0-.008,0-.017-.009-.024a1.493,1.493,0,0,1,.052-1.805,15.9,15.9,0,0,0,3.127,2.4.939.939,0,0,1-.2.486A.774.774,0,0,1,2071.251,3542.132Zm10.58-12.087a1.91,1.91,0,0,0,.528.248c-2.947,2.622-6.06,5.334-7.164,6.294a12.3,12.3,0,0,0-1.629-1.67c1.285-1.117,5.224-4.536,7.351-6.307A2.177,2.177,0,0,0,2081.831,3530.045Zm1.821-2.222a.974.974,0,0,1,.031,1.189l-.009,0a1.006,1.006,0,0,1-1.671-.929.851.851,0,0,1,.671-.677A1.113,1.113,0,0,1,2083.652,3527.823Zm-11.929,7.553a.847.847,0,0,1,.623-.062.463.463,0,0,0,.081.095,10.715,10.715,0,0,1,2.121,2.2,1.638,1.638,0,0,1-.513.91,9.99,9.99,0,0,1-2.77-2.418A1.2,1.2,0,0,1,2071.723,3535.376Zm-1.358,1.368a12.138,12.138,0,0,0,3,2.65,1.508,1.508,0,0,1-.72,1.115,15.009,15.009,0,0,1-3.139-2.43C2069.572,3537.691,2069.785,3536.937,2070.365,3536.744Zm-1.647,5.539a5.057,5.057,0,0,0,1.874.839l-2.29,13.394a10.367,10.367,0,0,1-1.049.087c-.25.011-.548.024-1,.057C2066.681,3554.119,2068.142,3545.405,2068.718,3542.283Zm-20.915,7.058c1.554-.043,3.135-.065,4.73-.065,4.629,0,9.349.188,13.749.556-.1.618-.208,1.229-.308,1.82a218.771,218.771,0,0,0-28.689.293l-.578-1.873C2039.979,3549.706,2043.723,3549.454,2047.8,3549.341Zm-24.274,4.419c1.222-1.5,5.627-2.758,12.05-3.555l.57,1.847c-4.407.441-7.644,1.08-8.667,1.915-.791.645-.705,1.246-.583,1.546.861,2.128,11.61,2.818,22.72,2.818,7.718,0,15.61-.333,20.482-.747,10.4-.884,10.643-2,10.76-2.537.069-.316,0-.78-.739-1.2-1.492-.843-5.166-1.473-9.917-1.9l.292-1.705c7.424.879,13.34,2.359,15.254,4.466.439.482.442.822.013,1.254-2.366,2.378-15.164,4.266-30.431,4.49-16.2.237-28.645-1.4-31.72-4.163C2022.755,3555.527,2022.73,3554.744,2023.529,3553.76Zm-1.546,2.087a3.121,3.121,0,0,0,.889,1.275c3.678,3.309,17.172,4.468,29.552,4.468.984,0,1.961-.007,2.926-.021,13.339-.2,28.159-1.761,31.2-4.816a2.814,2.814,0,0,0,.28-.329,44.778,44.778,0,0,1,6.8,9.49l-.135-.033c-5.925-1.41-10.6-2.524-17.847-1.924a80.825,80.825,0,0,0-9.49,1.531,44.109,44.109,0,0,1-23.29,0,80.792,80.792,0,0,0-9.49-1.531c-7.238-.6-11.921.514-17.846,1.924l-1,.237A44.818,44.818,0,0,1,2021.983,3555.847Zm-9.935,11.984c1.32-.3,2.556-.59,3.737-.872,5.83-1.387,10.436-2.482,17.5-1.9a79.9,79.9,0,0,1,9.36,1.513,45.157,45.157,0,0,0,23.732,0,79.932,79.932,0,0,1,9.36-1.513c7.069-.585,11.67.511,17.5,1.9,1.182.282,2.417.576,3.737.872.362,1.743-.1,12.355-.6,15.292-1.624,9.627-9.3,13.726-15.947,14.352-7.7.727-17.066-2.844-20.628-12.453-.176-.474-.4-1.277-.663-2.206-1.094-3.885-2.117-7.153-3.569-7.777a3.213,3.213,0,0,0-2.109,0c-1.453.624-2.475,3.89-3.569,7.773-.262.931-.488,1.735-.664,2.21-3.563,9.61-12.932,13.18-20.628,12.453-6.644-.626-14.323-4.725-15.946-14.352a111.072,111.072,0,0,1-.727-12.082v-1.076A14.116,14.116,0,0,1,2012.048,3567.831Zm-8.654-3a2.431,2.431,0,0,1,1.037-1.9,4.362,4.362,0,0,1,2.674-.852h0c2.047,0,3.711,1.241,3.71,2.762l0,5.195c0,.265,0,.552,0,.863l-.016,18.515a2.436,2.436,0,0,1-1.038,1.905,4.366,4.366,0,0,1-2.673.851h0c-2.047,0-3.712-1.241-3.711-2.763Zm3.687,28.443h.006a5.944,5.944,0,0,0,1.586-.226,45.539,45.539,0,0,0,6,17.276,50.682,50.682,0,0,1-8.577-5.425c-5.47-4.367-6.74-10.908-6.828-15.705a22.589,22.589,0,0,0,3.006.319C2002.343,3591.6,2004.47,3593.275,2007.081,3593.277Zm-18.86-15.131,0-2.769c0-2.709,1.533-5.269,4.31-7.208a18.379,18.379,0,0,1,9.753-3.039l-.021,23.289a18.386,18.386,0,0,1-9.747-3.057C1989.744,3583.418,1988.218,3580.856,1988.221,3578.146Zm8.1,10.308c.587.195,1.184.373,1.8.516.033,5.035,1.317,12.034,7.284,16.8,8.869,7.082,21.676,11.234,30.982,12.878a4.035,4.035,0,0,0-.245.923,4.122,4.122,0,0,0-.027.838c-6.3-1.125-20.907-4.533-31.822-13.245C1997.518,3601.754,1996.253,3593.885,1996.317,3588.454Zm57.814,43.326a44.616,44.616,0,0,1-32.555-14.107,90.5,90.5,0,0,0,14.8,3.9,4.029,4.029,0,0,0,3.209,2.536l5.094.7a4.118,4.118,0,0,0,.552.038,4.034,4.034,0,0,0,.548-8.03l-5.1-.7a4.008,4.008,0,0,0-3.716,1.5,82.379,82.379,0,0,1-20.453-6.4,44.489,44.489,0,0,1-6.792-18.58,4.864,4.864,0,0,0,.717-.458,3.515,3.515,0,0,0,1.466-2.779l0-4.459c2.284,9.065,9.92,12.995,16.582,13.623.673.063,1.358.1,2.05.1,7.668,0,16.265-3.949,19.72-13.267.191-.517.423-1.34.692-2.295.648-2.3,1.855-6.589,2.939-7.055a1,1,0,0,1,.539-.09.592.592,0,0,0,.158,0,1,1,0,0,1,.536.089c1.086.467,2.293,4.756,2.941,7.06.268.953.5,1.775.691,2.291,3.767,10.16,13.644,13.94,21.771,13.171,7.054-.665,15.207-5.025,16.935-15.271.169-1,.352-3.074.493-5.483a44.785,44.785,0,0,1-43.826,53.956Zm-16.894-12.061a2.923,2.923,0,0,1,2.892-2.527,3.046,3.046,0,0,1,.4.027l5.1.7a2.925,2.925,0,0,1-.8,5.8l-5.094-.7a2.922,2.922,0,0,1-2.5-3.3Z" fill="#fff"/>
    <path id="Trazado_785" data-name="Trazado 785" d="M2027.074,3595.905a6.439,6.439,0,0,0,.7.023,55.447,55.447,0,0,0,7.124-.459c6.646-1.372,11.1-6.008,12.883-13.406,1.15-4.769,1.829-9.686-3.455-12.807-4.083-2.412-13.129-2.819-19.291-2.038a.615.615,0,0,0-.084,0l-.084.017a22.533,22.533,0,0,0-3.96.828c-7.385,2.438-7.183,7.386-6.152,13.6C2015.841,3588.233,2018.087,3594.5,2027.074,3595.905Zm3.994-27.935c4.892,0,10.031.669,12.691,2.24,4.636,2.739,4.037,7.047,2.941,11.594a19.105,19.105,0,0,1-3.488,7.462l-8.8-14.794a.554.554,0,0,0-.732-.208l-3,1.559-4.693-7.6A49.534,49.534,0,0,1,2031.068,3567.97Zm-10.228,1.294,7.483,12.118a.553.553,0,0,0,.727.2l2.989-1.555,7.438,12.51a15.217,15.217,0,0,1-4.807,1.847,56.081,56.081,0,0,1-7.426.426c-7.829-1.223-10.219-6.211-11.4-13.323C2014.86,3575.557,2014.683,3571.472,2020.84,3569.264Z" fill="#fff"/>
    <path id="Trazado_786" data-name="Trazado 786" d="M2074.126,3595.469a55.446,55.446,0,0,0,7.124.459,6.473,6.473,0,0,0,.7-.023c8.985-1.4,11.232-7.672,12.321-14.236,1.032-6.215,1.234-11.163-6.151-13.6-5.174-1.708-18.26-1.859-23.42,1.188-5.283,3.12-4.6,8.038-3.454,12.807C2063.025,3589.461,2067.481,3594.1,2074.126,3595.469Zm13.644-26.349c6.579,2.172,6.412,6.307,5.406,12.367a22.324,22.324,0,0,1-2.521,7.84l-8.833-14.855a.553.553,0,0,0-.732-.208l-3,1.559-4.724-7.649c1.5-.139,3.051-.2,4.583-.2A35.139,35.139,0,0,1,2087.77,3569.12Zm-22.509,1.09a12.049,12.049,0,0,1,2.865-1.139l7.6,12.311a.552.552,0,0,0,.727.2l2.989-1.555,7.68,12.915a14.076,14.076,0,0,1-5.346,1.868,56.143,56.143,0,0,1-7.429-.426c-7.826-1.616-10.862-7.733-12.03-12.58C2061.225,3577.257,2060.625,3572.948,2065.261,3570.21Z" fill="#fff"/>
  </g>
</svg>