<svg xmlns="http://www.w3.org/2000/svg" width="143.616" height="135.182" viewBox="0 0 143.616 135.182">
  <g id="Grupo_644" data-name="Grupo 644" transform="translate(-1477.113 -832.663)">
    <g id="Grupo_643" data-name="Grupo 643">
      <path id="Trazado_657" data-name="Trazado 657" d="M1513.2,906.934l5.943,3.505a1.123,1.123,0,0,0,.588.191.914.914,0,0,0,.654-.281.931.931,0,0,0,.287-.689.916.916,0,0,0-.426-.808l-5.275-3.1,5.274-3.121a.868.868,0,0,0,.427-.789.932.932,0,0,0-.287-.689.949.949,0,0,0-1.238-.091l-5.944,3.517a1,1,0,0,0-.556.887v.583A.978.978,0,0,0,1513.2,906.934Z" fill="#835830"/>
      <path id="Trazado_658" data-name="Trazado 658" d="M1524.262,911.688a1.071,1.071,0,0,0,.674.244.688.688,0,0,0,.626-.331l6.126-10.39a1.384,1.384,0,0,0,.216-.71.81.81,0,0,0-.332-.664.884.884,0,0,0-1.3.109l-6.133,10.382a1.4,1.4,0,0,0-.2.69A.819.819,0,0,0,1524.262,911.688Z" fill="#835830"/>
      <path id="Trazado_659" data-name="Trazado 659" d="M1535.06,909.67a.914.914,0,0,0,.29.691.932.932,0,0,0,.651.269,1.125,1.125,0,0,0,.593-.189l5.949-3.505a1,1,0,0,0,.534-.889v-.585a1,1,0,0,0-.535-.89l-5.946-3.512a.959.959,0,0,0-1.246.08.979.979,0,0,0,.146,1.51l5.266,3.1-5.265,3.121A.87.87,0,0,0,1535.06,909.67Z" fill="#835830"/>
      <path id="Trazado_660" data-name="Trazado 660" d="M1620.641,902.878a.657.657,0,0,0-.478-.625l-6.572-1.86-2.308-4.85,3.233-6.845a.656.656,0,0,0-.136-.75l-6.411-6.245a.656.656,0,0,0-.767-.109l-6.211,3.314c-.508-.222-1.081-.419-1.681-.625-1.55-.533-3.307-1.137-3.791-2.213a22.211,22.211,0,0,1-.7-2.8c-.556-2.618-.744-3.312-1.171-3.589a.653.653,0,0,0-.357-.1h-9.46a.656.656,0,0,0-.631.475l-1.877,6.56-2.25,1.071a53.379,53.379,0,0,0-10.069-14.79.414.414,0,0,0-.041-.03,2.565,2.565,0,0,0-.7-1.4c-1.967-2.163-7.019-3.79-13.632-4.9.471-2.378.9-4.643,1.129-5.85,2.089-11.1,2.317-13.464,2.287-14.074,0-.007,0-.012,0-.019l-.257-5.5h0c-.005-.1-.009-.255-.015-.451-.093-3.242-.242-3.728-.783-3.94a.726.726,0,0,0-.793.18,29.719,29.719,0,0,0-2.085,3.531c-.028.026-.054.043-.083.072a31.136,31.136,0,0,0-2.811,4.631.977.977,0,0,0-.309.432c-.1.254-.406,1.975-.821,4.472-.2-.027-.411-.046-.638-.059v-.091a2.7,2.7,0,0,0-.622-2.021c.04-.581.127-3.066-1.144-4.415a2.722,2.722,0,0,0-2.117-.848,3,3,0,0,0-2.235.989,5.771,5.771,0,0,0-1.081,3.824,1.846,1.846,0,0,0-1.033,1.574c-.042.575-.506,8.892-.9,16.043-5.624-.327-11.534-.411-17.21-.254-2.613.072-7.9.287-13.3.9l-1.338-4.34c6-7.045,12.564-5.122,12.9-5.017a.651.651,0,0,0,.416,0h0a.548.548,0,0,0,.084-.035h0a.652.652,0,0,0,.28-.273c.009-.017.017-.033.025-.05,2.484-5.537,7.293-5.3,7.495-5.292a.657.657,0,0,0,.448-1.173,23.108,23.108,0,0,0-7.032-3.278,39.731,39.731,0,0,0-19.438-.537l-.7-2.224v0h0v0c-.007-.02-.017-.037-.025-.056a.533.533,0,0,0-.027-.065.635.635,0,0,0-.037-.053c-.012-.018-.022-.036-.036-.053a.619.619,0,0,0-.052-.05.467.467,0,0,0-.039-.038.6.6,0,0,0-.067-.044c-.013-.008-.025-.018-.038-.025a.756.756,0,0,0-.078-.032.3.3,0,0,0-.038-.015.5.5,0,0,0-.084-.017c-.014,0-.027-.007-.041-.008a.539.539,0,0,0-.08,0,.4.4,0,0,0-.049,0,.534.534,0,0,0-.067.014.454.454,0,0,0-.062.012h0a.512.512,0,0,0-.053.023.527.527,0,0,0-.068.029.4.4,0,0,0-.049.034c-.019.013-.039.024-.057.039s-.028.029-.043.044-.031.029-.045.046-.023.036-.035.053-.024.034-.034.053a.6.6,0,0,0-.024.058c-.008.02-.017.038-.023.058a.481.481,0,0,0-.013.063c0,.021-.01.041-.012.062s0,.043,0,.064,0,.043,0,.064a.465.465,0,0,0,.013.063.506.506,0,0,0,.013.066l.641,2.079a19.563,19.563,0,0,0-6.358,2.7c-3.637,2.3-8.789,6.984-12.684,16.226a.657.657,0,0,0,.947.815,13.937,13.937,0,0,1,9.61-1.147l.012,0a.7.7,0,0,0,.128.014h.005a.491.491,0,0,0,.054-.006.559.559,0,0,0,.091-.011.459.459,0,0,0,.051-.018.544.544,0,0,0,.088-.032c.016-.007.03-.019.046-.028a.654.654,0,0,0,.079-.051l.005,0c.017-.014.031-.033.047-.049s.035-.031.05-.05a11.223,11.223,0,0,1,12.585-2.939l1.386,4.492c-6.391.8-12.661,2.181-14.6,4.568a5.094,5.094,0,0,0-.578.874c-.067.073-.134.146-.192.221a5.425,5.425,0,0,0-.5.781c-.013.011-.025.023-.037.035a53.359,53.359,0,0,0,5.823,80.229v6.876a5.185,5.185,0,0,0-3.31,4.826v2.427a5.186,5.186,0,0,0,5.18,5.18h101.73a5.186,5.186,0,0,0,5.18-5.18v-2.427a5.185,5.185,0,0,0-3.31-4.826v-23.54l3.619,1.71a.657.657,0,0,0,.75-.136l6.245-6.411a.658.658,0,0,0,.109-.767l-3.314-6.21c.221-.507.417-1.079.624-1.678.535-1.556,1.142-3.319,2.21-3.795a21.786,21.786,0,0,1,2.329-.62c3.233-.765,4.074-1.03,4.253-1.684a.639.639,0,0,0,.023-.179Zm-97.985-59.433a26.259,26.259,0,0,1,5.143,2.122,9.534,9.534,0,0,0-6.309,4.863c-1.467-1.788-5.579-5.686-14.826-7.945A37.379,37.379,0,0,1,1522.656,843.445Zm-28.258,9.47a25.491,25.491,0,0,0-1.033,6.159,15.733,15.733,0,0,0-8.147.7c3.639-7.848,8.161-11.936,11.406-14.007a20.9,20.9,0,0,1,3.073-1.627A19.052,19.052,0,0,0,1494.4,852.915Zm3,3.552a12.97,12.97,0,0,0-2.656,1.754c.282-3.307,1.641-10.829,8.082-14.8l3.815,12.372A12.4,12.4,0,0,0,1497.4,856.467Zm6.8-13.181c9.432,1.869,13.973,5.516,15.8,7.451-2.509-.232-7.252.14-11.775,4.925C1507.5,853.411,1505.791,848.073,1504.195,843.286Zm50.514-5.538a3.484,3.484,0,0,0,1.683.436c.051,0,.1-.005.144-.008l.185,3.964a4.36,4.36,0,0,1-4.06-.768l-.056-.04A38.317,38.317,0,0,1,1554.709,837.748Zm-2.676,4.789a5.557,5.557,0,0,0,4.668.95c-.51,4.207-4.194,23.759-5.024,26.565-.9.082-2.481.178-3.6.241.086-1.425.283-4.689.5-8.389-.079,2.537-.017,3.819.636,4.5a1.528,1.528,0,0,0,1.147.457c2.227,0,2.231-2.628,2.238-7.861,0-1.436,0-3.063.045-4.923.11-4.942-.052-6.886-1.287-7.648C1551.659,844.619,1551.894,843.246,1552.033,842.537Zm-39.355,28.4-1.388-4.5c4.925-.412,11.126-.668,17.9-.7.508,0,1.011,0,1.513,0,3.3,0,6.428.056,9.357.158-.132,2.375-.235,4.239-.281,5.06-.785.034-1.591.067-2.427.1C1528.318,871.372,1519.477,871.319,1512.678,870.934Zm-1.4-.087c-2.543-.169-4.757-.387-6.525-.653-4.386-.662-4.71-1.4-4.719-1.4s.03-.118.293-.332c.93-.759,4.46-1.426,9.627-1.912Zm42.468-3.936a21.1,21.1,0,0,1,6.371,1.542c.032.018.06.035.084.05-.675.419-2.928.964-7.155,1.462C1553.239,869.223,1553.482,868.146,1553.746,866.911Zm-2.41-12.865c-.041,1.874-.043,3.508-.045,4.95-.005,3.945-.009,6.551-.926,6.551-.149,0-.185-.037-.2-.055-.395-.41-.315-2.514-.212-5.177.073-1.921.165-4.311.164-7.321a3.244,3.244,0,0,0-.871-2.612c.068-1.241.124-2.306.163-3.1C1551.237,847.364,1551.476,847.766,1551.336,854.046Zm-7.015-13.583a1.707,1.707,0,0,1,1.294-.554,1.423,1.423,0,0,1,1.125.433,4.625,4.625,0,0,1,.8,2.841l-.132-.012a14.438,14.438,0,0,0-2.007-.2l-.305-.014-1.529-.141A3.971,3.971,0,0,1,1544.321,840.463Zm-1.781,4.616c.046-.647,1.084-.814,2.146-.814.141,0,.28.007.419.012l2.155.2c.8.18.9.531.892,1.388-.025,1.811-1.174,20.907-1.391,24.5l-5.656.341C1541.337,866.529,1542.475,845.971,1542.54,845.079Zm-19.386,17.006c1.807-.051,3.646-.075,5.5-.075,3.87,0,7.8.113,11.6.333-.043.771-.084,1.522-.124,2.239-3.7-.13-7.464-.179-10.948-.162-6,.03-12.72.25-18.29.726l-.681-2.208C1514.027,862.511,1518.393,862.216,1523.154,862.085Zm-14.267,1.01.671,2.173c-4.989.482-8.848,1.191-10.06,2.179-.926.756-.825,1.46-.682,1.813.271.671,1.1,2.712,19.329,3.212,2.377.065,4.882.1,7.439.1,8.116,0,16.759-.318,23.514-.893,12.108-1.029,12.393-2.334,12.53-2.961.081-.371,0-.916-.865-1.4a21.887,21.887,0,0,0-6.748-1.683c.122-.589.246-1.2.369-1.808,6.312,1.044,11.123,2.544,12.916,4.516.576.635.433,1.024.014,1.445-2.75,2.764-17.638,4.96-35.4,5.22-18.847.277-33.327-1.623-36.9-4.841a1.7,1.7,0,0,1-.6-2.141l.017-.019,0,0a3.689,3.689,0,0,1,.5-.773C1496.332,865.479,1501.439,864.022,1508.887,863.095Zm-30.462,42.8a51.761,51.761,0,0,1,14.668-36.229,3.689,3.689,0,0,0,1.04,1.466c4.283,3.853,19.988,5.2,34.4,5.2,1.143,0,2.282-.008,3.4-.025,15.524-.228,32.772-2.05,36.311-5.607a3.164,3.164,0,0,0,.317-.372,52.045,52.045,0,0,1,9.332,13.907l-1.416.674-6.845-3.233a.657.657,0,0,0-.75.136l-3.416,3.507h-61.655a5.406,5.406,0,0,0-5.4,5.4v56.157A52.02,52.02,0,0,1,1478.425,905.9Zm127.455,54.339v2.427a3.873,3.873,0,0,1-3.869,3.868h-101.73a3.872,3.872,0,0,1-3.868-3.868v-2.427a3.872,3.872,0,0,1,3.868-3.868h32.04v2.313a2.912,2.912,0,0,0,2.909,2.909h31.832a2.912,2.912,0,0,0,2.909-2.909V956.37h32.04A3.873,3.873,0,0,1,1605.88,960.238Zm-3.311-5.149a5.127,5.127,0,0,0-.558-.031h-32.7a.656.656,0,0,0-.656.656v2.969a1.6,1.6,0,0,1-1.6,1.6H1535.23a1.6,1.6,0,0,1-1.6-1.6v-2.969a.656.656,0,0,0-.656-.656h-32.7a5.127,5.127,0,0,0-.558.031V890.725a4.093,4.093,0,0,1,4.088-4.088h60.377l-1.551,1.592a.656.656,0,0,0-.109.767l1.626,3.047h-54.911a4.315,4.315,0,0,0-4.31,4.309v49.873a4.315,4.315,0,0,0,4.31,4.309h83.807a4.314,4.314,0,0,0,4.309-4.309V931.916l3.3-1.567,1.914.9Zm-46.078-42.7a.656.656,0,0,0,.478.625l6.573,1.86,2.308,4.85-3.234,6.845a.657.657,0,0,0,.136.75l6.411,6.245a.656.656,0,0,0,.767.109l6.2-3.31,5.392,2.641,1.965,6.324a.658.658,0,0,0,.627.461h.006l9.181-.093a.658.658,0,0,0,.624-.476l1.877-6.561.243-.116v13.685a3,3,0,0,1-3,3h-83.807a3,3,0,0,1-3-3V896.352a3,3,0,0,1,3-3h55.612l.988,1.851c-.222.507-.418,1.079-.625,1.679-.535,1.555-1.142,3.318-2.21,3.794a22.152,22.152,0,0,1-2.328.619c-3.234.766-4.075,1.031-4.254,1.684a.651.651,0,0,0-.023.18Zm59.659.3a19.112,19.112,0,0,0-2.56.7c-1.589.708-2.295,2.758-2.917,4.567a17.471,17.471,0,0,1-.7,1.839.656.656,0,0,0,.011.6l3.241,6.075-5.583,5.732-6.7-3.166a.658.658,0,0,0-.562,0l-5.4,2.569a.659.659,0,0,0-.348.412l-1.824,6.374-8.2.084-1.9-6.128a.657.657,0,0,0-.338-.394l-5.948-2.913a.664.664,0,0,0-.288-.067.654.654,0,0,0-.31.078l-6.074,3.241L1564,926.7l3.167-6.7a.658.658,0,0,0,0-.562l-2.569-5.4a.657.657,0,0,0-.414-.35l-6.387-1.807-.08-8.414a28.492,28.492,0,0,1,3.264-.893,19.272,19.272,0,0,0,2.56-.7c1.589-.708,2.294-2.758,2.916-4.566a17.7,17.7,0,0,1,.706-1.84.653.653,0,0,0-.011-.6l-3.242-6.075,5.584-5.732,6.7,3.165a.655.655,0,0,0,.562,0l5.4-2.569a.657.657,0,0,0,.349-.412l1.822-6.37h8.578c.184.541.448,1.786.632,2.656a20.71,20.71,0,0,0,.783,3.07c.717,1.593,2.759,2.295,4.561,2.915a17.436,17.436,0,0,1,1.842.706.656.656,0,0,0,.6-.011l6.075-3.242,5.733,5.584-3.167,6.7a.662.662,0,0,0,0,.562l2.569,5.4a.655.655,0,0,0,.414.349l6.387,1.808.08,8.414A28.566,28.566,0,0,1,1616.15,912.689Z" fill="#835830"/>
      <path id="Trazado_661" data-name="Trazado 661" d="M1606.32,898.671a3.4,3.4,0,0,0-2.278-2.95,3.673,3.673,0,0,0-3.652.706,16.25,16.25,0,1,0,3.717,6.213c.078-.073.155-.145.237-.22C1605.3,901.546,1606.494,900.456,1606.32,898.671Zm-2.717-1.714a2.09,2.09,0,0,1,1.41,1.841c.111,1.133-.661,1.838-1.554,2.654-.274.25-.557.509-.811.782l-1.167,1.261a167.826,167.826,0,0,1-12.711,12.813c-1.683,1.414-2.363,1.766-3.989.514a71.81,71.81,0,0,1-6.511-6.511,2.731,2.731,0,0,1-.382-2.437,1.765,1.765,0,0,1,1.308-1.1,2.583,2.583,0,0,1,.607-.074c1.287,0,2.207,1.048,3.251,2.236,1.014,1.154,2.063,2.348,3.587,2.664a.657.657,0,0,0,.6-.179l13.844-13.862A2.4,2.4,0,0,1,1603.6,896.957Zm-15.037,25.748a15.026,15.026,0,1,1,10.885-25.367l-12.871,12.887a6.971,6.971,0,0,1-2.54-2.153c-1.294-1.473-2.762-3.142-5.148-2.572a3.066,3.066,0,0,0-2.229,1.9,4.023,4.023,0,0,0,.525,3.652,70.732,70.732,0,0,0,6.792,6.807,4.139,4.139,0,0,0,2.5,1.04,5.137,5.137,0,0,0,3.133-1.588,169,169,0,0,0,12.83-12.927l.608-.657a14.989,14.989,0,0,1-14.486,18.976Z" fill="#835830"/>
      <path id="Trazado_662" data-name="Trazado 662" d="M1511.929,920.928h12.924a.95.95,0,0,0,0-1.9h-12.924a.95.95,0,0,0,0,1.9Z" fill="#835830"/>
      <path id="Trazado_663" data-name="Trazado 663" d="M1525.8,935.769a.95.95,0,0,0-.95-.95h-12.924a.95.95,0,0,0,0,1.9h12.924A.95.95,0,0,0,1525.8,935.769Z" fill="#835830"/>
      <path id="Trazado_664" data-name="Trazado 664" d="M1520.674,922.976h-4.461a.95.95,0,1,0,0,1.9h4.461a.95.95,0,1,0,0-1.9Z" fill="#835830"/>
      <path id="Trazado_665" data-name="Trazado 665" d="M1539.914,922.976h0a.95.95,0,0,0,0,1.9h6.672a.95.95,0,0,0,0-1.9h-6.672Z" fill="#835830"/>
      <path id="Trazado_666" data-name="Trazado 666" d="M1520.674,926.923h-4.461a.951.951,0,0,0,0,1.9h4.461a.951.951,0,0,0,0-1.9Z" fill="#835830"/>
      <path id="Trazado_667" data-name="Trazado 667" d="M1522.794,938.767h-6.581a.95.95,0,1,0,0,1.9h6.581a.95.95,0,1,0,0-1.9Z" fill="#835830"/>
      <path id="Trazado_668" data-name="Trazado 668" d="M1522.794,942.714h-6.581a.95.95,0,1,0,0,1.9h6.581a.95.95,0,1,0,0-1.9Z" fill="#835830"/>
      <path id="Trazado_669" data-name="Trazado 669" d="M1558.966,938.767h-6.582a.95.95,0,1,0,0,1.9h6.582a.95.95,0,1,0,0-1.9Z" fill="#835830"/>
      <path id="Trazado_670" data-name="Trazado 670" d="M1558.966,942.714h-6.582a.95.95,0,1,0,0,1.9h6.582a.95.95,0,1,0,0-1.9Z" fill="#835830"/>
      <path id="Trazado_671" data-name="Trazado 671" d="M1529.271,938.767h-3.3a.95.95,0,1,0,0,1.9h3.3a.95.95,0,0,0,0-1.9Z" fill="#835830"/>
      <path id="Trazado_672" data-name="Trazado 672" d="M1549.811,938.767h-17.459a.95.95,0,1,0,0,1.9h17.459a.95.95,0,0,0,0-1.9Z" fill="#835830"/>
      <path id="Trazado_673" data-name="Trazado 673" d="M1535.314,942.714h-9.346a.95.95,0,1,0,0,1.9h9.346a.95.95,0,1,0,0-1.9Z" fill="#835830"/>
      <path id="Trazado_674" data-name="Trazado 674" d="M1545.6,942.714h-6.424a.95.95,0,1,0,0,1.9h6.424a.95.95,0,1,0,0-1.9Z" fill="#835830"/>
      <path id="Trazado_675" data-name="Trazado 675" d="M1520.674,930.871h-4.461a.95.95,0,1,0,0,1.9h4.461a.95.95,0,1,0,0-1.9Z" fill="#835830"/>
      <path id="Trazado_676" data-name="Trazado 676" d="M1535.783,927.873a.95.95,0,0,0,.95.951h6.779a.951.951,0,0,0,0-1.9h-6.779A.95.95,0,0,0,1535.783,927.873Z" fill="#835830"/>
      <path id="Trazado_677" data-name="Trazado 677" d="M1547,927.873a.951.951,0,0,0,.95.951h6.779a.951.951,0,0,0,0-1.9h-6.779A.951.951,0,0,0,1547,927.873Z" fill="#835830"/>
      <path id="Trazado_678" data-name="Trazado 678" d="M1536.733,932.771h11.629a.95.95,0,0,0,0-1.9h-11.629a.95.95,0,1,0,0,1.9Z" fill="#835830"/>
      <path id="Trazado_679" data-name="Trazado 679" d="M1552.923,930.871h0a.95.95,0,0,0,0,1.9h6.463a.95.95,0,1,0,0-1.9h-6.463Z" fill="#835830"/>
      <path id="Trazado_680" data-name="Trazado 680" d="M1535.751,924.876h0a.95.95,0,1,0,0-1.9h-11.537a.95.95,0,1,0,0,1.9h11.537Z" fill="#835830"/>
      <path id="Trazado_681" data-name="Trazado 681" d="M1533.369,926.923h-9.155a.951.951,0,1,0,0,1.9h9.155a.951.951,0,0,0,0-1.9Z" fill="#835830"/>
      <path id="Trazado_682" data-name="Trazado 682" d="M1533.369,932.771h0a.95.95,0,0,0,0-1.9h-9.155a.95.95,0,1,0,0,1.9h9.155Z" fill="#835830"/>
    </g>
  </g>
</svg>
