<svg xmlns="http://www.w3.org/2000/svg" width="200.578" height="188.799" viewBox="0 0 200.578 188.799">
  <g id="Grupo_784" data-name="Grupo 784" transform="translate(-55.34 -760.122)">
    <g id="Grupo_783" data-name="Grupo 783">
      <path id="Trazado_872" data-name="Trazado 872" d="M105.734,863.852l8.3,4.894a1.57,1.57,0,0,0,.821.267,1.274,1.274,0,0,0,.913-.392,1.3,1.3,0,0,0,.4-.963,1.284,1.284,0,0,0-.6-1.129l-7.368-4.332,7.366-4.359a1.211,1.211,0,0,0,.6-1.1,1.3,1.3,0,0,0-.4-.962,1.326,1.326,0,0,0-1.729-.128l-8.3,4.912a1.4,1.4,0,0,0-.776,1.239v.815A1.368,1.368,0,0,0,105.734,863.852Z" fill="#ffffff"/>
      <path id="Trazado_873" data-name="Trazado 873" d="M121.189,870.491a1.5,1.5,0,0,0,.941.341.96.96,0,0,0,.874-.462l8.557-14.511a1.942,1.942,0,0,0,.3-.993,1.128,1.128,0,0,0-.464-.927,1.235,1.235,0,0,0-1.819.153l-8.564,14.5a1.955,1.955,0,0,0-.286.964A1.145,1.145,0,0,0,121.189,870.491Z" fill="#ffffff"/>
      <path id="Trazado_874" data-name="Trazado 874" d="M136.27,867.672a1.273,1.273,0,0,0,.4.965,1.29,1.29,0,0,0,.909.376,1.589,1.589,0,0,0,.829-.263l8.308-4.9a1.4,1.4,0,0,0,.745-1.241v-.818a1.4,1.4,0,0,0-.747-1.242l-8.3-4.9a1.339,1.339,0,0,0-1.74.111,1.367,1.367,0,0,0,.2,2.109l7.354,4.331-7.353,4.358A1.217,1.217,0,0,0,136.27,867.672Z" fill="#ffffff"/>
      <path id="Trazado_875" data-name="Trazado 875" d="M255.794,858.186a.916.916,0,0,0-.666-.873l-9.18-2.6-3.223-6.773,4.515-9.56a.917.917,0,0,0-.189-1.048l-8.954-8.722a.919.919,0,0,0-1.071-.152l-8.674,4.629c-.711-.31-1.51-.585-2.349-.873-2.164-.744-4.618-1.589-5.3-3.09a31.287,31.287,0,0,1-.97-3.917c-.776-3.656-1.039-4.626-1.636-5.013a.915.915,0,0,0-.5-.147H204.391a.917.917,0,0,0-.881.664l-2.621,9.163-3.142,1.495a74.563,74.563,0,0,0-14.063-20.656c-.017-.018-.039-.026-.057-.042a3.582,3.582,0,0,0-.975-1.961c-2.747-3.021-9.8-5.293-19.039-6.85.658-3.321,1.259-6.485,1.576-8.171,2.919-15.5,3.237-18.8,3.194-19.656,0-.009.005-.017,0-.026l-.358-7.684h0c-.006-.137-.013-.357-.021-.63-.13-4.528-.338-5.207-1.094-5.5a1.018,1.018,0,0,0-1.107.252,41.44,41.44,0,0,0-2.912,4.932c-.039.036-.076.06-.116.1-1.093,1.113-3.326,5.319-3.925,6.467a1.365,1.365,0,0,0-.432.6c-.138.355-.568,2.757-1.147,6.245-.277-.037-.574-.064-.892-.083l0-.126a3.77,3.77,0,0,0-.869-2.822c.055-.813.176-4.283-1.6-6.168a3.805,3.805,0,0,0-2.957-1.183,4.183,4.183,0,0,0-3.121,1.381c-1.629,1.811-1.54,4.8-1.51,5.34a2.578,2.578,0,0,0-1.443,2.2c-.058.8-.706,12.419-1.261,22.406-7.854-.457-16.109-.574-24.037-.355-3.649.1-11.025.4-18.57,1.253l-1.869-6.061c8.376-9.839,17.548-7.155,18.022-7.007a.91.91,0,0,0,.581,0h0a.742.742,0,0,0,.117-.049h0a.916.916,0,0,0,.392-.381c.012-.023.024-.047.034-.071,3.47-7.732,10.187-7.408,10.469-7.39a.917.917,0,0,0,.625-1.638,32.283,32.283,0,0,0-9.821-4.579c-5.688-1.718-14.972-3.214-27.148-.75L91.45,769.6v0h0l0-.005c-.009-.028-.023-.052-.034-.078a.713.713,0,0,0-.038-.09c-.015-.027-.034-.05-.051-.075a.781.781,0,0,0-.051-.073.966.966,0,0,0-.072-.071c-.019-.017-.035-.037-.055-.052a.861.861,0,0,0-.094-.063c-.018-.011-.034-.024-.053-.034a.953.953,0,0,0-.109-.045c-.018-.007-.035-.016-.053-.021a.922.922,0,0,0-.117-.024c-.019,0-.037-.009-.057-.011a.847.847,0,0,0-.112,0c-.023,0-.045,0-.068,0a.74.74,0,0,0-.094.019.819.819,0,0,0-.086.017H90.3c-.026.008-.049.022-.074.032a.874.874,0,0,0-.094.04c-.025.014-.047.032-.07.048s-.054.034-.078.054-.04.041-.06.061a.794.794,0,0,0-.064.066c-.018.023-.032.049-.048.074s-.034.047-.048.073-.022.055-.034.082-.024.053-.032.08a.876.876,0,0,0-.018.089c-.005.028-.014.056-.017.085s0,.06,0,.091a.879.879,0,0,0,0,.089.854.854,0,0,0,.018.088.752.752,0,0,0,.019.092l.9,2.9a27.3,27.3,0,0,0-8.88,3.775c-5.079,3.213-12.275,9.754-17.715,22.662a.916.916,0,0,0,1.323,1.137,19.471,19.471,0,0,1,13.421-1.6l.017,0a.912.912,0,0,0,.179.02h.007c.025,0,.05-.006.075-.008a1.1,1.1,0,0,0,.128-.016c.025-.006.047-.017.071-.025a.882.882,0,0,0,.122-.044c.023-.011.043-.028.065-.041a.936.936,0,0,0,.11-.071l.007-.005c.025-.02.043-.046.066-.068a.9.9,0,0,0,.069-.07,15.676,15.676,0,0,1,17.578-4.1l1.935,6.274c-8.926,1.117-17.683,3.046-20.391,6.379a7.1,7.1,0,0,0-.807,1.221c-.094.1-.188.2-.269.309a7.607,7.607,0,0,0-.7,1.091c-.017.015-.035.031-.051.048a74.524,74.524,0,0,0,8.133,112.051v9.6a7.241,7.241,0,0,0-4.623,6.739v3.391a7.242,7.242,0,0,0,7.234,7.234h142.08a7.242,7.242,0,0,0,7.234-7.234V938.3a7.241,7.241,0,0,0-4.623-6.739V898.681l5.055,2.387a.92.92,0,0,0,1.048-.189l8.721-8.954a.915.915,0,0,0,.152-1.071l-4.629-8.674c.309-.708.584-1.506.872-2.344.748-2.172,1.6-4.635,3.087-5.3a30.832,30.832,0,0,1,3.252-.865c4.517-1.069,5.69-1.439,5.94-2.352a.887.887,0,0,0,.033-.251ZM118.946,775.18a36.792,36.792,0,0,1,7.183,2.964,13.317,13.317,0,0,0-8.811,6.792c-2.05-2.5-7.793-7.941-20.707-11.1A52.186,52.186,0,0,1,118.946,775.18ZM79.48,788.407a35.561,35.561,0,0,0-1.443,8.6,21.993,21.993,0,0,0-11.379.983c5.083-10.96,11.4-16.67,15.931-19.561a29.224,29.224,0,0,1,4.292-2.274A26.61,26.61,0,0,0,79.48,788.407Zm4.186,4.96a18.1,18.1,0,0,0-3.71,2.451c.394-4.619,2.292-15.124,11.288-20.666l5.329,17.278A17.323,17.323,0,0,0,83.666,793.367Zm9.5-18.409c13.172,2.611,19.515,7.7,22.065,10.407-3.5-.325-10.129.2-16.445,6.878C97.781,789.1,95.392,781.644,93.163,774.958Zm70.55-7.734a4.863,4.863,0,0,0,2.35.609c.07,0,.134-.008.2-.011l.258,5.536a6.089,6.089,0,0,1-5.67-1.073l-.078-.056A53.649,53.649,0,0,1,163.713,767.224Zm-3.738,6.688a7.754,7.754,0,0,0,6.52,1.327c-.714,5.876-5.858,33.182-7.018,37.1-1.258.115-3.465.248-5.023.336.12-1.991.4-6.549.7-11.716-.11,3.542-.023,5.333.89,6.281a2.129,2.129,0,0,0,1.6.639c3.11,0,3.115-3.67,3.124-10.979,0-2.005.006-4.277.064-6.875.154-6.9-.073-9.617-1.8-10.681C159.452,776.82,159.781,774.9,159.975,773.912Zm-54.965,39.66-1.938-6.284c6.879-.575,15.539-.934,25-.981.71,0,1.412-.005,2.113-.005,4.6,0,8.978.079,13.068.221-.184,3.317-.328,5.921-.392,7.067-1.1.048-2.222.094-3.39.136C126.854,814.184,114.506,814.11,105.01,813.572Zm-1.955-.121c-3.552-.236-6.644-.541-9.112-.913-6.126-.923-6.579-1.948-6.592-1.952s.043-.164.41-.463c1.3-1.06,6.228-1.992,13.444-2.67Zm59.312-5.5c4.326.591,7.424,1.32,8.9,2.154.043.025.082.048.116.07-.943.584-4.089,1.345-9.993,2.042C161.659,811.183,162,809.678,162.367,807.954ZM159,789.986c-.059,2.617-.061,4.9-.064,6.913-.007,5.51-.012,9.149-1.292,9.149-.209,0-.259-.051-.282-.076-.552-.573-.439-3.511-.3-7.23.1-2.683.23-6.021.229-10.225,0-1.773-.413-3-1.216-3.649.1-1.732.173-3.22.227-4.333C158.863,780.653,159.2,781.215,159,789.986Zm-9.8-18.97a2.381,2.381,0,0,1,1.808-.774,1.987,1.987,0,0,1,1.571.6c.872.925,1.1,2.74,1.123,3.968l-.185-.017a20,20,0,0,0-2.8-.276c-.12-.007-.268-.014-.427-.021l-2.135-.2A5.549,5.549,0,0,1,149.2,771.016Zm-2.488,6.446c.065-.9,1.514-1.136,3-1.136.2,0,.39.009.585.016l3.01.277c1.118.252,1.262.742,1.245,1.939-.034,2.529-1.639,29.2-1.942,34.22l-7.9.478C145.036,807.42,146.626,778.708,146.716,777.462Zm-27.075,23.751c2.524-.07,5.093-.105,7.684-.105,5.4,0,10.887.158,16.2.465-.06,1.078-.117,2.126-.173,3.128-5.162-.181-10.424-.25-15.291-.226-8.373.041-17.765.348-25.543,1.014l-.952-3.084C106.894,801.808,112.992,801.4,119.641,801.213Zm-19.925,1.412.936,3.034c-6.966.674-12.357,1.663-14.05,3.044-1.293,1.055-1.152,2.039-.952,2.531.379.937,1.533,3.789,26.995,4.487,3.32.091,6.819.135,10.39.135,11.335,0,23.406-.445,32.841-1.247,16.91-1.438,17.308-3.26,17.5-4.135.113-.519-.005-1.28-1.208-1.961-1.741-.984-5.109-1.756-9.425-2.352.171-.822.344-1.67.515-2.524,8.816,1.458,15.535,3.552,18.039,6.308.805.886.6,1.429.019,2.017-3.841,3.86-24.634,6.927-49.44,7.291-26.322.387-46.546-2.268-51.541-6.761a2.375,2.375,0,0,1-.845-2.991c.009-.009.015-.018.024-.027l-.007-.005a5.147,5.147,0,0,1,.695-1.079C82.181,805.954,89.313,803.919,99.716,802.625ZM57.172,862.406a72.29,72.29,0,0,1,20.486-50.6,5.15,5.15,0,0,0,1.451,2.047c5.982,5.381,27.917,7.266,48.04,7.266,1.6,0,3.188-.012,4.753-.035,21.681-.318,45.771-2.863,50.713-7.831a4.348,4.348,0,0,0,.443-.519,72.649,72.649,0,0,1,13.033,19.423l-1.976.941-9.561-4.515a.916.916,0,0,0-1.048.189l-4.77,4.9H92.627a7.551,7.551,0,0,0-7.542,7.542v78.431A72.649,72.649,0,0,1,57.172,862.406ZM235.178,938.3v3.391a5.407,5.407,0,0,1-5.4,5.4H87.7a5.408,5.408,0,0,1-5.4-5.4V938.3a5.408,5.408,0,0,1,5.4-5.4h44.749v3.232a4.068,4.068,0,0,0,4.063,4.063h44.456a4.068,4.068,0,0,0,4.063-4.063v-3.232h44.749A5.408,5.408,0,0,1,235.178,938.3Zm-4.623-7.19a7.159,7.159,0,0,0-.779-.044H184.111a.917.917,0,0,0-.916.916v4.148a2.234,2.234,0,0,1-2.231,2.23H136.508a2.234,2.234,0,0,1-2.231-2.23v-4.148a.917.917,0,0,0-.916-.916H87.7a7.159,7.159,0,0,0-.779.044V841.213a5.717,5.717,0,0,1,5.71-5.71h84.324l-2.167,2.224a.919.919,0,0,0-.152,1.071l2.272,4.256H100.212a6.025,6.025,0,0,0-6.018,6.018v69.654a6.025,6.025,0,0,0,6.018,6.018H217.26a6.025,6.025,0,0,0,6.019-6.018V898.742l4.6-2.189,2.674,1.262ZM166.2,871.466a.916.916,0,0,0,.667.872l9.18,2.6,3.223,6.773-4.515,9.561a.918.918,0,0,0,.189,1.048l8.954,8.721a.915.915,0,0,0,1.071.152l8.661-4.622,7.531,3.687,2.746,8.833a.915.915,0,0,0,.875.645h.009l12.821-.131a.917.917,0,0,0,.872-.665l2.621-9.162.341-.162v19.112a4.192,4.192,0,0,1-4.187,4.186H100.212a4.191,4.191,0,0,1-4.186-4.186V849.072a4.191,4.191,0,0,1,4.186-4.186h77.67l1.38,2.586c-.31.708-.584,1.507-.873,2.344-.747,2.173-1.6,4.635-3.087,5.3a30.6,30.6,0,0,1-3.251.865c-4.517,1.069-5.69,1.44-5.941,2.352a.933.933,0,0,0-.033.252Zm83.322.422a26.9,26.9,0,0,0-3.576.974c-2.219.989-3.205,3.852-4.074,6.378a24.366,24.366,0,0,1-.984,2.569.914.914,0,0,0,.015.832l4.527,8.485-7.8,8.006-9.362-4.422a.922.922,0,0,0-.785,0l-7.541,3.588a.921.921,0,0,0-.487.575l-2.547,8.9-11.456.117-2.66-8.559a.923.923,0,0,0-.472-.551l-8.307-4.067a.917.917,0,0,0-.834.015l-8.484,4.527-8.007-7.8,4.423-9.362a.922.922,0,0,0,0-.785l-3.588-7.54a.919.919,0,0,0-.578-.488l-8.92-2.524-.113-11.751a39.8,39.8,0,0,1,4.559-1.248,26.548,26.548,0,0,0,3.575-.974c2.22-.989,3.205-3.851,4.074-6.376a24.289,24.289,0,0,1,.985-2.57.916.916,0,0,0-.015-.833l-4.528-8.484,7.8-8.006,9.362,4.421a.915.915,0,0,0,.785,0l7.54-3.587a.92.92,0,0,0,.487-.576l2.545-8.9h11.98c.256.756.625,2.494.883,3.709a28.819,28.819,0,0,0,1.093,4.287c1,2.225,3.853,3.206,6.37,4.072a24.294,24.294,0,0,1,2.573.986.916.916,0,0,0,.833-.015l8.484-4.528,8.006,7.8-4.422,9.362a.919.919,0,0,0,0,.784l3.588,7.541a.922.922,0,0,0,.578.488l8.92,2.524.112,11.751A40,40,0,0,1,249.523,871.888Z" fill="#ffffff"/>
      <path id="Trazado_876" data-name="Trazado 876" d="M235.793,852.311a4.753,4.753,0,0,0-3.18-4.121,5.132,5.132,0,0,0-5.1.986,22.695,22.695,0,1,0,5.191,8.677l.33-.306C234.371,856.325,236.036,854.8,235.793,852.311ZM232,849.917a2.921,2.921,0,0,1,1.97,2.572c.154,1.581-.923,2.566-2.171,3.706-.383.349-.778.711-1.133,1.093l-1.63,1.76c-5.226,5.649-12.385,13.386-17.752,17.9-2.351,1.975-3.3,2.467-5.572.717a100.249,100.249,0,0,1-9.093-9.092,3.814,3.814,0,0,1-.533-3.4,2.466,2.466,0,0,1,1.826-1.534,3.675,3.675,0,0,1,.848-.1c1.8,0,3.083,1.463,4.54,3.123,1.417,1.612,2.882,3.28,5.01,3.721a.918.918,0,0,0,.835-.25L228.48,850.76A3.346,3.346,0,0,1,232,849.917Zm-21,35.96a20.986,20.986,0,1,1,15.2-35.428l-17.975,18a9.735,9.735,0,0,1-3.549-3.008c-1.807-2.057-3.857-4.387-7.19-3.592a4.281,4.281,0,0,0-3.112,2.657,5.619,5.619,0,0,0,.733,5.1,98.75,98.75,0,0,0,9.485,9.507,5.786,5.786,0,0,0,3.493,1.453c1.554,0,2.881-.963,4.376-2.218,5.456-4.584,12.659-12.37,17.919-18.055l.849-.917A20.931,20.931,0,0,1,211,885.877Z" fill="#ffffff"/>
      <path id="Trazado_877" data-name="Trazado 877" d="M103.965,883.4h18.049a1.327,1.327,0,1,0,0-2.654H103.965a1.327,1.327,0,1,0,0,2.654Z" fill="#ffffff"/>
      <path id="Trazado_878" data-name="Trazado 878" d="M123.341,904.123a1.327,1.327,0,0,0-1.327-1.327H103.965a1.327,1.327,0,1,0,0,2.654h18.049A1.327,1.327,0,0,0,123.341,904.123Z" fill="#ffffff"/>
      <path id="Trazado_879" data-name="Trazado 879" d="M116.178,886.255h-6.23a1.327,1.327,0,1,0,0,2.654h6.23a1.327,1.327,0,1,0,0-2.654Z" fill="#ffffff"/>
      <path id="Trazado_880" data-name="Trazado 880" d="M143.048,886.255h0a1.327,1.327,0,0,0,0,2.654h9.32a1.327,1.327,0,1,0,0-2.654h-9.32Z" fill="#ffffff"/>
      <path id="Trazado_881" data-name="Trazado 881" d="M116.178,891.769h-6.23a1.327,1.327,0,1,0,0,2.654h6.23a1.327,1.327,0,1,0,0-2.654Z" fill="#ffffff"/>
      <path id="Trazado_882" data-name="Trazado 882" d="M119.139,908.309h-9.191a1.327,1.327,0,1,0,0,2.654h9.191a1.327,1.327,0,1,0,0-2.654Z" fill="#ffffff"/>
      <path id="Trazado_883" data-name="Trazado 883" d="M119.139,913.823h-9.191a1.327,1.327,0,1,0,0,2.653h9.191a1.327,1.327,0,1,0,0-2.653Z" fill="#ffffff"/>
      <path id="Trazado_884" data-name="Trazado 884" d="M169.657,908.309h-9.192a1.327,1.327,0,1,0,0,2.654h9.192a1.327,1.327,0,1,0,0-2.654Z" fill="#ffffff"/>
      <path id="Trazado_885" data-name="Trazado 885" d="M169.657,913.823h-9.192a1.327,1.327,0,1,0,0,2.653h9.192a1.327,1.327,0,1,0,0-2.653Z" fill="#ffffff"/>
      <path id="Trazado_886" data-name="Trazado 886" d="M128.184,908.309h-4.612a1.327,1.327,0,1,0,0,2.654h4.612a1.327,1.327,0,1,0,0-2.654Z" fill="#ffffff"/>
      <path id="Trazado_887" data-name="Trazado 887" d="M156.872,908.309H132.487a1.327,1.327,0,1,0,0,2.654h24.385a1.327,1.327,0,1,0,0-2.654Z" fill="#ffffff"/>
      <path id="Trazado_888" data-name="Trazado 888" d="M136.624,913.823H123.572a1.327,1.327,0,1,0,0,2.653h13.052a1.327,1.327,0,1,0,0-2.653Z" fill="#ffffff"/>
      <path id="Trazado_889" data-name="Trazado 889" d="M150.99,913.823h-8.971a1.327,1.327,0,1,0,0,2.653h8.971a1.327,1.327,0,0,0,0-2.653Z" fill="#ffffff"/>
      <path id="Trazado_890" data-name="Trazado 890" d="M116.178,897.282h-6.23a1.327,1.327,0,1,0,0,2.654h6.23a1.327,1.327,0,1,0,0-2.654Z" fill="#ffffff"/>
      <path id="Trazado_891" data-name="Trazado 891" d="M137.279,893.1a1.327,1.327,0,0,0,1.327,1.327h9.468a1.327,1.327,0,0,0,0-2.654h-9.468A1.327,1.327,0,0,0,137.279,893.1Z" fill="#ffffff"/>
      <path id="Trazado_892" data-name="Trazado 892" d="M152.94,893.1a1.327,1.327,0,0,0,1.327,1.327h9.467a1.327,1.327,0,1,0,0-2.654h-9.467A1.327,1.327,0,0,0,152.94,893.1Z" fill="#ffffff"/>
      <path id="Trazado_893" data-name="Trazado 893" d="M138.606,899.936h16.242a1.327,1.327,0,1,0,0-2.654H138.606a1.327,1.327,0,1,0,0,2.654Z" fill="#ffffff"/>
      <path id="Trazado_894" data-name="Trazado 894" d="M161.217,897.282h0a1.327,1.327,0,0,0,0,2.654h9.028a1.327,1.327,0,1,0,0-2.654h-9.028Z" fill="#ffffff"/>
      <path id="Trazado_895" data-name="Trazado 895" d="M137.235,888.909h0a1.327,1.327,0,1,0,0-2.654H121.121a1.327,1.327,0,1,0,0,2.654h16.114Z" fill="#ffffff"/>
      <path id="Trazado_896" data-name="Trazado 896" d="M133.909,891.769H121.121a1.327,1.327,0,1,0,0,2.654h12.788a1.327,1.327,0,0,0,0-2.654Z" fill="#ffffff"/>
      <path id="Trazado_897" data-name="Trazado 897" d="M133.909,899.936h0a1.327,1.327,0,0,0,0-2.654H121.121a1.327,1.327,0,1,0,0,2.654h12.788Z" fill="#ffffff"/>
    </g>
  </g>
</svg>