<svg xmlns="http://www.w3.org/2000/svg" width="192.468" height="192.407" viewBox="0 0 192.468 192.407">
  <g id="Grupo_775" data-name="Grupo 775" transform="translate(-59.395 -1240.318)">
    <g id="Grupo_774" data-name="Grupo 774">
      <path id="Trazado_835" data-name="Trazado 835" d="M155.5,1405h0c-4.043.426-7,2.665-8.118,6.144a11.017,11.017,0,0,0,3.011,11.159,8.424,8.424,0,0,0,5.641,2.159,11.11,11.11,0,0,0,4.641-1.1,9.257,9.257,0,0,0,5.044-11.2c-.014-.049-.032-.1-.046-.145a2.72,2.72,0,0,0,1.012-2.282,2.428,2.428,0,0,0-1.609-2.078,2.538,2.538,0,0,0-1.865.063A9.053,9.053,0,0,0,155.5,1405Zm8.961,4.375a.584.584,0,0,1,.4.53c.03.307-.17.523-.668.978-.166.152-.329.3-.474.459l-.636.686a91.005,91.005,0,0,1-6.87,6.929c-.869.731-.914.694-1.471.265a40.484,40.484,0,0,1-3.426-3.419.934.934,0,0,1-.147-.81.4.4,0,0,1,.32-.255.879.879,0,0,1,.2-.024c.4,0,.741.331,1.352,1.027a4.292,4.292,0,0,0,2.26,1.629.913.913,0,0,0,.834-.25l7.541-7.55A.75.75,0,0,1,164.458,1409.373Zm-2.691-.492-6.5,6.5a5.615,5.615,0,0,1-.858-.856c-.728-.828-1.729-1.962-3.352-1.575a2.242,2.242,0,0,0-1.606,1.378,2.76,2.76,0,0,0,.346,2.506,38.6,38.6,0,0,0,3.818,3.833,2.8,2.8,0,0,0,1.7.689,3.33,3.33,0,0,0,2.066-1,87.812,87.812,0,0,0,6.756-6.783,7.36,7.36,0,0,1-4.235,8.114c-3.168,1.451-6.117,1.182-8.3-.758a9.112,9.112,0,0,1-2.482-9.229c.9-2.8,3.229-4.53,6.566-4.882A7.3,7.3,0,0,1,161.767,1408.881Z" fill="#835830"/>
      <path id="Trazado_836" data-name="Trazado 836" d="M251.815,1333.9a.916.916,0,0,0-.667-.873l-3.335-.943-1.034-2.173,1.647-3.488a.916.916,0,0,0-.189-1.047l-3.491-3.4a.915.915,0,0,0-1.071-.152l-3.149,1.681c-.223-.088-.459-.169-.7-.252-.664-.229-1.572-.541-1.737-.907a14.311,14.311,0,0,1-.342-1.414c-.338-1.6-.445-2.025-.88-2.306a.915.915,0,0,0-.5-.148h-5.151a.917.917,0,0,0-.881.665l-.952,3.329-2.175,1.034-3.487-1.647a.919.919,0,0,0-1.048.189l-3.4,3.491a.917.917,0,0,0-.153,1.071l1.681,3.149c-.086.223-.168.458-.251.7-.216.629-.542,1.578-.9,1.737-.145.062-.738.2-1.17.305-1.79.423-2.531.6-2.726,1.313a.887.887,0,0,0-.033.251l.015,1.537H203.207a47.106,47.106,0,0,0-13.074-29.183.919.919,0,0,0-.168-.138,3.024,3.024,0,0,0-.476-.7c-2.153-2.369-8.378-4.018-16.211-4.993l1.021-5.966a2.112,2.112,0,0,0,.915-.593,2.411,2.411,0,0,0,.552-1.162,3,3,0,0,0,1.362-2.009,3.173,3.173,0,0,0,1.252-2.02c1.064-.925,5.069-4.411,8.5-7.482a2.585,2.585,0,0,0-1.779-4.664.916.916,0,0,0-.218.029l-.006,0a2.6,2.6,0,0,0-1.005.423c-1.074.756-7.4,6.246-9.014,7.654a2.287,2.287,0,0,0-1.622.265,2.517,2.517,0,0,0-1,1.214,3.053,3.053,0,0,0-1.967,2.537,2.957,2.957,0,0,0-.663,3.581c-.237,1.2-.795,4.416-1.35,7.678-3.609-.3-7.416-.481-11.241-.537V1276.37l2.018-.021a.915.915,0,0,0,.872-.664l.953-3.33,2.173-1.034,3.489,1.647a.915.915,0,0,0,1.047-.189l3.4-3.491a.914.914,0,0,0,.152-1.07l-1.681-3.15c.088-.223.168-.458.252-.7.216-.628.543-1.577.9-1.736.145-.062.738-.2,1.171-.3,1.788-.424,2.528-.6,2.726-1.312a.932.932,0,0,0,.032-.252l-.048-5.022a.916.916,0,0,0-.667-.873l-3.335-.944-1.034-2.173,1.648-3.487a.917.917,0,0,0-.189-1.048l-3.491-3.4a.916.916,0,0,0-1.071-.152l-3.15,1.681c-.223-.087-.459-.169-.7-.252-.664-.228-1.572-.541-1.737-.906a14.353,14.353,0,0,1-.342-1.415c-.338-1.595-.445-2.024-.88-2.306a.915.915,0,0,0-.5-.147h-5.151a.917.917,0,0,0-.881.664l-.952,3.33-2.174,1.034-3.488-1.647a.916.916,0,0,0-1.048.189l-3.4,3.491a.917.917,0,0,0-.152,1.07l1.681,3.15c-.087.223-.168.458-.252.7-.216.627-.543,1.576-.9,1.735-.145.062-.738.2-1.17.3-1.789.423-2.529.6-2.726,1.312a.894.894,0,0,0-.033.252l.048,5.022a.917.917,0,0,0,.667.873l3.335.944,1.034,2.173-1.648,3.487a.919.919,0,0,0,.19,1.048l3.491,3.4a.914.914,0,0,0,1.07.152l3.125-1.667,2.463,1.206,1,3.213a.915.915,0,0,0,.875.644h.009l1.148-.011v23.139c-1.925-.008-3.845.01-5.735.062a135.681,135.681,0,0,0-14.071,1.069l-1.735-4.029c4.382-6.289,9.957-5.323,10.26-5.265a.907.907,0,0,0,.581-.068.889.889,0,0,0,.1-.055.911.911,0,0,0,.356-.426c.01-.024.019-.049.027-.073,1.558-4.79,5.528-5.043,5.691-5.052a.916.916,0,0,0,.445-1.7c-.367-.226-9-5.39-23.3-.955l-.695-1.589a.864.864,0,0,0-.044-.079.8.8,0,0,0-.046-.081.769.769,0,0,0-.052-.061.791.791,0,0,0-.065-.075c-.019-.018-.04-.031-.059-.047a.954.954,0,0,0-.081-.062c-.02-.013-.043-.022-.065-.034a.956.956,0,0,0-.091-.046c-.023-.009-.048-.014-.072-.021a.821.821,0,0,0-.1-.028c-.026-.005-.052,0-.078-.007s-.065-.008-.1-.008a.826.826,0,0,0-.086.009c-.031,0-.062,0-.093.01s-.062.02-.093.03a.769.769,0,0,0-.082.026h0a.784.784,0,0,0-.085.047c-.025.014-.052.026-.075.042s-.05.043-.075.064a.768.768,0,0,0-.061.054.9.9,0,0,0-.061.077c-.016.021-.034.04-.048.062a.764.764,0,0,0-.044.085c-.012.024-.026.047-.036.071a.706.706,0,0,0-.026.09.715.715,0,0,0-.023.079c-.005.031-.006.062-.008.093a.769.769,0,0,0-.008.084c0,.031.007.062.011.093a.628.628,0,0,0,.009.086.671.671,0,0,0,.03.093.855.855,0,0,0,.025.082l0,0h0l0,0,.6,1.389c-2.858,1.01-10.591,4.908-14.609,18.314a.916.916,0,0,0,1.437.989,11.8,11.8,0,0,1,7.98-1.825c.013,0,.026,0,.04,0s.04,0,.059,0,.023,0,.035,0a.885.885,0,0,0,.155-.02c.02,0,.041-.008.061-.014a.9.9,0,0,0,.142-.055c.022-.01.043-.02.064-.032a.937.937,0,0,0,.116-.082c.022-.018.044-.033.064-.052l.02-.017a.885.885,0,0,0,.08-.1.568.568,0,0,0,.038-.046,9.318,9.318,0,0,1,10.1-3.622l1.692,3.929c-4.058.672-7.657,1.665-9.444,3.133a5.3,5.3,0,0,0-1.292,1.143,5.174,5.174,0,0,0-.446.686h0a47.032,47.032,0,0,0-13.578,29.71H95.506l-.016-1.714a.917.917,0,0,0-.667-.873l-3.335-.943-1.034-2.173,1.648-3.488a.918.918,0,0,0-.19-1.047l-3.491-3.4a.914.914,0,0,0-1.07-.152l-3.15,1.68c-.224-.087-.459-.168-.7-.252-.663-.228-1.572-.54-1.736-.905a14.123,14.123,0,0,1-.341-1.413c-.34-1.6-.446-2.027-.881-2.308a.92.92,0,0,0-.5-.148H74.891a.916.916,0,0,0-.881.665l-.953,3.329-2.174,1.034-3.487-1.647a.919.919,0,0,0-1.048.189l-3.4,3.491a.915.915,0,0,0-.152,1.071l1.681,3.149c-.087.223-.168.458-.252.7-.216.628-.543,1.577-.9,1.737-.146.062-.739.2-1.171.305-1.788.423-2.529.6-2.726,1.311a.94.94,0,0,0-.032.253l.048,5.022a.916.916,0,0,0,.666.873l3.336.944,1.034,2.172-1.648,3.488a.919.919,0,0,0,.19,1.048l3.491,3.4a.917.917,0,0,0,1.071.152l3.124-1.668,2.462,1.206,1,3.214a.916.916,0,0,0,.875.644h.009l5-.051a.917.917,0,0,0,.872-.664l.952-3.33,2.174-1.034,3.488,1.647a.918.918,0,0,0,1.048-.189l3.4-3.491a.916.916,0,0,0,.152-1.071l-1.681-3.149c.087-.223.168-.458.252-.7.216-.628.542-1.578.9-1.737.146-.062.738-.2,1.17-.3,1.79-.424,2.532-.6,2.727-1.314a.926.926,0,0,0,.033-.251l-.015-1.476h13.123c-.023.6-.044,1.2-.044,1.811a47.424,47.424,0,0,0,46.462,47.356v10.028h-1.182a.917.917,0,0,0-.881.664l-.952,3.33-2.174,1.034-3.488-1.647a.916.916,0,0,0-1.048.189l-3.4,3.491a.919.919,0,0,0-.152,1.071l1.681,3.149c-.087.223-.168.459-.252.7-.216.628-.543,1.576-.9,1.736-.145.062-.738.2-1.17.3-1.789.424-2.529.6-2.726,1.312a.894.894,0,0,0-.033.252l.048,5.023a.917.917,0,0,0,.667.873l3.335.943,1.034,2.173-1.648,3.488a.918.918,0,0,0,.19,1.047l3.491,3.4a.914.914,0,0,0,1.07.152l3.125-1.667,2.463,1.206,1,3.213a.914.914,0,0,0,.875.644h.009l5-.051a.915.915,0,0,0,.872-.664l.953-3.329,2.173-1.034,3.489,1.647a.917.917,0,0,0,1.047-.19l3.4-3.49a.916.916,0,0,0,.152-1.071l-1.681-3.149c.088-.223.168-.459.252-.7.216-.627.543-1.576.9-1.735.145-.062.737-.2,1.17-.305,1.789-.423,2.529-.6,2.727-1.312a.932.932,0,0,0,.032-.252l-.048-5.022a.916.916,0,0,0-.667-.873l-3.335-.944-1.034-2.172,1.648-3.488a.917.917,0,0,0-.189-1.048l-3.491-3.4a.919.919,0,0,0-1.071-.152l-3.15,1.681c-.223-.087-.459-.168-.7-.252-.664-.228-1.572-.541-1.737-.906a14.336,14.336,0,0,1-.342-1.415c-.338-1.595-.445-2.024-.88-2.306a.915.915,0,0,0-.5-.147H156.9v-10.028a47.065,47.065,0,0,0,16.941-3.482.9.9,0,0,0,.316-.125,47.447,47.447,0,0,0,29.206-43.749c0-.609-.021-1.215-.044-1.821h12.437l.016,1.652a.917.917,0,0,0,.667.873l3.335.944,1.034,2.172-1.648,3.488a.919.919,0,0,0,.19,1.048l3.491,3.4a.916.916,0,0,0,1.07.152l3.125-1.668,2.463,1.206,1,3.214a.917.917,0,0,0,.875.644h.01l5-.051a.915.915,0,0,0,.872-.664l.953-3.33,2.173-1.034,3.488,1.647a.918.918,0,0,0,1.048-.189l3.4-3.491a.916.916,0,0,0,.152-1.071l-1.681-3.149c.087-.223.168-.458.252-.7.216-.629.543-1.578.9-1.738.145-.062.738-.2,1.17-.3,1.789-.424,2.529-.6,2.727-1.312a.939.939,0,0,0,.032-.253Zm-98.021-62.28a.918.918,0,0,0-.472-.551l-3.239-1.586a.92.92,0,0,0-.834.014l-2.948,1.573-2.543-2.476,1.554-3.289a.915.915,0,0,0,0-.785l-1.4-2.94a.919.919,0,0,0-.578-.488l-3.075-.87-.036-3.76c.383-.112.954-.248,1.343-.34a10.159,10.159,0,0,0,1.493-.413c1.087-.484,1.513-1.722,1.889-2.814a8.943,8.943,0,0,1,.358-.939.916.916,0,0,0-.015-.833l-1.573-2.948,2.476-2.542,3.29,1.553a.914.914,0,0,0,.785,0l2.94-1.4a.918.918,0,0,0,.487-.575l.876-3.063H158.4c.074.3.158.7.222,1a10.5,10.5,0,0,0,.464,1.786c.489,1.088,1.722,1.512,2.811,1.887a9.014,9.014,0,0,1,.94.358.916.916,0,0,0,.833-.015l2.947-1.573,2.543,2.477-1.554,3.289a.916.916,0,0,0,0,.784l1.4,2.94a.914.914,0,0,0,.578.488l3.075.87.035,3.76c-.382.113-.954.248-1.343.34a10.139,10.139,0,0,0-1.493.413c-1.087.484-1.513,1.722-1.888,2.814a9.039,9.039,0,0,1-.359.94.915.915,0,0,0,.015.832l1.573,2.948-2.476,2.542-3.29-1.553a.915.915,0,0,0-.785,0l-2.939,1.4a.915.915,0,0,0-.487.575l-.879,3.07-3.633.037Zm-6.21,12.973a8.789,8.789,0,0,0-3.853,3.99c-1.536-1.334-4.872-3.573-10.9-4.769A29.264,29.264,0,0,1,147.584,1284.595ZM119.8,1299.013a14.41,14.41,0,0,0-5.663.986c2.36-6.371,5.653-10.021,8.208-12.039A20.586,20.586,0,0,0,119.8,1299.013Zm2.11-1.471c.091-3.011.892-8.217,4.951-11.7l3.873,8.992A11.133,11.133,0,0,0,121.906,1297.542Zm7.1-12.174c6.352.682,10.18,2.525,12.334,4.038a12.924,12.924,0,0,0-8.351,4.838C132.122,1292.283,130.54,1288.728,129.008,1285.368Zm-36.652,53.338a10.1,10.1,0,0,0-1.492.413c-1.087.484-1.513,1.722-1.889,2.815a9.125,9.125,0,0,1-.358.938.916.916,0,0,0,.015.833l1.573,2.947-2.476,2.543-3.29-1.554a.915.915,0,0,0-.785,0l-2.94,1.4a.917.917,0,0,0-.487.576l-.878,3.069-3.634.037-.913-2.939a.917.917,0,0,0-.472-.551l-3.238-1.586a.919.919,0,0,0-.835.015l-2.946,1.573-2.543-2.477,1.554-3.289a.918.918,0,0,0,0-.785l-1.4-2.94a.912.912,0,0,0-.578-.487l-3.075-.871-.036-3.759c.383-.113.955-.248,1.343-.34a10.21,10.21,0,0,0,1.493-.413c1.088-.485,1.514-1.724,1.89-2.816a9.235,9.235,0,0,1,.358-.938.917.917,0,0,0-.015-.833l-1.573-2.947L67.2,1323.8l3.289,1.553a.923.923,0,0,0,.786,0l2.939-1.4a.915.915,0,0,0,.487-.575l.876-3.063h3.825c.074.305.158.7.222,1a10.617,10.617,0,0,0,.463,1.784c.489,1.087,1.723,1.512,2.811,1.886a9.2,9.2,0,0,1,.94.359.914.914,0,0,0,.832-.016l2.948-1.572,2.543,2.476-1.554,3.289a.918.918,0,0,0,0,.785l1.4,2.94a.917.917,0,0,0,.578.488l3.075.87.036,3.76C93.316,1338.479,92.745,1338.614,92.356,1338.706Zm66.263,60.771a10.476,10.476,0,0,0,.464,1.786c.489,1.088,1.722,1.512,2.811,1.887a8.96,8.96,0,0,1,.94.358.912.912,0,0,0,.832-.015l2.948-1.573,2.543,2.477-1.554,3.289a.918.918,0,0,0,0,.785l1.4,2.939a.914.914,0,0,0,.578.488l3.075.87.035,3.76c-.383.113-.955.248-1.343.341a10.2,10.2,0,0,0-1.493.412c-1.087.485-1.513,1.722-1.888,2.814a9.031,9.031,0,0,1-.359.94.917.917,0,0,0,.015.833l1.573,2.947-2.476,2.542-3.29-1.553a.918.918,0,0,0-.785,0l-2.939,1.4a.915.915,0,0,0-.487.575l-.879,3.07-3.633.037-.913-2.939a.918.918,0,0,0-.472-.551l-3.239-1.586a.917.917,0,0,0-.834.015L146.3,1427.4l-2.543-2.476,1.554-3.289a.914.914,0,0,0,0-.785l-1.4-2.94a.919.919,0,0,0-.578-.488l-3.075-.87-.036-3.76c.383-.113.954-.248,1.343-.34a10.159,10.159,0,0,0,1.493-.413c1.087-.484,1.513-1.722,1.889-2.814a9.02,9.02,0,0,1,.358-.939.917.917,0,0,0-.015-.833l-1.573-2.947,2.476-2.543,3.29,1.554a.915.915,0,0,0,.785,0l2.94-1.4a.92.92,0,0,0,.487-.576l.876-3.063H158.4C158.471,1398.78,158.555,1399.175,158.619,1399.477Zm20.488-37.16c-7.9.662-15.281.986-22.083,1.074v-22.519c7.5-.064,15.613-.4,24.27-1.1A109.194,109.194,0,0,1,179.107,1362.317Zm-23.127,22.489a45.291,45.291,0,0,1-16.2-2.988,315.612,315.612,0,0,1,31.968.17A45.308,45.308,0,0,1,155.98,1384.806Zm-26.658-44.932c7.2.6,15.549,1.011,24.925,1.011.312,0,.631,0,.945,0v22.53c-8.982.062-16.9-.288-23.6-.81A109.412,109.412,0,0,1,129.322,1339.874Zm-12.605-23.733c3.383.634,7.664,1.31,12.781,1.872a123.773,123.773,0,0,0-1.985,19.868c-6.81-.615-12.5-1.387-16.935-2.11A45.15,45.15,0,0,1,116.717,1316.141Zm14.608,2.065c6.245.627,13.622,1.069,22.019,1.069.61,0,1.228,0,1.848-.009v19.783c-9.755.029-18.429-.389-25.854-1.008A121.78,121.78,0,0,1,131.325,1318.206Zm22.935-4.229c.313,0,.62-.005.932-.007v3.464a220.546,220.546,0,0,1-23.518-1.035c.311-1.537.613-2.865.876-3.935A132.7,132.7,0,0,0,154.26,1313.977Zm35.423-5.329a45.819,45.819,0,0,1,4.289,5.507q-6.867,1.086-13.281,1.774c-.3-1.455-.586-2.723-.841-3.765,4.693-.806,8.249-1.884,9.6-3.247A2.953,2.953,0,0,0,189.683,1308.648Zm-11.649,3.806c.25,1.011.533,2.242.827,3.669-7.841.8-15.14,1.188-21.837,1.291v-3.457h.21A166.13,166.13,0,0,0,178.034,1312.454Zm-24.9,52.8c.68,0,1.369,0,2.062-.008v14.414c-6.152-.026-12.206.127-18.122.46A93.756,93.756,0,0,1,132,1364.469C138.106,1364.931,145.179,1365.251,153.13,1365.251Zm20.381,15q-8.326-.5-16.487-.578v-14.452c6.687-.086,13.929-.4,21.672-1.034A93.482,93.482,0,0,1,173.511,1380.253Zm-16.487-41.215v-19.794c6.8-.1,14.22-.5,22.192-1.316a121.89,121.89,0,0,1,2.057,20.007C172.618,1338.641,164.513,1338.973,157.024,1339.038Zm24.02-21.3q6.744-.737,13.995-1.9a45.2,45.2,0,0,1,6.34,19.866q-9.487,1.328-18.281,2.074A123.96,123.96,0,0,0,181.044,1317.738Zm-42.5-9.728a.687.687,0,0,0-.024-.077l-1.242-2.883c4.831-.463,11.334-.755,17.915-.808v4.143C149.37,1308.465,143.49,1308.362,138.543,1308.01Zm-2.058-.168c-4.8-.447-6.372-1.032-6.862-1.314.635-.489,2.735-.922,5.746-1.276Zm20.539-3.609c3.614,0,7.2.065,10.5.218-.256,1.525-.469,2.8-.591,3.529-3.107.176-6.477.306-9.91.375Zm15.539.54a34.547,34.547,0,0,1,8.774,1.53,50.689,50.689,0,0,1-9.262,1.324Zm11.615-23.609c.034.023.07.039.105.06-2.683,2.381-5.418,4.768-6.669,5.856a12.919,12.919,0,0,0-1.184-1.21c1.842-1.6,4.882-4.229,6.821-5.856A2.545,2.545,0,0,0,184.178,1281.164ZM173.85,1292.81a.462.462,0,0,1-.3.1,3.147,3.147,0,0,1-2.083-1.023.826.826,0,0,0-.1-.1c-.007-.012-.011-.024-.018-.035a1.256,1.256,0,0,1-.162-1.107,16.621,16.621,0,0,0,2.722,2.066A.388.388,0,0,1,173.85,1292.81Zm1.444-2.206a1.246,1.246,0,0,1-.34.6,15.141,15.141,0,0,1-2.836-2.2,1.636,1.636,0,0,1,.4-.8A13.978,13.978,0,0,0,175.294,1290.6ZM186,1279.563a.773.773,0,0,1-.805.078.76.76,0,0,1-.306-.717c.021-.129.1-.306.425-.41a.808.808,0,0,1,.65.3A.643.643,0,0,1,186,1279.563Zm-11.812,7.074a.466.466,0,0,1,.287-.036c.015.014.023.033.04.046a11.379,11.379,0,0,1,2.015,2.033,1.407,1.407,0,0,1-.2.415,11.4,11.4,0,0,1-2.4-2.071A.766.766,0,0,1,174.191,1286.637Zm-3.012,7.368a5.635,5.635,0,0,0,1.275.538l-2.25,13.151c-.3.033-.51.042-.791.055-.166.008-.352.016-.588.03C169.308,1304.894,170.572,1297.365,171.179,1294.005Zm-3.216,7.854c-.048.279-.1.557-.141.831-3.392-.186-7.079-.29-10.8-.31v-1.015C160.877,1301.414,164.558,1301.584,167.963,1301.859Zm-18.456-.438q2.639-.072,5.209-.072c.16,0,.317,0,.476,0v1.024a184,184,0,0,0-18.7.862l-.358-.831A131.263,131.263,0,0,1,149.507,1301.421Zm-15.246,1.258.342.793c-3.1.428-5.332.979-6.16,1.653a1.652,1.652,0,0,0-.7,1.986c.314.776,1.05,2.594,17.331,3.041,2.1.057,4.306.085,6.561.085,7.159,0,14.785-.281,20.744-.787,10.915-.928,11.17-2.1,11.34-2.873.078-.36.062-1.045-.926-1.6-1.508-.852-5.176-1.492-9.935-1.924l.117-.685c7.756.952,13.4,2.517,15.158,4.454.362.4.3.53.023.806-1.105,1.111-4.534,2.116-9.459,2.894a.911.911,0,0,0-.2.028l-.018.006a160.388,160.388,0,0,1-21.267,1.571c-16.265.24-29.234-1.44-32.277-4.177-.632-.569-.861-1.122-.048-2.123C125.912,1304.557,129.28,1303.467,134.261,1302.679Zm-11.468,5.405a3.682,3.682,0,0,0,.913,1.224c1.315,1.183,3.815,2.1,7.044,2.8-.273,1.115-.585,2.5-.9,4.1-4.772-.521-8.823-1.142-12.085-1.737A45.792,45.792,0,0,1,122.793,1308.084Zm-12.32,29.525c4.479.726,10.189,1.5,17.022,2.109a111.5,111.5,0,0,0,2.2,22.727c-5.547-.475-10.186-1.059-13.81-1.6a45.266,45.266,0,0,1-5.448-21.582C110.434,1338.707,110.454,1338.158,110.473,1337.609Zm6.566,25.254c3.544.505,7.925,1.027,13.05,1.454a96.1,96.1,0,0,0,4.781,15.282A45.872,45.872,0,0,1,117.039,1362.863Zm58.387,17.573a95.517,95.517,0,0,0,5.18-16.412q7.029-.617,14.573-1.609A45.85,45.85,0,0,1,175.426,1380.436Zm20.869-20.018c-5.281.724-10.378,1.29-15.287,1.73a111.437,111.437,0,0,0,2.114-22.527q8.825-.762,18.364-2.077c.021.57.041,1.141.041,1.715A45.256,45.256,0,0,1,196.295,1360.418Zm52.387-21.712a10.127,10.127,0,0,0-1.493.413c-1.087.484-1.513,1.723-1.89,2.815a8.914,8.914,0,0,1-.357.938.916.916,0,0,0,.015.833l1.573,2.947-2.477,2.543-3.289-1.554a.915.915,0,0,0-.785,0l-2.939,1.4a.917.917,0,0,0-.487.576l-.879,3.069-3.633.037-.913-2.939a.92.92,0,0,0-.472-.551l-3.239-1.586a.917.917,0,0,0-.834.015l-2.948,1.573-2.543-2.477,1.554-3.289a.915.915,0,0,0,0-.785l-1.4-2.94a.915.915,0,0,0-.578-.487l-3.075-.871-.036-3.76c.383-.112.954-.247,1.343-.34a10.326,10.326,0,0,0,1.493-.412c1.087-.485,1.513-1.723,1.889-2.816a9.088,9.088,0,0,1,.358-.938.917.917,0,0,0-.015-.833l-1.573-2.947,2.476-2.542,3.289,1.553a.923.923,0,0,0,.786,0l2.94-1.4a.918.918,0,0,0,.487-.575l.876-3.063h3.824c.074.3.158.7.222,1a10.491,10.491,0,0,0,.464,1.787c.489,1.088,1.722,1.512,2.811,1.886a9.2,9.2,0,0,1,.94.359.916.916,0,0,0,.833-.016l2.946-1.572,2.543,2.476-1.554,3.289a.922.922,0,0,0,0,.785l1.4,2.94a.917.917,0,0,0,.578.488l3.075.87.035,3.76C249.643,1338.478,249.071,1338.614,248.682,1338.706Z" fill="#835830"/>
      <path id="Trazado_837" data-name="Trazado 837" d="M244.014,1331.563a2.427,2.427,0,0,0-1.608-2.079,2.54,2.54,0,0,0-1.868.064,9.058,9.058,0,0,0-7.707-2.713h0c-4.043.426-7,2.666-8.118,6.144a11.019,11.019,0,0,0,3.011,11.16,8.429,8.429,0,0,0,5.641,2.159,11.115,11.115,0,0,0,4.641-1.106,9.256,9.256,0,0,0,5.044-11.2c-.014-.049-.032-.1-.046-.145A2.714,2.714,0,0,0,244.014,1331.563Zm-2.222-.352a.58.58,0,0,1,.4.53c.031.307-.169.523-.667.978-.166.151-.329.3-.474.458h0l-.634.684a91.066,91.066,0,0,1-6.872,6.931c-.869.731-.914.694-1.471.265a40.34,40.34,0,0,1-3.426-3.418.931.931,0,0,1-.147-.81.4.4,0,0,1,.32-.255.83.83,0,0,1,.2-.025c.4,0,.741.331,1.352,1.027a4.286,4.286,0,0,0,2.26,1.629.915.915,0,0,0,.834-.249l7.54-7.55A.748.748,0,0,1,241.792,1331.211Zm-4.55,12.315c-3.168,1.452-6.117,1.182-8.3-.758a9.111,9.111,0,0,1-2.482-9.229c.9-2.8,3.229-4.53,6.566-4.881a7.291,7.291,0,0,1,6.075,2.063l-6.493,6.5a5.611,5.611,0,0,1-.858-.856c-.728-.829-1.731-1.963-3.352-1.576a2.246,2.246,0,0,0-1.606,1.378,2.759,2.759,0,0,0,.346,2.507,38.375,38.375,0,0,0,3.818,3.832,2.8,2.8,0,0,0,1.7.69,3.331,3.331,0,0,0,2.066-1,87.611,87.611,0,0,0,6.756-6.783A7.36,7.36,0,0,1,237.242,1343.526Z" fill="#835830"/>
      <path id="Trazado_838" data-name="Trazado 838" d="M87.689,1331.563a2.428,2.428,0,0,0-1.609-2.079,2.543,2.543,0,0,0-1.873.067,9.045,9.045,0,0,0-7.7-2.716h0c-4.043.426-7,2.666-8.118,6.144a11.019,11.019,0,0,0,3.01,11.16,8.432,8.432,0,0,0,5.642,2.159,11.1,11.1,0,0,0,4.641-1.106,9.255,9.255,0,0,0,5.043-11.2c-.013-.048-.033-.095-.047-.143A2.715,2.715,0,0,0,87.689,1331.563Zm-2.223-.353a.584.584,0,0,1,.4.531c.031.307-.169.523-.666.978-.167.151-.33.3-.475.458l-.647.7a90.707,90.707,0,0,1-6.86,6.917c-.869.731-.914.694-1.471.265a40.475,40.475,0,0,1-3.425-3.418.931.931,0,0,1-.147-.81.4.4,0,0,1,.319-.255.831.831,0,0,1,.2-.025c.4,0,.741.331,1.352,1.027a4.291,4.291,0,0,0,2.26,1.629.915.915,0,0,0,.834-.249l7.54-7.55A.751.751,0,0,1,85.466,1331.21Zm-4.549,12.316c-3.168,1.452-6.118,1.182-8.3-.758a9.111,9.111,0,0,1-2.481-9.229c.9-2.8,3.228-4.53,6.565-4.881a7.292,7.292,0,0,1,6.074,2.065l-6.491,6.5a5.611,5.611,0,0,1-.858-.856c-.729-.829-1.731-1.963-3.353-1.576a2.242,2.242,0,0,0-1.605,1.379,2.755,2.755,0,0,0,.346,2.505,38.175,38.175,0,0,0,3.818,3.833,2.8,2.8,0,0,0,1.7.69,3.333,3.333,0,0,0,2.067-1,87.982,87.982,0,0,0,6.756-6.783A7.359,7.359,0,0,1,80.917,1343.526Z" fill="#835830"/>
      <path id="Trazado_839" data-name="Trazado 839" d="M77.466,1310.841a.917.917,0,0,0,.916-.917v-27.467a23.208,23.208,0,0,1,23.182-23.182h5.263v12.843a.915.915,0,0,0,1.4.774l21.781-13.748a.917.917,0,0,0,0-1.55l-21.781-13.748a.916.916,0,0,0-1.4.775v12.822h-5.263a25.042,25.042,0,0,0-25.014,25.014v27.467A.917.917,0,0,0,77.466,1310.841Zm31.194-64.558,19.148,12.086-19.148,12.087Z" fill="#835830"/>
      <path id="Trazado_840" data-name="Trazado 840" d="M129.524,1413.768h-27.96a23.207,23.207,0,0,1-23.182-23.181v-5.7H91.215a.917.917,0,0,0,.775-1.406l-13.749-21.78a.952.952,0,0,0-1.55,0l-13.748,21.78a.917.917,0,0,0,.775,1.406H76.55v5.7a25.042,25.042,0,0,0,25.014,25.013h27.96a.916.916,0,0,0,0-1.832Zm-52.058-49.857,12.087,19.148H65.38Z" fill="#835830"/>
      <path id="Trazado_841" data-name="Trazado 841" d="M233.792,1363.126a.916.916,0,0,0-.916.916v26.545a23.207,23.207,0,0,1-23.182,23.181h-6.31v-12.822a.917.917,0,0,0-1.4-.775L180.2,1413.92a.915.915,0,0,0,0,1.549l21.78,13.748a.916.916,0,0,0,1.4-.774V1415.6h6.31a25.042,25.042,0,0,0,25.014-25.013v-26.545A.916.916,0,0,0,233.792,1363.126Zm-32.24,63.655L182.4,1414.694l19.148-12.086Z" fill="#835830"/>
      <path id="Trazado_842" data-name="Trazado 842" d="M180.687,1259.275h29.007a23.208,23.208,0,0,1,23.182,23.182v4.77H220.084a.917.917,0,0,0-.775,1.406l13.748,21.78a.916.916,0,0,0,1.55,0l13.748-21.78a.916.916,0,0,0-.774-1.406H234.708v-4.77a25.042,25.042,0,0,0-25.014-25.014H180.687a.916.916,0,0,0,0,1.832Zm53.145,48.933-12.087-19.148h24.174Z" fill="#835830"/>
      <path id="Trazado_843" data-name="Trazado 843" d="M165.715,1255.827c-.014-.049-.032-.1-.046-.146a2.717,2.717,0,0,0,1.012-2.281,2.43,2.43,0,0,0-1.609-2.079,2.546,2.546,0,0,0-1.87.066,9.044,9.044,0,0,0-7.706-2.714c-4.043.426-7,2.666-8.118,6.144a11.017,11.017,0,0,0,3.011,11.159,8.428,8.428,0,0,0,5.641,2.159,11.1,11.1,0,0,0,4.641-1.106A9.255,9.255,0,0,0,165.715,1255.827Zm-1.257-2.779a.582.582,0,0,1,.4.53c.03.307-.17.523-.668.978-.166.152-.329.3-.474.458h0l-.634.685a91.246,91.246,0,0,1-6.872,6.931c-.869.73-.914.694-1.471.265a40.789,40.789,0,0,1-3.426-3.418.937.937,0,0,1-.147-.811.4.4,0,0,1,.32-.255.879.879,0,0,1,.2-.024c.4,0,.741.33,1.352,1.026a4.287,4.287,0,0,0,2.26,1.63.916.916,0,0,0,.834-.25l7.541-7.55A.75.75,0,0,1,164.458,1253.048ZM151.6,1264.6a9.111,9.111,0,0,1-2.482-9.229c.9-2.8,3.229-4.529,6.566-4.881a8.533,8.533,0,0,1,.906-.048,7.185,7.185,0,0,1,5.165,2.116l-6.489,6.5a5.622,5.622,0,0,1-.858-.856c-.728-.828-1.729-1.962-3.352-1.575a2.244,2.244,0,0,0-1.606,1.378,2.757,2.757,0,0,0,.346,2.505,38.474,38.474,0,0,0,3.818,3.834,2.8,2.8,0,0,0,1.7.689,3.33,3.33,0,0,0,2.066-1,87.654,87.654,0,0,0,6.756-6.784,7.36,7.36,0,0,1-4.235,8.115C156.74,1266.815,153.791,1266.546,151.6,1264.6Z" fill="#835830"/>
    </g>
  </g>
</svg>
