<svg xmlns="http://www.w3.org/2000/svg" width="137.81" height="137.766" viewBox="0 0 137.81 137.766">
  <g id="Grupo_656" data-name="Grupo 656" transform="translate(-1962.708 -802.711)">
    <path id="Trazado_699" data-name="Trazado 699" d="M2031.518,920.624h0a6.447,6.447,0,0,0-5.813,4.4,7.889,7.889,0,0,0,2.156,7.99,6.033,6.033,0,0,0,4.039,1.546,7.944,7.944,0,0,0,3.323-.792,6.626,6.626,0,0,0,3.611-8.021c-.009-.035-.022-.069-.032-.1a1.945,1.945,0,0,0,.724-1.633,1.74,1.74,0,0,0-1.152-1.489,1.824,1.824,0,0,0-1.335.045A6.484,6.484,0,0,0,2031.518,920.624Zm6.416,3.132a.417.417,0,0,1,.286.38c.022.22-.122.375-.478.7-.119.109-.236.217-.34.329l-.455.491a65.254,65.254,0,0,1-4.919,4.961c-.622.523-.654.5-1.053.19a28.911,28.911,0,0,1-2.453-2.448.667.667,0,0,1-.1-.58.285.285,0,0,1,.229-.182.6.6,0,0,1,.142-.018c.29,0,.531.237.969.735a3.068,3.068,0,0,0,1.617,1.167.658.658,0,0,0,.6-.179l5.4-5.406A.535.535,0,0,1,2037.934,923.756Zm-1.926-.352-4.652,4.657a4.072,4.072,0,0,1-.614-.613,2.4,2.4,0,0,0-2.4-1.128,1.607,1.607,0,0,0-1.15.987,1.978,1.978,0,0,0,.248,1.794,27.582,27.582,0,0,0,2.734,2.745,2,2,0,0,0,1.218.493,2.389,2.389,0,0,0,1.48-.717,63.031,63.031,0,0,0,4.837-4.857,5.269,5.269,0,0,1-3.033,5.81c-2.268,1.039-4.379.846-5.944-.543a6.523,6.523,0,0,1-1.777-6.608,5.123,5.123,0,0,1,4.7-3.495A5.229,5.229,0,0,1,2036.008,923.4Z" fill="#fff"/>
    <path id="Trazado_700" data-name="Trazado 700" d="M2100.483,869.719a.655.655,0,0,0-.477-.625l-2.388-.676-.741-1.556,1.18-2.5a.656.656,0,0,0-.136-.75l-2.5-2.435a.657.657,0,0,0-.767-.108l-2.255,1.2c-.16-.062-.329-.121-.5-.18-.475-.164-1.125-.388-1.243-.649a10.054,10.054,0,0,1-.245-1.013c-.242-1.142-.319-1.45-.63-1.651a.654.654,0,0,0-.357-.106h-3.688a.656.656,0,0,0-.631.476l-.682,2.384-1.557.741-2.5-1.18a.655.655,0,0,0-.75.136l-2.435,2.5a.658.658,0,0,0-.109.767l1.2,2.255c-.062.159-.12.328-.18.5-.155.449-.388,1.129-.645,1.243-.1.045-.528.145-.838.218-1.282.3-1.812.429-1.952.941a.634.634,0,0,0-.023.179l.01,1.1h-8.97a33.729,33.729,0,0,0-9.361-20.9.668.668,0,0,0-.12-.1,2.2,2.2,0,0,0-.341-.5c-1.541-1.7-6-2.877-11.607-3.575l.731-4.272a1.5,1.5,0,0,0,.655-.425,1.716,1.716,0,0,0,.4-.831,2.148,2.148,0,0,0,.975-1.439,2.271,2.271,0,0,0,.9-1.446c.762-.663,3.629-3.158,6.089-5.358a1.851,1.851,0,0,0-1.273-3.339.6.6,0,0,0-.156.021h0a1.871,1.871,0,0,0-.719.3c-.769.541-5.3,4.472-6.455,5.481a1.637,1.637,0,0,0-1.161.189,1.811,1.811,0,0,0-.713.869,2.186,2.186,0,0,0-1.408,1.817,2.117,2.117,0,0,0-.475,2.564c-.17.856-.569,3.162-.967,5.5-2.584-.215-5.31-.344-8.048-.384V828.525l1.445-.015a.656.656,0,0,0,.624-.476l.682-2.383,1.557-.741,2.5,1.179a.655.655,0,0,0,.75-.135l2.434-2.5a.657.657,0,0,0,.11-.767l-1.2-2.255c.062-.16.12-.328.18-.5.155-.449.389-1.128.645-1.243.1-.044.529-.144.839-.217,1.28-.3,1.81-.429,1.951-.94a.693.693,0,0,0,.024-.181l-.035-3.6a.657.657,0,0,0-.477-.625l-2.388-.675-.74-1.556,1.179-2.5a.656.656,0,0,0-.135-.75l-2.5-2.435a.658.658,0,0,0-.767-.109l-2.255,1.2c-.16-.063-.329-.121-.5-.18-.475-.164-1.125-.388-1.243-.649a10.133,10.133,0,0,1-.245-1.013c-.242-1.142-.319-1.45-.63-1.651a.654.654,0,0,0-.357-.106h-3.688a.657.657,0,0,0-.631.476l-.682,2.384-1.556.74-2.5-1.179a.655.655,0,0,0-.75.136l-2.434,2.5a.657.657,0,0,0-.109.766l1.2,2.255c-.063.16-.121.329-.181.5-.155.45-.389,1.129-.645,1.243-.1.044-.528.145-.838.218-1.281.3-1.811.429-1.952.939a.653.653,0,0,0-.023.181l.034,3.6a.656.656,0,0,0,.478.625l2.388.676.74,1.555-1.18,2.5a.658.658,0,0,0,.136.751l2.5,2.434a.656.656,0,0,0,.767.109l2.237-1.194,1.764.864.715,2.3a.655.655,0,0,0,.626.462h.007l.822-.009v16.569c-1.378-.007-2.753.006-4.106.044a97.047,97.047,0,0,0-10.075.765l-1.243-2.884c3.138-4.5,7.13-3.812,7.347-3.771a.655.655,0,0,0,.743-.393.444.444,0,0,0,.019-.052,4.807,4.807,0,0,1,4.075-3.617.656.656,0,0,0,.319-1.214c-.263-.162-6.444-3.859-16.686-.683l-.5-1.138a.606.606,0,0,0-.031-.057.649.649,0,0,0-.033-.058.532.532,0,0,0-.038-.044.588.588,0,0,0-.046-.053c-.013-.013-.029-.022-.042-.034s-.038-.031-.058-.044-.031-.016-.047-.025a.662.662,0,0,0-.065-.033c-.017-.006-.034-.009-.052-.015a.538.538,0,0,0-.069-.019.35.35,0,0,0-.056-.005.407.407,0,0,0-.07-.006c-.021,0-.041,0-.062.006s-.044,0-.066.007a.525.525,0,0,0-.067.022c-.019.006-.039.01-.058.018h0a.619.619,0,0,0-.061.035.569.569,0,0,0-.054.03.577.577,0,0,0-.054.046c-.014.013-.03.024-.043.038a.552.552,0,0,0-.044.055c-.011.015-.025.029-.035.044s-.021.041-.031.062-.019.033-.026.051-.012.042-.018.063-.013.038-.017.058,0,.044-.006.065-.005.04-.005.061.005.044.007.067,0,.041.007.061.014.045.021.067.01.039.019.058v0h0l0,0,.428.995c-2.046.723-7.583,3.514-10.46,13.113a.656.656,0,0,0,1.029.707,8.449,8.449,0,0,1,5.714-1.306c.009,0,.019,0,.028,0l.043,0c.008,0,.016,0,.025,0a.7.7,0,0,0,.111-.014l.043-.01a.637.637,0,0,0,.1-.04l.046-.022a.542.542,0,0,0,.083-.06.533.533,0,0,0,.046-.037l.014-.012a.556.556,0,0,0,.057-.073c.009-.012.02-.021.028-.033a6.671,6.671,0,0,1,7.234-2.593l1.212,2.813c-2.906.48-5.483,1.192-6.763,2.243a3.791,3.791,0,0,0-.924.818,3.569,3.569,0,0,0-.319.491h0a33.681,33.681,0,0,0-9.722,21.272h-9.485l-.011-1.226a.656.656,0,0,0-.478-.625l-2.388-.676-.74-1.556,1.18-2.5a.658.658,0,0,0-.136-.75l-2.5-2.435a.656.656,0,0,0-.767-.108l-2.256,1.2c-.159-.063-.328-.121-.5-.18-.475-.164-1.125-.388-1.242-.649a9.959,9.959,0,0,1-.245-1.011c-.243-1.144-.319-1.452-.631-1.653a.654.654,0,0,0-.356-.106H1973.8a.655.655,0,0,0-.63.476l-.682,2.384-1.557.741-2.5-1.18a.655.655,0,0,0-.75.136l-2.435,2.5a.658.658,0,0,0-.109.767l1.2,2.255c-.062.159-.12.327-.18.5-.155.45-.389,1.13-.646,1.244-.1.045-.528.145-.838.218-1.28.3-1.81.429-1.952.939a.735.735,0,0,0-.023.181l.035,3.6a.655.655,0,0,0,.477.625l2.388.676.741,1.556-1.18,2.5a.657.657,0,0,0,.136.75l2.5,2.434a.657.657,0,0,0,.767.109l2.237-1.194,1.763.864.715,2.3a.656.656,0,0,0,.627.461h.006l3.579-.037a.654.654,0,0,0,.624-.475l.682-2.384,1.557-.741,2.5,1.179a.657.657,0,0,0,.751-.135l2.434-2.5a.655.655,0,0,0,.109-.767l-1.2-2.255c.062-.16.12-.328.18-.5.154-.45.388-1.129.644-1.244.105-.044.528-.144.838-.217,1.282-.3,1.813-.429,1.953-.941a.639.639,0,0,0,.023-.179l-.01-1.058h9.4c-.016.432-.031.863-.031,1.3a33.957,33.957,0,0,0,33.267,33.908v7.18h-.846a.657.657,0,0,0-.631.475l-.682,2.384-1.556.741-2.5-1.18a.657.657,0,0,0-.75.136l-2.434,2.5a.658.658,0,0,0-.109.767l1.2,2.255c-.063.16-.121.328-.181.5-.155.45-.389,1.129-.645,1.243-.1.045-.528.145-.838.218-1.281.3-1.811.429-1.952.939a.653.653,0,0,0-.023.181l.034,3.6a.655.655,0,0,0,.478.625l2.388.676.74,1.556-1.18,2.5a.657.657,0,0,0,.136.75l2.5,2.434a.655.655,0,0,0,.767.109l2.237-1.193,1.764.863.715,2.3a.656.656,0,0,0,.626.461h.007l3.579-.037a.656.656,0,0,0,.624-.475l.682-2.384,1.557-.741,2.5,1.18a.657.657,0,0,0,.75-.136l2.434-2.5a.657.657,0,0,0,.11-.767l-1.2-2.255c.062-.159.12-.328.18-.5.155-.449.389-1.128.645-1.242.1-.045.528-.145.838-.218,1.281-.3,1.811-.429,1.952-.94a.68.68,0,0,0,.024-.18l-.035-3.6a.656.656,0,0,0-.477-.625l-2.388-.676-.74-1.556,1.179-2.5a.656.656,0,0,0-.135-.75l-2.5-2.435a.656.656,0,0,0-.766-.108l-2.256,1.2c-.16-.062-.329-.12-.5-.18-.475-.164-1.125-.387-1.243-.649a10.133,10.133,0,0,1-.245-1.013c-.242-1.142-.319-1.45-.63-1.651a.653.653,0,0,0-.357-.1h-1.53v-7.18a33.711,33.711,0,0,0,12.13-2.494.64.64,0,0,0,.226-.089,33.973,33.973,0,0,0,20.912-31.325c0-.436-.015-.87-.031-1.3h8.905l.011,1.183a.656.656,0,0,0,.477.625l2.389.676.74,1.556-1.18,2.5a.656.656,0,0,0,.136.75l2.5,2.434a.657.657,0,0,0,.767.109l2.237-1.194,1.763.864.716,2.3a.656.656,0,0,0,.626.461h.007l3.579-.037a.656.656,0,0,0,.624-.475l.682-2.384,1.556-.741,2.5,1.179a.656.656,0,0,0,.75-.135l2.434-2.5a.654.654,0,0,0,.109-.767l-1.2-2.255c.062-.159.12-.328.18-.5.154-.45.388-1.13.645-1.245.1-.044.528-.144.838-.217,1.281-.3,1.811-.429,1.952-.94a.68.68,0,0,0,.024-.18ZM2030.3,825.125a.657.657,0,0,0-.338-.394l-2.319-1.136a.664.664,0,0,0-.288-.067.647.647,0,0,0-.309.078l-2.111,1.126-1.821-1.773,1.113-2.355a.656.656,0,0,0,0-.563l-1-2.1a.657.657,0,0,0-.414-.35l-2.2-.623-.025-2.692c.274-.08.683-.177.961-.243a7.317,7.317,0,0,0,1.069-.3,3.072,3.072,0,0,0,1.353-2.015,6.561,6.561,0,0,1,.256-.672.655.655,0,0,0-.01-.6l-1.126-2.11,1.772-1.821,2.356,1.113a.658.658,0,0,0,.562,0l2.1-1a.653.653,0,0,0,.348-.412l.628-2.193h2.738c.053.218.113.5.159.717a7.481,7.481,0,0,0,.332,1.28,3.076,3.076,0,0,0,2.013,1.35,6.632,6.632,0,0,1,.673.257.656.656,0,0,0,.6-.011l2.11-1.126,1.821,1.773-1.113,2.355a.658.658,0,0,0,0,.562l1,2.1a.653.653,0,0,0,.413.349l2.2.623.026,2.692c-.274.081-.684.178-.962.244a7.313,7.313,0,0,0-1.069.295,3.074,3.074,0,0,0-1.352,2.015,6.36,6.36,0,0,1-.257.673.656.656,0,0,0,.011.6l1.126,2.111-1.773,1.82-2.355-1.112a.655.655,0,0,0-.562,0l-2.1,1a.657.657,0,0,0-.349.412l-.629,2.2-2.6.027Zm-4.446,9.289a6.3,6.3,0,0,0-2.759,2.857,16.69,16.69,0,0,0-7.8-3.415A20.967,20.967,0,0,1,2025.853,834.414Zm-19.9,10.324a10.289,10.289,0,0,0-4.054.706,19.13,19.13,0,0,1,5.877-8.62A14.736,14.736,0,0,0,2005.956,844.738Zm1.511-1.053c.065-2.156.638-5.884,3.545-8.382l2.773,6.439A7.969,7.969,0,0,0,2007.467,843.685Zm5.085-8.717a18.6,18.6,0,0,1,8.831,2.891,9.253,9.253,0,0,0-5.979,3.464C2014.782,839.919,2013.649,837.373,2012.552,834.968Zm-26.243,38.19a7.092,7.092,0,0,0-1.068.3,3.07,3.07,0,0,0-1.353,2.015,6.54,6.54,0,0,1-.256.672.658.658,0,0,0,.011.6l1.126,2.11-1.773,1.82-2.355-1.112a.657.657,0,0,0-.563,0l-2.1,1a.656.656,0,0,0-.348.412l-.629,2.2-2.6.027-.654-2.1a.657.657,0,0,0-.338-.394l-2.318-1.136a.668.668,0,0,0-.289-.067.651.651,0,0,0-.309.078l-2.11,1.126-1.821-1.773,1.113-2.355a.658.658,0,0,0,0-.562l-1-2.106a.659.659,0,0,0-.414-.349l-2.2-.623-.026-2.692c.274-.08.683-.177.961-.243a7.4,7.4,0,0,0,1.07-.3,3.081,3.081,0,0,0,1.353-2.016,6.78,6.78,0,0,1,.256-.672.656.656,0,0,0-.011-.6l-1.126-2.11,1.773-1.82,2.355,1.112a.658.658,0,0,0,.562,0l2.1-1a.659.659,0,0,0,.349-.413l.627-2.193h2.738c.053.219.114.5.16.72a7.6,7.6,0,0,0,.331,1.277,3.079,3.079,0,0,0,2.012,1.35,6.548,6.548,0,0,1,.674.257.656.656,0,0,0,.6-.011l2.111-1.126,1.82,1.773-1.112,2.355a.654.654,0,0,0,0,.562l1,2.1a.653.653,0,0,0,.414.349l2.2.623.026,2.693C1987,872.995,1986.587,873.092,1986.309,873.158Zm47.445,43.513a7.49,7.49,0,0,0,.332,1.279,3.072,3.072,0,0,0,2.013,1.35,6.632,6.632,0,0,1,.673.257.654.654,0,0,0,.595-.011l2.111-1.126,1.821,1.773-1.113,2.355a.658.658,0,0,0,0,.562l1,2.105a.658.658,0,0,0,.413.35l2.2.622.026,2.693c-.275.08-.684.177-.962.243a7.4,7.4,0,0,0-1.069.3,3.074,3.074,0,0,0-1.352,2.014,6.35,6.35,0,0,1-.257.673.658.658,0,0,0,.011.6l1.126,2.11-1.773,1.82-2.355-1.112a.658.658,0,0,0-.562,0l-2.1,1a.658.658,0,0,0-.349.412l-.629,2.2-2.6.027-.654-2.1a.657.657,0,0,0-.338-.394l-2.319-1.136a.662.662,0,0,0-.288-.066.646.646,0,0,0-.309.077l-2.111,1.126-1.821-1.773,1.113-2.355a.654.654,0,0,0,0-.562l-1-2.1a.657.657,0,0,0-.414-.35l-2.2-.623-.025-2.692c.274-.08.683-.177.961-.243a7.328,7.328,0,0,0,1.069-.3,3.07,3.07,0,0,0,1.353-2.015,6.656,6.656,0,0,1,.256-.672.655.655,0,0,0-.01-.6l-1.126-2.11,1.772-1.82,2.356,1.112a.658.658,0,0,0,.562,0l2.1-1a.656.656,0,0,0,.348-.412l.628-2.194h2.738C2033.648,916.172,2033.708,916.455,2033.754,916.671Zm14.67-26.607c-5.658.474-10.942.706-15.812.769V874.709c5.368-.046,11.179-.285,17.377-.787A78.15,78.15,0,0,1,2048.424,890.064Zm-16.56,16.1a32.45,32.45,0,0,1-11.6-2.139,225.547,225.547,0,0,1,22.89.122A32.457,32.457,0,0,1,2031.864,906.166Zm-19.087-32.172c5.158.428,11.133.724,17.847.724l.676,0v16.132c-6.431.045-12.1-.206-16.9-.58A78.3,78.3,0,0,1,2012.777,873.994ZM2003.752,857c2.422.454,5.487.938,9.151,1.341a88.777,88.777,0,0,0-1.422,14.225c-4.875-.44-8.946-.993-12.125-1.511A32.319,32.319,0,0,1,2003.752,857Zm10.459,1.479c4.471.449,9.754.766,15.766.766.436,0,.879,0,1.323-.007V873.4c-6.985.021-13.2-.279-18.512-.722A87.309,87.309,0,0,1,2014.211,858.48Zm16.422-3.028c.224,0,.444,0,.667-.005v2.48a157.981,157.981,0,0,1-16.839-.741c.223-1.1.439-2.051.627-2.818A95.058,95.058,0,0,0,2030.633,855.452ZM2056,851.637a32.807,32.807,0,0,1,3.071,3.942q-4.917.779-9.51,1.271c-.213-1.042-.419-1.95-.6-2.7,3.361-.577,5.907-1.349,6.878-2.325C2055.9,851.766,2055.944,851.7,2056,851.637Zm-8.341,2.724c.179.724.382,1.606.592,2.627-5.614.571-10.84.851-15.635.925v-2.475h.15A118.918,118.918,0,0,0,2047.655,854.361Zm-17.831,37.8c.487,0,.98,0,1.476-.005v10.32c-4.405-.018-8.74.091-12.976.33a67.289,67.289,0,0,1-3.628-11.2C2019.066,891.936,2024.131,892.164,2029.824,892.164Zm14.592,10.742q-5.961-.355-11.8-.414V892.145c4.787-.062,9.973-.286,15.517-.741A66.926,66.926,0,0,1,2044.416,902.906Zm-11.8-29.51V859.224c4.872-.075,10.181-.36,15.889-.943a87.127,87.127,0,0,1,1.473,14.325C2043.778,873.111,2037.974,873.35,2032.612,873.4Zm17.2-15.251q4.828-.528,10.021-1.357a32.366,32.366,0,0,1,4.539,14.224q-6.792.951-13.089,1.485A88.612,88.612,0,0,0,2049.81,858.145Zm-30.431-6.966c-.006-.018-.009-.036-.017-.054l-.889-2.065c3.459-.332,8.115-.54,12.827-.579v2.967C2027.131,851.505,2022.921,851.432,2019.379,851.179Zm-1.473-.119c-3.438-.321-4.563-.74-4.914-.941a11.794,11.794,0,0,1,4.115-.914Zm14.706-2.585c2.588,0,5.156.046,7.519.156-.184,1.092-.336,2-.424,2.527-2.224.126-4.637.219-7.095.268Zm11.126.387a24.768,24.768,0,0,1,6.282,1.095,36.2,36.2,0,0,1-6.632.948Zm8.317-16.9c.024.016.05.028.075.042-1.921,1.706-3.88,3.414-4.775,4.193a9.336,9.336,0,0,0-.848-.866c1.319-1.146,3.495-3.028,4.883-4.193A1.829,1.829,0,0,0,2052.055,831.958Zm-7.395,8.338a.327.327,0,0,1-.217.074,2.25,2.25,0,0,1-1.491-.732.634.634,0,0,0-.072-.075c0-.008-.007-.017-.012-.025a.9.9,0,0,1-.116-.793,11.91,11.91,0,0,0,1.949,1.48A.292.292,0,0,1,2044.66,840.3Zm1.033-1.58a.894.894,0,0,1-.243.429,10.784,10.784,0,0,1-2.03-1.577,1.161,1.161,0,0,1,.288-.573A9.98,9.98,0,0,0,2045.693,838.716Zm7.668-7.9a.554.554,0,0,1-.576.055.544.544,0,0,1-.22-.514c.016-.092.07-.219.305-.293a.578.578,0,0,1,.465.215A.463.463,0,0,1,2053.361,830.812Zm-8.458,5.065a.332.332,0,0,1,.206-.027c.011.01.016.024.028.034a8.093,8.093,0,0,1,1.444,1.455,1.015,1.015,0,0,1-.145.3,8.14,8.14,0,0,1-1.722-1.482A.544.544,0,0,1,2044.9,835.877Zm-2.156,5.275a4.006,4.006,0,0,0,.913.385l-1.611,9.416c-.215.024-.365.031-.566.039-.119.006-.253.012-.422.022C2041.407,848.948,2042.312,843.557,2042.747,841.152Zm-2.3,5.623c-.034.2-.068.4-.1.595-2.429-.133-5.068-.207-7.731-.222v-.726C2035.371,846.457,2038.006,846.578,2040.444,846.775Zm-13.214-.313q1.889-.052,3.729-.052l.341,0v.734a131.908,131.908,0,0,0-13.386.617l-.256-.595A93.755,93.755,0,0,1,2027.23,846.462Zm-10.917.9.245.568c-2.222.306-3.818.7-4.41,1.183a1.182,1.182,0,0,0-.5,1.422c.225.556.752,1.857,12.41,2.177,1.5.041,3.082.061,4.7.061,5.126,0,10.586-.2,14.853-.563,7.815-.665,8-1.5,8.119-2.058.056-.257.045-.748-.662-1.148-1.08-.61-3.707-1.068-7.114-1.378l.084-.49c5.553.682,9.593,1.8,10.853,3.189.259.285.213.38.017.577-.792.8-3.247,1.515-6.773,2.072a.675.675,0,0,0-.146.02l-.013.005a114.83,114.83,0,0,1-15.228,1.125c-11.646.171-20.931-1.032-23.11-2.992-.453-.407-.616-.8-.034-1.519C2010.336,848.707,2012.747,847.927,2016.313,847.363Zm-8.211,3.87a2.636,2.636,0,0,0,.654.876,11.709,11.709,0,0,0,5.043,2.006c-.195.8-.419,1.789-.648,2.934-3.417-.373-6.317-.817-8.653-1.243A32.79,32.79,0,0,1,2008.1,851.233Zm-8.821,21.14c3.207.519,7.3,1.072,12.188,1.51a79.8,79.8,0,0,0,1.573,16.273c-3.972-.34-7.294-.758-9.888-1.149a32.407,32.407,0,0,1-3.9-15.453C1999.253,873.159,1999.267,872.766,1999.281,872.373Zm4.7,18.082c2.538.361,5.675.735,9.344,1.041a68.657,68.657,0,0,0,3.424,10.942A32.84,32.84,0,0,1,2003.982,890.455Zm41.806,12.582a68.414,68.414,0,0,0,3.709-11.751q5.032-.441,10.434-1.152A32.824,32.824,0,0,1,2045.788,903.037ZM2060.73,888.7c-3.781.518-7.43.924-10.946,1.239a79.7,79.7,0,0,0,1.514-16.129q6.318-.546,13.149-1.488c.015.408.029.817.029,1.228A32.4,32.4,0,0,1,2060.73,888.7Zm37.51-15.546a7.114,7.114,0,0,0-1.069.3,3.073,3.073,0,0,0-1.353,2.016,6.688,6.688,0,0,1-.256.671.658.658,0,0,0,.011.6l1.126,2.11-1.773,1.82-2.355-1.112a.657.657,0,0,0-.563,0l-2.1,1a.657.657,0,0,0-.349.412l-.629,2.2-2.6.027-.654-2.1a.657.657,0,0,0-.338-.394l-2.319-1.136a.664.664,0,0,0-.289-.067.646.646,0,0,0-.308.078l-2.111,1.126-1.821-1.773,1.113-2.355a.658.658,0,0,0,0-.562l-1-2.105a.657.657,0,0,0-.414-.35l-2.2-.623-.025-2.692c.274-.081.683-.177.961-.243a7.372,7.372,0,0,0,1.069-.3,3.075,3.075,0,0,0,1.353-2.016,6.809,6.809,0,0,1,.256-.672.656.656,0,0,0-.011-.6l-1.126-2.11,1.773-1.82,2.355,1.112a.658.658,0,0,0,.562,0l2.1-1a.659.659,0,0,0,.349-.413l.628-2.193h2.738c.053.218.113.5.159.718a7.5,7.5,0,0,0,.332,1.279,3.073,3.073,0,0,0,2.012,1.35,6.548,6.548,0,0,1,.674.257.656.656,0,0,0,.6-.011l2.11-1.126,1.82,1.773-1.112,2.355a.655.655,0,0,0,0,.562l1,2.1a.655.655,0,0,0,.414.349l2.2.623.026,2.693C2098.927,872.995,2098.518,873.092,2098.24,873.158Z" fill="#fff"/>
    <path id="Trazado_701" data-name="Trazado 701" d="M2094.9,868.044a1.741,1.741,0,0,0-1.152-1.489,1.823,1.823,0,0,0-1.338.046,6.48,6.48,0,0,0-5.518-1.942h0a6.447,6.447,0,0,0-5.813,4.4,7.889,7.889,0,0,0,2.156,7.99,6.032,6.032,0,0,0,4.039,1.546,7.943,7.943,0,0,0,3.323-.792,6.626,6.626,0,0,0,3.611-8.021c-.009-.035-.022-.07-.032-.1A1.947,1.947,0,0,0,2094.9,868.044Zm-1.591-.253a.416.416,0,0,1,.284.38c.022.22-.121.375-.477.7-.119.109-.236.217-.34.328h0l-.453.49a65.149,65.149,0,0,1-4.921,4.963c-.622.523-.654.5-1.053.189a28.752,28.752,0,0,1-2.453-2.447.666.666,0,0,1-.1-.58.284.284,0,0,1,.229-.182.591.591,0,0,1,.142-.018c.29,0,.531.237.968.735a3.074,3.074,0,0,0,1.618,1.167.658.658,0,0,0,.6-.179l5.4-5.406A.537.537,0,0,1,2093.307,867.791Zm-3.259,8.819c-2.268,1.039-4.379.846-5.945-.543a6.527,6.527,0,0,1-1.777-6.608,5.127,5.127,0,0,1,4.7-3.5,5.221,5.221,0,0,1,4.349,1.478l-4.649,4.655a4.023,4.023,0,0,1-.614-.613,2.4,2.4,0,0,0-2.4-1.128,1.61,1.61,0,0,0-1.15.987,1.974,1.974,0,0,0,.248,1.8,27.565,27.565,0,0,0,2.734,2.744,2,2,0,0,0,1.218.493,2.389,2.389,0,0,0,1.48-.717,62.887,62.887,0,0,0,4.837-4.858A5.27,5.27,0,0,1,2090.048,876.61Z" fill="#fff"/>
    <path id="Trazado_702" data-name="Trazado 702" d="M1982.968,868.043a1.74,1.74,0,0,0-1.153-1.488,1.82,1.82,0,0,0-1.341.048,6.474,6.474,0,0,0-5.514-1.944h0a6.445,6.445,0,0,0-5.812,4.4,7.888,7.888,0,0,0,2.155,7.99,6.036,6.036,0,0,0,4.04,1.546,7.944,7.944,0,0,0,3.323-.792,6.627,6.627,0,0,0,3.611-8.021c-.01-.035-.024-.068-.034-.1A1.944,1.944,0,0,0,1982.968,868.043Zm-1.592-.252a.418.418,0,0,1,.285.38c.022.22-.121.375-.477.7-.119.109-.236.217-.34.328l-.463.5a65.01,65.01,0,0,1-4.911,4.953c-.623.523-.655.5-1.054.19a29.028,29.028,0,0,1-2.452-2.448.668.668,0,0,1-.106-.58.284.284,0,0,1,.229-.182.606.606,0,0,1,.143-.018c.29,0,.53.237.968.735a3.078,3.078,0,0,0,1.618,1.167.658.658,0,0,0,.6-.179l5.4-5.406A.536.536,0,0,1,1981.376,867.791Zm-3.258,8.818c-2.268,1.04-4.38.847-5.945-.542a6.525,6.525,0,0,1-1.777-6.608,5.125,5.125,0,0,1,4.7-3.5,5.225,5.225,0,0,1,4.349,1.479L1974.8,872.1a4.028,4.028,0,0,1-.614-.613,2.407,2.407,0,0,0-2.4-1.128,1.608,1.608,0,0,0-1.149.987,1.972,1.972,0,0,0,.248,1.794,27.449,27.449,0,0,0,2.733,2.745,2,2,0,0,0,1.219.493,2.387,2.387,0,0,0,1.479-.717,62.874,62.874,0,0,0,4.838-4.857A5.269,5.269,0,0,1,1978.118,876.609Z" fill="#fff"/>
    <path id="Trazado_703" data-name="Trazado 703" d="M1975.648,853.206a.655.655,0,0,0,.655-.656V832.883a16.617,16.617,0,0,1,16.6-16.6h3.769v9.2a.656.656,0,0,0,1.006.555l15.595-9.844a.656.656,0,0,0,0-1.109l-15.595-9.844a.656.656,0,0,0-1.006.554v9.181H1992.9a17.93,17.93,0,0,0-17.91,17.91V852.55A.655.655,0,0,0,1975.648,853.206Zm22.334-46.224,13.711,8.654-13.711,8.654Z" fill="#fff"/>
    <path id="Trazado_704" data-name="Trazado 704" d="M2012.922,926.9H1992.9a16.617,16.617,0,0,1-16.6-16.6v-4.078h9.189a.656.656,0,0,0,.555-1.006l-9.845-15.6a.681.681,0,0,0-1.109,0l-9.844,15.6a.656.656,0,0,0,.555,1.006h9.188V910.3a17.93,17.93,0,0,0,17.91,17.91h20.02a.656.656,0,0,0,0-1.312Zm-37.274-35.7,8.654,13.71h-17.309Z" fill="#fff"/>
    <path id="Trazado_705" data-name="Trazado 705" d="M2087.578,890.643a.656.656,0,0,0-.656.656V910.3a16.617,16.617,0,0,1-16.6,16.6h-4.518v-9.18a.655.655,0,0,0-1.006-.555l-15.595,9.844a.655.655,0,0,0,0,1.109l15.595,9.844a.649.649,0,0,0,.35.1.654.654,0,0,0,.656-.656v-9.195h4.518a17.93,17.93,0,0,0,17.91-17.91V891.3A.656.656,0,0,0,2087.578,890.643Zm-23.084,45.578-13.71-8.654,13.71-8.655Z" fill="#fff"/>
    <path id="Trazado_706" data-name="Trazado 706" d="M2049.555,816.285h20.769a16.617,16.617,0,0,1,16.6,16.6V836.3h-9.159a.656.656,0,0,0-.554,1.006l9.843,15.6a.656.656,0,0,0,1.11,0l9.844-15.6a.657.657,0,0,0-.555-1.006h-9.217v-3.416a17.93,17.93,0,0,0-17.91-17.91h-20.769a.656.656,0,1,0,0,1.312Zm38.052,35.036-8.654-13.71h17.308Z" fill="#fff"/>
    <path id="Trazado_707" data-name="Trazado 707" d="M2038.834,813.816c-.009-.035-.022-.07-.032-.1a1.944,1.944,0,0,0,.724-1.633,1.738,1.738,0,0,0-1.152-1.488,1.82,1.82,0,0,0-1.339.047,6.949,6.949,0,0,0-11.33,2.456,7.889,7.889,0,0,0,2.156,7.99,6.033,6.033,0,0,0,4.039,1.546,7.959,7.959,0,0,0,3.323-.792A6.626,6.626,0,0,0,2038.834,813.816Zm-.9-1.99a.417.417,0,0,1,.286.38c.022.22-.122.374-.478.7-.119.109-.236.217-.34.328h0l-.453.49a65.1,65.1,0,0,1-4.921,4.963c-.622.523-.654.5-1.053.189a28.763,28.763,0,0,1-2.453-2.447.667.667,0,0,1-.1-.58.282.282,0,0,1,.229-.182.6.6,0,0,1,.142-.018c.29,0,.531.237.969.735a3.066,3.066,0,0,0,1.617,1.166.655.655,0,0,0,.6-.178l5.4-5.406A.535.535,0,0,1,2037.934,811.826Zm-9.2,8.276a6.524,6.524,0,0,1-1.777-6.609,5.125,5.125,0,0,1,4.7-3.495,6.258,6.258,0,0,1,.649-.034,5.146,5.146,0,0,1,3.7,1.515l-4.647,4.652a4.072,4.072,0,0,1-.614-.613,2.4,2.4,0,0,0-2.4-1.128,1.605,1.605,0,0,0-1.15.987,1.978,1.978,0,0,0,.248,1.794,27.687,27.687,0,0,0,2.734,2.745,2,2,0,0,0,1.218.493,2.385,2.385,0,0,0,1.48-.718,62.835,62.835,0,0,0,4.837-4.857,5.27,5.27,0,0,1-3.033,5.811C2032.408,821.684,2030.3,821.491,2028.732,820.1Z" fill="#fff"/>
  </g>
</svg>