<svg xmlns="http://www.w3.org/2000/svg" width="167.288" height="193.947" viewBox="0 0 167.288 193.947">
  <g id="Grupo_838" data-name="Grupo 838" transform="translate(-71.985 -1000.214)">
    <path id="Trazado_913" data-name="Trazado 913" d="M178.217,1004.172a.912.912,0,0,0-1.014-.806l-5.015.571a.916.916,0,1,0,.207,1.821l5.015-.572A.916.916,0,0,0,178.217,1004.172Z" fill="#fff"/>
    <path id="Trazado_914" data-name="Trazado 914" d="M239.261,1073.573l-6.167-37.511a.916.916,0,0,0-1.427-.6l-18.721,13.018c-3.26-2.456-9.51-4.36-17.422-5.733,1.07-3.568,2.3-7.714,3.567-12.059a8.181,8.181,0,0,1,3.46-4.151,13.44,13.44,0,0,0,6.384-7.827c.968-3.566.147-7.472-2.439-11.609a.913.913,0,0,0-.808-.43c-.775.027-1.1.037-3.763,9.714-.136.121-.906.648-3.756.507a6.56,6.56,0,0,1-5.031-2.286,1.684,1.684,0,0,1-.423-1.261c.135-.486.493-1.572.872-2.722,1.972-5.984,1.906-6.075,1.547-6.577a.967.967,0,0,0-.756-.4h-.009c-1.044,0-5.252,2.063-7.633,6.058-1.61,2.7-2.829,7.121.2,13.02h0c.091.178.173.353.272.534.582,2.366.664,3.922.277,5.187-.535,1.749-2.446,8.155-4.234,14.156l-3.046-25.642,1.6-4.369a.919.919,0,0,0,.05-.425l-1.349-11.144a.916.916,0,0,0-1.021-.8l-10.089,1.232a.916.916,0,0,0-.8,1.008l1.232,11.36a.911.911,0,0,0,.174.446l2.731,3.7,2.854,22.579c-8.171-.5-16.8-.634-25.081-.4-3.677.1-11.1.4-18.7,1.259l-1.955-6.34c8.376-9.839,17.548-7.155,18.022-7.006a.909.909,0,0,0,.581,0h0a.977.977,0,0,0,.117-.049h0a.912.912,0,0,0,.392-.381c.012-.023.024-.047.034-.07,3.47-7.732,10.187-7.408,10.469-7.391a.916.916,0,0,0,.625-1.637,32.269,32.269,0,0,0-9.821-4.58c-5.688-1.718-14.973-3.214-27.148-.75l-.975-3.1v0h0l0-.005a.762.762,0,0,0-.033-.078c-.013-.03-.024-.062-.039-.09s-.034-.05-.051-.075-.032-.051-.051-.073a.953.953,0,0,0-.072-.071c-.019-.017-.035-.037-.055-.052a.852.852,0,0,0-.094-.063c-.018-.01-.034-.024-.052-.034a1.05,1.05,0,0,0-.11-.045c-.018-.006-.035-.016-.053-.021a.887.887,0,0,0-.117-.024c-.019,0-.037-.009-.057-.011a1.023,1.023,0,0,0-.112,0c-.023,0-.045,0-.068,0s-.063.013-.094.019-.057.009-.086.017h0c-.027.008-.05.022-.075.032a.887.887,0,0,0-.094.04c-.025.014-.047.032-.07.048s-.054.034-.078.054-.04.041-.06.062a.645.645,0,0,0-.063.065.734.734,0,0,0-.049.074c-.016.024-.034.047-.048.073s-.022.055-.034.082a.8.8,0,0,0-.032.081.807.807,0,0,0-.018.088.8.8,0,0,0-.017.085c0,.03,0,.061,0,.091a.678.678,0,0,0,0,.09.668.668,0,0,0,.017.087c.006.031.009.061.018.092l.9,2.9a27.324,27.324,0,0,0-8.88,3.775c-5.079,3.214-12.275,9.754-17.714,22.662a.916.916,0,0,0,1.322,1.137,19.474,19.474,0,0,1,13.421-1.6h.017a.912.912,0,0,0,.179.02h.007c.025,0,.05-.006.075-.008a.917.917,0,0,0,.128-.016c.024-.006.047-.017.072-.025a.877.877,0,0,0,.121-.044c.023-.011.043-.027.065-.04a.972.972,0,0,0,.11-.072l.007-.005a.7.7,0,0,0,.066-.068.9.9,0,0,0,.069-.07,15.678,15.678,0,0,1,17.578-4.1l2.021,6.552c-9.032,1.126-17.906,3.075-20.645,6.446a6.97,6.97,0,0,0-.923,1.454c-.007-.023-.019-.044-.025-.067-.043.052-.1.1-.137.157a7.594,7.594,0,0,0-.708,1.1c-.019.016-.036.033-.053.05a74.745,74.745,0,0,0-21.059,42.321l-7.817,10.376a.915.915,0,0,0-.015,1.081l6.29,8.871c-.244.824-.436,1.748-.638,2.718-.518,2.5-1.106,5.326-2.679,6.281a33.515,33.515,0,0,1-3.449,1.405c-4.745,1.781-5.964,2.34-6.1,3.322a.94.94,0,0,0,0,.254l1.927,14.058a.917.917,0,0,0,.771.782l10.435,1.568,4.51,7.025-3.618,11.117a.915.915,0,0,0,.32,1.015l11,8.285a.917.917,0,0,0,1.082.016l8.86-6.283,8.824,3.01,4.245,9.306a.916.916,0,0,0,.833.536,1.078,1.078,0,0,0,.126-.008l7.433-1.024a30.7,30.7,0,0,0,56.056-1.695c0,.029,0,.058,0,.088a75.333,75.333,0,0,0,43.743-104.623l9.466,4a.917.917,0,0,0,1.261-.993ZM149.6,1015.825a37.175,37.175,0,0,1,6.771,2.745,13.43,13.43,0,0,0-8.377,6.56c-1.981-2.339-7.585-7.6-19.8-10.755A51.8,51.8,0,0,1,149.6,1015.825Zm-39.577,13.019a35.919,35.919,0,0,0-1.443,8.454,22.148,22.148,0,0,0-10.9.885c5.068-10.755,11.323-16.335,15.7-19.128a29.69,29.69,0,0,1,3.385-1.867A26.986,26.986,0,0,0,110.02,1028.844Zm4.271,4.859a18.163,18.163,0,0,0-3.433,2.213c.444-4.521,2.4-14.61,10.99-20.024l5.173,16.777A17.477,17.477,0,0,0,114.291,1033.7Zm9.82-18.04c12.39,2.507,18.638,7.2,21.39,9.986-3.516-.232-9.866.455-15.946,6.761C128.575,1029.34,126.277,1022.167,124.111,1015.663Zm63.794-4.276a13.092,13.092,0,0,1,5.232-5.369c-.356,1.191-.906,2.861-1.29,4.028-.4,1.222-.751,2.277-.9,2.8a3.394,3.394,0,0,0,.7,2.823,8.367,8.367,0,0,0,6.425,3.044c4.605.228,5.455-1.137,5.6-1.8.737-2.674,1.589-5.566,2.159-7.281,1.592,3.092,2.04,5.976,1.33,8.592a11.735,11.735,0,0,1-5.466,6.683c-.17.089-.336.2-.5.308a12.94,12.94,0,0,1-12.639-3.32C186.584,1018.057,186.36,1014.523,187.9,1011.387Zm1.329,17.594a9.009,9.009,0,0,0,.18-3.968,14.825,14.825,0,0,0,8.273,2.474c.375,0,.758-.018,1.145-.046a8.835,8.835,0,0,0-1.5,2.731c-3.178,10.907-6.139,20.567-6.866,22.928-.342.039-.809.08-1.354.121l6.017-20.625a4.135,4.135,0,0,0-.005-3.169,2.3,2.3,0,0,0-1.517-1.073c-1.158-.287-2.705-.079-3.487,2.534l-3.91,12.8a3.047,3.047,0,0,0-1.159-.727C186.823,1037.014,188.7,1030.711,189.234,1028.981Zm4.469,19.8c4.368.6,7.5,1.333,8.986,2.176.055.031.1.059.142.085-1.1.77-4.952,1.486-10.455,2.086C192.661,1052.2,193.119,1050.7,193.7,1048.777Zm-6.536,4.569-.673.036a17.755,17.755,0,0,1,.415-4.532,10.351,10.351,0,0,0,.291-2.126l4.674-15.306c.335-1.118.692-1.332,1-1.332a1.225,1.225,0,0,1,.293.047c.29.072.351.176.37.211.1.176.156.621-.167,1.741Zm-4.493-8.722.478-.042c.15-.013.291-.02.425-.02a1.769,1.769,0,0,1,1.394.476c.483.557.538,1.761.154,3.393-.034.145-.061.287-.091.431l-9.111,1.024c-.053-.108-.1-.214-.158-.321-.527-1.009-1.18-2.441-.777-3.232.316-.621,1.337-.893,2.14-1.013l5.428-.686Zm1.991,8.928-7.316.556a17.782,17.782,0,0,0-.681-2.462l8.08-.908A20.454,20.454,0,0,0,184.665,1053.552Zm-9.136.812c-12.948.626-28.057.763-39.745.108a.913.913,0,0,0-.037-.291l-1.875-6.08c6.94-.579,15.668-.94,25.2-.987.717,0,1.426-.005,2.133-.005,4.143,0,8.1.063,11.842.177a8.834,8.834,0,0,0,1.1,3.127A15.435,15.435,0,0,1,175.529,1054.364ZM174.52,1017.5a.91.91,0,0,0-.172-.43l-2.726-3.691-1.108-10.215,8.281-1.011,1.212,10.016-1.6,4.367a.9.9,0,0,0-.05.424l3.082,25.94c-.755.079-1.807.208-3.647.474Zm-23.965,24.473c2.55-.071,5.146-.107,7.763-.107,5.847,0,11.783.184,17.5.541l.162,1.284a3.83,3.83,0,0,0-2.612,1.784c-4.846-.154-9.75-.213-14.31-.191-8.438.041-17.9.35-25.744,1.02l-.967-3.132C137.72,1042.57,143.861,1042.156,150.555,1041.971Zm-18.55,6.294,1.879,6.091c-3.6-.237-6.82-.554-9.48-.965-6.007-.927-6.442-1.942-6.455-1.949s.042-.168.417-.473C119.682,1049.9,124.685,1048.951,132.005,1048.265Zm-21.272.955c2-2.466,9.23-4.524,19.769-5.831l.95,3.082c-7.063.68-12.531,1.68-14.244,3.078-1.3,1.062-1.16,2.05-.96,2.545.383.945,1.546,3.82,27.247,4.524,3.353.092,6.885.137,10.493.137,11.442,0,23.629-.449,33.155-1.258,17.07-1.452,17.471-3.287,17.664-4.169.114-.521-.005-1.286-1.215-1.97-1.735-.982-5.073-1.754-9.352-2.352q.36-1.188.761-2.522c7.367,1.244,13.227,2.937,16.368,5.089l-10.728,7.46c-9.285,1.756-22.775,2.95-37.728,3.17-26.571.389-47-2.291-52.045-6.829C109.447,1052.095,109.406,1050.853,110.733,1049.22Zm-2.556,3.444a5.163,5.163,0,0,0,1.466,2.072c6.037,5.431,28.182,7.334,48.5,7.334,1.613,0,3.217-.012,4.8-.035,13.406-.2,27.712-1.239,37.942-3.167l9.776,4.134-27.731,67.064-11.494-3.547-1.647-12.017a.914.914,0,0,0-.771-.781l-10.434-1.568-4.51-7.026,3.617-11.116a.917.917,0,0,0-.32-1.016l-11-8.284a.918.918,0,0,0-1.082-.016l-8.871,6.291c-.827-.246-1.752-.438-2.723-.639-2.488-.516-5.307-1.1-6.276-2.683a34.329,34.329,0,0,1-1.614-4.162c-1.347-3.859-1.762-4.873-2.438-5.2a.9.9,0,0,0-.512-.083l-14.437,1.837a.917.917,0,0,0-.79.77l-1.6,10.418-7.026,4.511-10.631-3.46A72.9,72.9,0,0,1,108.177,1052.664Zm13.553,123.243-4.125-9.045a.913.913,0,0,0-.538-.486l-9.642-3.29a.914.914,0,0,0-.825.12l-8.7,6.167-9.94-7.489,3.55-10.908a.917.917,0,0,0-.1-.778l-4.97-7.74a.913.913,0,0,0-.634-.411l-10.167-1.528-1.775-12.954a41.921,41.921,0,0,1,4.875-2.037,30.839,30.839,0,0,0,3.756-1.554c2.254-1.368,2.928-4.612,3.523-7.474a26.553,26.553,0,0,1,.722-2.955.917.917,0,0,0-.121-.824l-6.166-8.7,7.488-9.941,10.908,3.551a.918.918,0,0,0,.778-.1l7.74-4.968a.918.918,0,0,0,.411-.633l1.554-10.143,13.227-1.684c.385.765,1.051,2.673,1.513,4a31.829,31.829,0,0,0,1.782,4.516c1.383,2.257,4.615,2.928,7.467,3.52a26.822,26.822,0,0,1,2.96.723.915.915,0,0,0,.823-.12l8.7-6.167,9.939,7.489-3.549,10.907a.919.919,0,0,0,.1.779l4.969,7.74a.916.916,0,0,0,.635.411l10.166,1.528,1.438,10.493-24.558-7.579a25.037,25.037,0,1,0-23.133,34.747,25.387,25.387,0,0,0,3.213-.205,24.97,24.97,0,0,0,2.734-.507,30.725,30.725,0,0,0,.212,22.668Zm20.85-58.291-11.688-3.607a9.479,9.479,0,0,0-9.817,2.715l-19.8,22.052a23.217,23.217,0,0,1,17.658-33.753,23.524,23.524,0,0,1,2.947-.187A23.265,23.265,0,0,1,142.58,1117.616Zm-26.469,32.922L131.1,1133.85l9.9,3.055a30.651,30.651,0,0,0-8.831,7.721,30.968,30.968,0,0,0-3.463,5.6,23.238,23.238,0,0,1-12.589.314Zm63.055,30.649a28.858,28.858,0,1,1-26.356-46.353,29.318,29.318,0,0,1,3.637-.227,28.861,28.861,0,0,1,22.719,46.58Zm55.236-77.422a73.578,73.578,0,0,1-48.813,69.192,30.845,30.845,0,0,0-1.522-22.761l1.515.468a9.45,9.45,0,0,0,11.519-5.418l30.2-73.035A73.25,73.25,0,0,1,234.4,1103.765Zm-6.474-35.449a.918.918,0,0,0-1.2.494l-31.316,75.735a7.616,7.616,0,0,1-9.286,4.368l-3.275-1.01a30.726,30.726,0,0,0-39.543-12.2l-12.227-3.773a.916.916,0,0,0-.952.263l-15.936,17.746a22.41,22.41,0,0,1-11.783-9.679l20.032-22.308a7.64,7.64,0,0,1,7.913-2.189l52.833,16.3a.916.916,0,0,0,1.117-.526l28.4-68.676a.917.917,0,0,0-.49-1.194l-9.343-3.951,28.655-19.926,5.662,34.44Z" fill="#fff"/>
    <path id="Trazado_915" data-name="Trazado 915" d="M169.807,1146.217a21.858,21.858,0,1,0,8.267,14.542A21.712,21.712,0,0,0,169.807,1146.217Zm2.386,29.545a20.022,20.022,0,0,1-34.522-5.186h13.564a4.65,4.65,0,0,0,9.117,0h14.764A20.1,20.1,0,0,1,172.193,1175.762Zm-19.217-6.1a2.817,2.817,0,1,1,2.818,2.817A2.822,2.822,0,0,1,152.976,1169.66Zm22.738-.916H160.352a4.628,4.628,0,0,0-.7-1.675L171.91,1159a.916.916,0,1,0-1.008-1.53l-12.59,8.286a4.641,4.641,0,0,0-7.077,2.987H137.074a20.257,20.257,0,0,1-.555-2.792A20.024,20.024,0,0,1,153.9,1143.6a20.449,20.449,0,0,1,2.524-.157,20.051,20.051,0,0,1,19.286,25.3Z" fill="#fff"/>
    <path id="Trazado_916" data-name="Trazado 916" d="M165.521,1149.187a.916.916,0,0,0-1.515-.53l-1.556,1.393a13.592,13.592,0,0,0-20.75,13.18.917.917,0,0,0,.908.8,1.118,1.118,0,0,0,.115-.007.916.916,0,0,0,.795-1.023,11.747,11.747,0,0,1,17.5-11.667l-1.462,1.309a.917.917,0,0,0,.36,1.564l5.387,1.534a.9.9,0,0,0,.251.035.916.916,0,0,0,.9-1.068Zm-3.509,3.715,1.979-1.771.414,2.453Z" fill="#fff"/>
  </g>
</svg>
