<svg xmlns="http://www.w3.org/2000/svg" width="119.78" height="138.867" viewBox="0 0 119.78 138.867">
  <g id="Grupo_646" data-name="Grupo 646" transform="translate(-1730.377 -830.82)">
    <path id="Trazado_684" data-name="Trazado 684" d="M1806.44,833.654a.653.653,0,0,0-.726-.578l-3.59.41a.656.656,0,0,0,.073,1.308.631.631,0,0,0,.075-.005l3.591-.409A.655.655,0,0,0,1806.44,833.654Z" fill="#835830"/>
    <path id="Trazado_685" data-name="Trazado 685" d="M1850.148,883.345l-4.415-26.858a.656.656,0,0,0-1.022-.432l-13.4,9.321c-2.334-1.759-6.81-3.122-12.474-4.1.766-2.555,1.647-5.523,2.553-8.634a5.861,5.861,0,0,1,2.478-2.973,9.628,9.628,0,0,0,4.571-5.6c.693-2.553.1-5.35-1.747-8.312a.651.651,0,0,0-.578-.308c-.555.019-.786.027-2.694,6.955-.1.087-.649.464-2.69.363a4.693,4.693,0,0,1-3.6-1.637,1.2,1.2,0,0,1-.3-.9c.1-.348.353-1.126.625-1.949,1.411-4.285,1.364-4.35,1.107-4.71a.692.692,0,0,0-.541-.283h-.007c-.747,0-3.76,1.477-5.465,4.338-1.153,1.932-2.026,5.1.14,9.322h0c.066.128.124.253.195.382a7.019,7.019,0,0,1,.2,3.714c-.384,1.253-1.752,5.839-3.032,10.136l-2.181-18.359,1.147-3.129a.657.657,0,0,0,.036-.3l-.966-7.98a.657.657,0,0,0-.731-.572l-7.224.882a.655.655,0,0,0-.572.722l.882,8.133a.654.654,0,0,0,.124.32l1.956,2.647,2.044,16.167c-5.851-.359-12.032-.453-17.959-.29-2.632.073-7.947.289-13.389.9l-1.4-4.539c6-7.046,12.565-5.123,12.9-5.017a.651.651,0,0,0,.416,0h0a.617.617,0,0,0,.084-.036h0a.659.659,0,0,0,.281-.273.465.465,0,0,0,.024-.05c2.484-5.536,7.294-5.3,7.5-5.292a.655.655,0,0,0,.447-1.172,23.077,23.077,0,0,0-7.031-3.279,39.76,39.76,0,0,0-19.439-.537l-.7-2.224v0h0v0a.567.567,0,0,0-.024-.056c-.009-.021-.016-.044-.027-.064s-.025-.036-.037-.054a.6.6,0,0,0-.037-.052.479.479,0,0,0-.051-.051.456.456,0,0,0-.039-.038c-.021-.016-.045-.03-.068-.044s-.024-.018-.037-.025a.68.68,0,0,0-.079-.032c-.013-.005-.025-.011-.038-.015a.76.76,0,0,0-.083-.017c-.014,0-.027-.007-.041-.008a.553.553,0,0,0-.081,0,.381.381,0,0,0-.048,0,.545.545,0,0,0-.068.014c-.02,0-.041.006-.061.012h0a.524.524,0,0,0-.054.023.568.568,0,0,0-.067.029.537.537,0,0,0-.05.034.548.548,0,0,0-.056.039.442.442,0,0,0-.043.044.49.49,0,0,0-.045.047,2.593,2.593,0,0,0-.069.1c-.01.019-.016.039-.025.059s-.017.037-.023.057-.008.042-.013.064-.009.04-.012.061,0,.043,0,.065a.451.451,0,0,0,0,.064c0,.021.008.041.012.062s.007.044.013.066l.642,2.08a19.546,19.546,0,0,0-6.359,2.7c-3.636,2.3-8.789,6.984-12.683,16.227a.656.656,0,0,0,.947.814,13.939,13.939,0,0,1,9.609-1.146h.013a.687.687,0,0,0,.128.014h0c.019,0,.036-.005.054-.006a.7.7,0,0,0,.092-.012.528.528,0,0,0,.051-.018.684.684,0,0,0,.087-.031.528.528,0,0,0,.046-.029.664.664,0,0,0,.079-.051l.005,0a.444.444,0,0,0,.047-.049c.017-.017.035-.031.05-.049a11.225,11.225,0,0,1,12.586-2.94l1.447,4.691c-6.467.807-12.821,2.2-14.782,4.616a5.007,5.007,0,0,0-.661,1.041c-.005-.016-.013-.032-.018-.048-.031.037-.069.074-.1.112a5.459,5.459,0,0,0-.507.79l-.038.035a53.519,53.519,0,0,0-15.078,30.3l-5.6,7.429a.658.658,0,0,0-.011.775l4.5,6.352c-.175.589-.313,1.251-.457,1.945-.371,1.788-.792,3.814-1.918,4.5a24.4,24.4,0,0,1-2.47,1.006c-3.4,1.275-4.27,1.675-4.37,2.378a.65.65,0,0,0,0,.182l1.38,10.066a.656.656,0,0,0,.552.56l7.471,1.123,3.23,5.03-2.591,7.959a.655.655,0,0,0,.229.727l7.874,5.932a.657.657,0,0,0,.775.011l6.344-4.5,6.318,2.155,3.039,6.663a.656.656,0,0,0,.6.384.71.71,0,0,0,.09-.006l5.322-.733a21.984,21.984,0,0,0,40.137-1.213c0,.021,0,.041,0,.062a53.939,53.939,0,0,0,31.32-74.91l6.778,2.866a.656.656,0,0,0,.9-.711ZM1785.948,842a26.67,26.67,0,0,1,4.849,1.966,9.616,9.616,0,0,0-6,4.7c-1.418-1.675-5.431-5.441-14.177-7.7A37.091,37.091,0,0,1,1785.948,842Zm-28.337,9.322a25.666,25.666,0,0,0-1.033,6.053,15.85,15.85,0,0,0-7.8.634c3.628-7.7,8.107-11.7,11.241-13.7a21.346,21.346,0,0,1,2.424-1.337A19.314,19.314,0,0,0,1757.611,851.319Zm3.058,3.479a13.014,13.014,0,0,0-2.458,1.585c.318-3.237,1.72-10.461,7.868-14.337l3.705,12.012A12.513,12.513,0,0,0,1760.669,854.8Zm7.031-12.917c8.872,1.8,13.345,5.154,15.316,7.151-2.518-.167-7.065.325-11.418,4.84C1770.9,851.674,1769.251,846.539,1767.7,841.881Zm45.677-3.062a9.371,9.371,0,0,1,3.746-3.843c-.255.852-.648,2.048-.923,2.883-.289.875-.538,1.631-.643,2.009a2.43,2.43,0,0,0,.5,2.021,5.99,5.99,0,0,0,4.6,2.18c3.3.163,3.906-.814,4.01-1.291.527-1.914,1.137-3.985,1.545-5.213a7.613,7.613,0,0,1-2.961,10.937c-.122.064-.24.144-.359.221a9.268,9.268,0,0,1-9.05-2.377C1812.431,843.6,1812.271,841.065,1813.377,838.819Zm.951,12.6a6.45,6.45,0,0,0,.13-2.841,10.607,10.607,0,0,0,5.923,1.771c.269,0,.543-.013.82-.032a6.3,6.3,0,0,0-1.074,1.955c-2.275,7.81-4.4,14.726-4.916,16.417-.245.028-.579.057-.97.086l4.309-14.768a2.962,2.962,0,0,0,0-2.269,1.651,1.651,0,0,0-1.086-.768c-.83-.205-1.937-.056-2.5,1.815l-2.8,9.167a2.2,2.2,0,0,0-.83-.52C1812.6,857.169,1813.949,852.656,1814.328,851.417Zm3.2,14.174a21.341,21.341,0,0,1,6.434,1.558c.039.022.072.042.1.061-.788.552-3.546,1.064-7.486,1.494C1816.782,868.04,1817.11,866.969,1817.529,865.591Zm-4.681,3.271-.481.026a12.674,12.674,0,0,1,.3-3.244,7.405,7.405,0,0,0,.208-1.523l3.347-10.959c.24-.8.5-.954.716-.954a.855.855,0,0,1,.209.034c.208.051.252.126.266.151.073.126.111.445-.12,1.247Zm-3.216-6.245.342-.03c.107-.009.208-.014.3-.014a1.27,1.27,0,0,1,1,.341,2.991,2.991,0,0,1,.11,2.429c-.025.1-.044.206-.065.309l-6.524.733c-.038-.077-.073-.153-.113-.23-.377-.722-.845-1.748-.556-2.314.226-.444.957-.639,1.531-.725l3.887-.491Zm1.425,6.393-5.238.4a12.681,12.681,0,0,0-.488-1.763l5.785-.65A14.8,14.8,0,0,0,1811.057,869.01Zm-6.541.582c-9.271.448-20.089.546-28.458.077a.686.686,0,0,0-.026-.209l-1.343-4.353c4.969-.414,11.218-.673,18.043-.706.513,0,1.02,0,1.527,0,2.966,0,5.8.045,8.479.127a6.319,6.319,0,0,0,.784,2.238A11.066,11.066,0,0,1,1804.516,869.592Zm-.723-26.4a.657.657,0,0,0-.123-.308l-1.952-2.642-.793-7.314,5.929-.724.868,7.171-1.147,3.127a.655.655,0,0,0-.035.3l2.206,18.573c-.54.056-1.293.149-2.611.339Zm-17.159,17.523c1.826-.051,3.685-.076,5.558-.076,4.187,0,8.437.131,12.533.387l.116.919a2.742,2.742,0,0,0-1.869,1.277c-3.47-.11-6.982-.152-10.247-.136-6.042.029-12.817.251-18.433.73l-.692-2.243C1777.444,861.147,1781.841,860.85,1786.634,860.718Zm-13.281,4.507,1.344,4.361c-2.575-.17-4.883-.4-6.787-.691-4.3-.664-4.613-1.391-4.622-1.4s.03-.12.3-.339C1764.529,866.392,1768.111,865.716,1773.353,865.225Zm-15.232.683c1.435-1.765,6.609-3.239,14.155-4.175l.68,2.207c-5.057.487-8.972,1.2-10.2,2.2-.932.76-.83,1.468-.687,1.822.274.677,1.107,2.735,19.509,3.24,2.4.065,4.93.1,7.513.1,8.193,0,16.919-.321,23.739-.9,12.223-1.039,12.51-2.353,12.648-2.984.081-.373,0-.921-.87-1.411a21.727,21.727,0,0,0-6.7-1.684q.258-.851.545-1.8c5.275.89,9.471,2.1,11.72,3.643L1822.5,871.5a168.833,168.833,0,0,1-27.013,2.269c-19.025.279-33.653-1.64-37.265-4.889C1757.2,867.967,1757.171,867.077,1758.121,865.908Zm-1.83,2.466a3.7,3.7,0,0,0,1.05,1.484c4.323,3.889,20.179,5.251,34.724,5.251,1.156,0,2.3-.008,3.437-.025a173.506,173.506,0,0,0,27.167-2.268l7,2.961-19.856,48.018-8.23-2.54-1.179-8.6a.658.658,0,0,0-.552-.56l-7.471-1.122-3.229-5.03,2.589-7.96a.656.656,0,0,0-.228-.727l-7.874-5.932a.656.656,0,0,0-.774-.011l-6.352,4.5c-.593-.176-1.255-.313-1.95-.457-1.781-.37-3.8-.789-4.494-1.922a24.461,24.461,0,0,1-1.155-2.98c-.965-2.762-1.262-3.489-1.746-3.721a.65.65,0,0,0-.367-.059l-10.337,1.315a.655.655,0,0,0-.565.552L1754.756,896l-5.032,3.23-7.611-2.477A52.2,52.2,0,0,1,1756.291,868.374Zm9.7,88.244-2.954-6.477a.649.649,0,0,0-.385-.348l-6.9-2.355a.656.656,0,0,0-.591.086l-6.227,4.415-7.117-5.362,2.541-7.81a.652.652,0,0,0-.071-.557l-3.558-5.542a.659.659,0,0,0-.455-.3L1733,931.279,1731.725,922a30.013,30.013,0,0,1,3.49-1.458,21.919,21.919,0,0,0,2.69-1.113c1.614-.979,2.1-3.3,2.522-5.352a19.215,19.215,0,0,1,.517-2.115.656.656,0,0,0-.086-.59l-4.416-6.227,5.362-7.117,7.81,2.542a.659.659,0,0,0,.557-.072l5.543-3.558a.659.659,0,0,0,.294-.452l1.112-7.263,9.471-1.206c.275.548.752,1.914,1.084,2.864a22.87,22.87,0,0,0,1.275,3.233c.991,1.616,3.3,2.1,5.346,2.52a19.342,19.342,0,0,1,2.12.518.657.657,0,0,0,.59-.086l6.226-4.415,7.117,5.361-2.541,7.81a.658.658,0,0,0,.071.558l3.558,5.542a.656.656,0,0,0,.455.294l7.279,1.094,1.029,7.513-17.583-5.426a17.927,17.927,0,1,0-16.564,24.878,18.225,18.225,0,0,0,2.3-.146,17.911,17.911,0,0,0,1.958-.363,22,22,0,0,0,.151,16.23Zm14.929-41.738-8.369-2.582a6.786,6.786,0,0,0-7.029,1.944l-14.178,15.789a16.616,16.616,0,1,1,29.576-15.151Zm-18.952,23.573,10.73-11.948,7.086,2.187a22.077,22.077,0,0,0-8.8,9.537,16.652,16.652,0,0,1-9.014.224ZM1807.12,960.4a20.662,20.662,0,1,1-18.871-33.189,20.937,20.937,0,0,1,2.6-.163A20.666,20.666,0,0,1,1807.12,960.4Zm39.55-55.435a52.684,52.684,0,0,1-34.951,49.542,22.081,22.081,0,0,0-1.09-16.3l1.085.335a6.766,6.766,0,0,0,8.248-3.879l21.623-52.294A52.457,52.457,0,0,1,1846.67,904.963Zm-4.636-25.382a.657.657,0,0,0-.862.354l-22.423,54.227a5.416,5.416,0,0,1-2.992,2.971,5.472,5.472,0,0,1-3.656.157l-2.345-.724a22,22,0,0,0-28.313-8.737l-8.755-2.7a.658.658,0,0,0-.682.189l-11.41,12.706a16.049,16.049,0,0,1-8.437-6.93l14.343-15.973a5.471,5.471,0,0,1,5.666-1.567L1810,925.225a.654.654,0,0,0,.8-.376l20.333-49.172a.655.655,0,0,0-.35-.855l-6.689-2.829,20.516-14.268,4.054,24.659Z" fill="#835830"/>
    <path id="Trazado_686" data-name="Trazado 686" d="M1800.418,935.359a15.649,15.649,0,1,0-9.619,28,15.926,15.926,0,0,0,1.952-.123,15.649,15.649,0,0,0,7.667-27.88Zm1.709,21.155a14.336,14.336,0,0,1-24.718-3.714h9.712a3.329,3.329,0,0,0,6.528,0h10.571A14.4,14.4,0,0,1,1802.127,956.514Zm-13.76-4.369a2.018,2.018,0,1,1,2.018,2.017A2.021,2.021,0,0,1,1788.367,952.145Zm16.281-.656h-11a3.327,3.327,0,0,0-.5-1.2l8.777-5.776a.656.656,0,1,0-.722-1.1l-9.015,5.933a3.323,3.323,0,0,0-5.067,2.139h-10.139a14.539,14.539,0,0,1-.4-2,14.338,14.338,0,0,1,12.448-16,14.68,14.68,0,0,1,1.807-.112,14.355,14.355,0,0,1,13.809,18.116Z" fill="#835830"/>
    <path id="Trazado_687" data-name="Trazado 687" d="M1797.35,937.486a.656.656,0,0,0-1.084-.38l-1.115,1a9.732,9.732,0,0,0-14.857,9.437.657.657,0,0,0,.65.574.561.561,0,0,0,.082-.005.655.655,0,0,0,.57-.732,8.41,8.41,0,0,1,12.527-8.353l-1.047.937a.657.657,0,0,0,.258,1.12l3.857,1.1a.656.656,0,0,0,.617-.142.657.657,0,0,0,.21-.6Zm-2.512,2.66,1.416-1.269.3,1.757Z" fill="#835830"/>
  </g>
</svg>
