<svg width="346" height="444" viewBox="0 0 346 444" fill="none" xmlns="http://www.w3.org/2000/svg">
<g clip-path="url(#clip0_11_4)">
<g opacity="0.28">
<path d="M-8.99997 187.521C15.509 169.452 41.997 155.027 69.7029 142.88C83.4035 136.807 97.8654 135.896 112.479 136.351C117.655 136.503 122.831 136.959 128.007 137.414C129.986 137.566 130.747 137.262 130.29 135.137C127.702 122.078 124.962 108.868 122.374 95.6585C122.07 93.8364 121.004 93.8364 119.634 94.1401C110.196 95.6585 100.758 97.1769 91.1673 98.2397C72.7475 100.214 54.3276 101.58 35.9078 101.428C33.1677 101.428 31.1887 100.062 30.2753 97.6324C29.0575 94.7475 29.8186 92.318 32.2543 90.1923C43.3671 80.3228 53.7187 69.5422 63.4614 58.458C78.2277 41.3002 91.7762 23.2313 104.563 4.55514C108.065 -0.455542 110.957 -1.21474 115.981 2.12572C141.708 19.739 168.5 35.6821 196.815 48.8921C202.447 51.4734 207.928 54.0546 213.712 56.484C216.757 57.6988 218.584 59.6727 218.431 62.8613C218.431 65.8981 216.452 67.872 213.56 68.9348C198.946 74.401 184.027 79.108 168.957 83.2077C158.605 85.9408 148.253 88.6739 137.597 90.496C134.705 90.9515 134.248 92.1662 134.857 94.8993C137.902 108.868 140.642 122.989 143.382 136.959C143.687 138.781 144.448 139.54 146.427 139.844C164.085 142.729 181.592 146.676 198.946 151.535C201.077 152.143 202.143 151.687 203.513 150.017C208.536 143.032 214.017 136.351 218.888 129.367C226.652 118.131 237.003 110.691 250.247 106.743C275.213 99.1508 300.179 91.2552 324.992 83.2077C330.168 81.5375 333.822 82.904 337.171 86.7C343.869 94.2919 346.761 102.947 345.391 113.12C344.782 117.22 342.803 119.194 338.997 120.408C321.491 126.178 304.137 131.948 286.63 137.718C278.41 140.451 270.19 143.64 261.969 146.525C257.25 148.195 253.596 151.08 250.552 154.876C248.268 157.761 246.137 160.797 243.702 163.682C242.027 165.656 242.636 166.415 244.615 167.175C253.901 171.122 262.578 175.678 270.494 181.903C274.148 184.788 277.497 188.128 280.237 191.924C298.657 218.648 316.011 246.131 330.016 275.436C335.648 287.279 340.824 299.426 343.869 312.333C347.675 328.731 345.543 344.826 341.433 360.769C335.192 384.912 324.383 407.08 311.444 428.186C308.551 432.741 305.507 437.296 302.615 441.851C301.701 443.37 300.636 443.977 298.809 443.977C294.699 443.825 290.588 443.977 285.869 443.977C289.066 439.27 291.958 435.17 294.699 430.919C309.922 407.536 322.557 383.09 329.559 355.91C331.843 346.952 333.213 337.842 333.213 328.579C333.213 324.935 332.908 324.783 329.407 325.694C314.488 329.339 300.331 327.213 286.63 320.532C280.693 317.647 275.213 314.003 270.19 309.751C268.515 308.385 267.145 308.385 265.318 309.144C225.282 323.872 188.747 317.343 155.713 290.62C151.45 287.279 147.645 283.483 143.534 279.839C141.86 278.321 140.033 277.561 137.75 277.865C128.311 278.928 118.873 280.446 109.283 280.598C72.7475 281.206 41.2359 268.907 15.2046 243.094C10.4855 238.387 5.91856 235.958 -0.779555 237.476C-3.51969 238.083 -6.41206 237.78 -9.30443 237.78C-9.30443 233.68 -9.30443 229.732 -9.30443 225.633C-2.91077 225.481 3.33065 223.811 9.7243 224.418C12.0078 224.57 13.8345 224.114 15.6613 223.051C27.8397 215.459 38.3435 206.045 48.8474 196.48C54.9366 191.013 60.4168 185.092 65.8971 178.866C67.8761 176.589 70.7685 176.285 72.7475 177.955C74.5742 179.474 74.8787 182.207 73.3564 184.636C72.8997 185.395 72.2908 186.003 71.8341 186.61C57.22 202.705 41.2359 217.13 23.2728 229.429C21.446 230.795 20.9893 231.402 22.9683 233.073C25.7084 235.35 28.1441 237.932 30.732 240.209C51.892 258.733 76.7054 267.388 104.563 268.147C116.285 268.451 127.855 266.325 139.424 265.111C141.099 264.959 141.708 263.744 142.316 262.529C146.883 254.026 150.537 245.068 153.429 235.806C155.713 228.669 157.692 221.381 159.518 214.093C160.28 211.056 162.411 209.538 164.999 209.993C167.739 210.449 169.109 212.878 168.652 216.067C168.5 216.522 168.5 217.13 168.348 217.585C164.238 234.439 159.062 250.838 150.841 266.174C150.232 267.388 149.776 268.299 151.146 269.514C158.757 276.195 166.064 283.483 174.741 288.798C201.229 305.196 229.24 308.537 258.62 297.908C260.447 297.301 261.208 296.693 260.295 294.567C254.51 281.965 250.247 268.907 247.355 255.393C245.985 249.016 244.919 242.487 243.854 235.958C243.397 233.225 245.224 230.947 247.812 230.643C250.552 230.34 252.226 231.858 252.988 234.439C253.292 235.502 253.444 236.565 253.596 237.628C255.728 251.293 259.229 264.655 263.644 277.713C266.688 286.52 269.733 295.023 278.562 300.337C284.195 303.678 289.371 307.777 295.46 310.511C305.964 315.066 316.62 316.28 327.732 313.092C330.016 312.484 330.777 311.573 330.016 309.144C326.21 297.149 321.034 285.609 315.402 274.221C314.641 272.703 313.727 272.703 312.357 273.31C308.551 275.132 304.746 276.954 300.788 278.624C297.895 279.991 295.003 278.928 293.937 276.65C292.872 273.917 293.937 271.336 296.982 269.97C300.483 268.299 304.137 266.629 307.638 265.111C309.617 264.352 309.769 263.289 308.704 261.77C308.247 261.011 307.79 260.404 307.486 259.493C306.572 256.911 305.202 256.456 302.615 257.671C295.612 261.011 288.457 264.048 281.302 266.933C278.105 268.299 275.67 267.085 274.604 264.655C273.539 262.074 274.604 259.796 277.801 258.43C283.281 256 288.914 253.571 294.394 251.142C301.397 248.105 301.397 248.105 297.286 241.727C296.373 240.209 295.46 239.905 293.937 240.665C290.741 242.031 287.696 243.246 284.347 244.309C281.455 245.372 279.019 244.309 278.106 241.727C277.04 239.298 278.258 236.869 280.998 235.654C283.281 234.591 285.717 233.68 288.153 232.921C290.436 232.162 290.893 231.402 289.371 229.125C283.129 219.863 277.04 210.601 271.103 201.187C269.885 199.364 268.515 199.061 266.536 199.061C246.898 199.668 227.261 198.302 207.775 195.417C182.353 191.621 157.235 185.851 132.726 178.107C115.676 172.793 99.2355 166.112 85.3825 154.572C82.1857 151.991 79.75 151.991 76.2487 153.357C60.2646 160.19 44.8894 168.086 29.9709 176.74C16.118 184.636 3.02619 193.746 -9.60889 203.464C-8.99997 198.15 -8.99997 192.835 -8.99997 187.521ZM212.951 183.421C214.017 183.877 214.626 182.51 215.539 181.447C220.867 174.007 226.195 166.719 231.523 159.279C234.416 155.331 234.416 155.483 230.914 152.143C229.088 150.32 228.783 147.436 230.458 145.613C232.284 143.488 234.416 143.336 236.699 144.702C237.46 145.158 238.069 145.613 238.678 146.221C239.896 147.284 240.657 147.132 241.875 145.917C244.767 143.336 245.681 140.755 242.94 137.566C242.636 137.262 242.636 136.807 242.332 136.351C240.961 133.163 241.723 130.43 244.31 129.367C247.051 128.152 249.334 129.367 251.009 132.555C252.988 136.655 252.988 136.503 257.098 134.985C259.381 134.074 259.686 133.011 258.772 130.885C258.316 129.822 257.859 128.759 257.707 127.545C257.25 125.115 258.316 123.141 260.751 122.23C263.187 121.471 265.166 122.23 266.384 124.508C266.993 125.571 267.449 126.634 267.754 127.696C268.363 129.974 269.276 130.278 271.56 129.519C289.979 123.293 308.399 117.068 326.819 110.994C333.822 108.717 334.583 106.895 331.234 100.062C330.929 99.3026 330.32 98.6953 330.016 97.9361C328.95 95.8103 327.428 95.6585 325.297 96.2658C301.397 103.858 277.497 111.298 253.596 118.89C246.594 121.167 239.744 123.901 234.872 129.822C221.78 145.613 210.211 162.468 197.728 178.563C196.358 180.385 197.119 180.84 198.946 181.144C203.361 181.903 207.775 182.662 212.951 183.421ZM115.524 28.3938C115.22 29.9122 114.915 30.6714 114.915 31.4306C112.784 48.5884 107.913 64.987 101.823 81.082C100.758 83.9669 101.367 84.2706 104.107 83.9669C119.33 81.8411 134.401 78.9562 149.471 75.3121C150.232 75.1602 151.45 75.3121 151.603 74.2492C151.907 73.1863 150.841 72.8826 150.232 72.2753C142.925 65.5944 136.227 58.3061 130.138 50.5623C124.81 43.8814 120.395 36.5932 115.524 28.3938ZM53.262 87.9147C65.136 87.9147 76.7054 87.0037 88.2749 85.789C89.9494 85.6371 90.4061 84.2706 90.8628 82.904C96.4953 68.783 101.214 54.3583 103.955 39.4781C104.868 34.9229 105.629 30.3678 105.325 25.6607C89.3405 47.3737 72.443 68.6312 53.262 87.9147ZM194.684 61.7984C169.87 50.5623 146.731 37.2005 123.897 22.4721C123.897 23.3832 123.897 23.6868 124.049 23.8387C133.792 41.9075 146.731 57.3951 162.563 70.4532C163.629 71.3643 164.694 71.5161 166.064 71.0606C173.219 68.9348 180.374 66.8091 187.377 64.6833C189.66 63.9242 192.096 63.4686 194.684 61.7984ZM147.188 155.027C148.101 159.431 149.015 163.986 149.776 168.389C150.08 170.06 151.298 170.363 152.516 170.667C161.802 173.096 170.936 175.526 180.374 177.5C181.896 177.803 182.962 177.651 183.875 176.437C186.615 172.641 189.356 168.997 192.248 165.201C193.313 163.834 193.161 163.075 191.487 162.619C177.482 158.975 163.476 155.939 149.319 153.205C147.797 152.902 146.883 153.357 147.188 155.027ZM100.758 148.954C100.758 149.409 100.758 149.561 100.91 149.561C111.262 156.85 122.831 161.557 134.705 165.353C136.532 165.96 136.38 164.745 136.075 163.682C135.314 160.19 134.553 156.698 133.944 153.054C133.639 151.232 132.574 150.624 131.051 150.32C121.004 149.106 110.957 148.347 100.758 148.954ZM254.814 186.61C250.247 183.27 245.985 181.447 241.723 179.474C234.263 175.981 234.263 176.133 229.849 182.966C228.631 184.94 229.392 185.395 231.066 185.395C237.156 185.851 243.093 186.154 249.182 186.458C250.704 186.762 252.226 186.61 254.814 186.61Z" fill="#A28164"/>
<path d="M-9 421.657C-6.10763 420.442 -3.97641 418.164 -1.54074 416.494C1.04717 414.824 3.48285 414.976 5.30961 416.95C6.98413 418.923 6.83191 421.657 4.39623 423.63C-0.0184383 427.123 -4.58533 430.311 -9 433.652C-9 429.856 -9 425.756 -9 421.657Z" fill="#A28164"/>
<path d="M-4.58533 443.977C6.52745 435.322 17.1835 426.667 27.5352 417.557C29.6664 415.583 32.8632 415.735 34.5377 417.405C36.5167 419.531 36.2123 422.416 33.6244 424.693C26.6218 431.071 19.1625 437.144 11.7033 443.066C10.9421 443.673 10.3332 443.977 9.41982 443.977C4.7007 443.977 0.133798 443.977 -4.58533 443.977Z" fill="#A28164"/>
<path d="M320.882 354.544C319.512 361.984 316.315 369.12 311.139 375.194C309.313 377.168 307.029 376.712 305.05 375.194C303.071 373.676 302.615 371.398 303.985 369.576C307.638 364.261 310.378 358.643 311.901 352.418C312.51 349.837 314.793 348.774 317.381 349.229C319.969 349.685 321.034 351.507 320.882 354.544Z" fill="#A28164"/>
<path d="M86.7526 256.911C79.4456 256.456 72.8997 254.027 67.2672 249.32C65.136 247.497 64.8315 244.613 66.506 242.487C68.3328 240.361 70.7685 240.209 72.7474 241.879C77.4666 245.524 82.4902 247.649 88.5793 247.649C91.4717 247.649 93.2985 249.927 93.1462 252.66C92.994 255.241 91.3195 256.76 88.2749 256.911C87.8182 256.911 87.2093 256.911 86.7526 256.911Z" fill="#A28164"/>
</g>
</g>
<defs>
<clipPath id="clip0_11_4">
<rect width="355" height="443.977" fill="white" transform="translate(-9)"/>
</clipPath>
</defs>
</svg>
