<svg width="108" height="124" viewBox="0 0 108 124" fill="none" xmlns="http://www.w3.org/2000/svg">
<path d="M55.7 95.5C82.8724 95.5 104.9 74.2783 104.9 48.1C104.9 21.9217 82.8724 0.699951 55.7 0.699951C28.5276 0.699951 6.5 21.9217 6.5 48.1C6.5 74.2783 28.5276 95.5 55.7 95.5Z" fill="#00C2D0"/>
<path d="M65.2 30.9C68.5 25.1 71.7 19.2 75 13.4C75.6 12.4 76.1 11.2 77.5 11.1C78.9 11 80.6 11.7 82 12.1C85.2 13 88.4 13.9 91.6 15C93.4 15.6 94.2 12.7 92.4 12.1C88.9 10.9 85.4 9.90001 81.9 9.00001C80.3 8.60001 78.6 8 76.9 8.2C75.4 8.4 74.3 9.2 73.4 10.4C72.5 11.6 71.8 13.1 71 14.5C70 16.2 69.1 17.9 68.1 19.6C66.3 22.9 64.4 26.2 62.6 29.4C61.7 31.1 64.3 32.6 65.2 30.9Z" fill="#A9E9DC"/>
<path d="M55.8 92.1999C47.2 91.9999 39.2 89.8999 32.7 83.8999C27.7 79.2999 24.9 73.4999 23.8 66.9999C21 50.3999 26.7 37.1999 40.4 27.4999C49.6 20.9999 62.1 21.1999 71.9 27.6999C86.8 37.6999 93 56.9999 86.3 73.5999C81.6 85.1999 72.3 90.6999 60.2 91.8999C58.7 92.0999 57.2 92.0999 55.8 92.1999Z" fill="#835730"/>
<path d="M77.9 62.8C78 60.5 77 59.1 75.3 59.2C73.1 59.2 72.5 60.8 72.4 62.6C72.2 67.5 70 71.3 65.9 74C63.1 75.9 60 76.7 56.8 77.4C55 77.8 53.9 78.8 54.3 80.6C54.7 82.4 56 83.1 57.8 82.8C59.2 82.6 60.5 82.3 61.9 81.9C71.3 79.3 77.7 71.7 77.9 62.8Z" fill="#58320E"/>
<path d="M56.2 41C57.5807 41 58.7 39.8807 58.7 38.5C58.7 37.1193 57.5807 36 56.2 36C54.8193 36 53.7 37.1193 53.7 38.5C53.7 39.8807 54.8193 41 56.2 41Z" fill="#58320E"/>
<path d="M45.8 42.8C47.1807 42.8 48.3 41.6808 48.3 40.3C48.3 38.9193 47.1807 37.8 45.8 37.8C44.4193 37.8 43.3 38.9193 43.3 40.3C43.3 41.6808 44.4193 42.8 45.8 42.8Z" fill="#58320E"/>
<path d="M53 48.8C54.3807 48.8 55.5 47.6808 55.5 46.3C55.5 44.9193 54.3807 43.8 53 43.8C51.6193 43.8 50.5 44.9193 50.5 46.3C50.5 47.6808 51.6193 48.8 53 48.8Z" fill="#58320E"/>
<path d="M7.39998 106.2C8.49998 106.2 9.49998 106.4 10.3 106.7C11.1 107 11.8 107.4 12.5 108L10.7 110.2C10.3 109.8 9.79998 109.6 9.29998 109.4C8.79998 109.2 8.09998 109 7.49998 109C6.79998 109 6.19998 109.2 5.69998 109.6C5.19998 110 4.69998 110.6 4.39998 111.4C4.09998 112.2 3.89998 113.3 3.89998 114.6C3.89998 115.9 4.09998 116.9 4.39998 117.7C4.69998 118.5 5.19998 119.1 5.69998 119.5C6.29998 119.9 6.89998 120.1 7.59998 120.1C8.39998 120.1 8.99998 120 9.59998 119.7C10.1 119.4 10.6 119.1 11 118.7L12.7 120.9C12.1 121.5 11.4 122 10.5 122.4C9.59998 122.8 8.59998 123 7.39998 123C5.99998 123 4.69998 122.7 3.59998 122C2.49998 121.4 1.59998 120.4 0.999976 119.2C0.399976 118 0.0999756 116.4 0.0999756 114.6C0.0999756 112.8 0.399976 111.3 1.09998 110.1C1.79998 108.9 2.59998 107.9 3.79998 107.3C4.69998 106.5 5.99998 106.2 7.39998 106.2Z" fill="#58320E"/>
<path d="M26.1 114.5C26.1 116.2 25.9 117.6 25.4 118.9C24.9 120.2 24.2 121.1 23.3 121.8C22.4 122.5 21.2 122.8 19.8 122.8C18.4 122.8 17.3 122.5 16.3 121.8C15.4 121.1 14.6 120.2 14.2 118.9C13.7 117.7 13.5 116.2 13.5 114.5C13.5 112.8 13.7 111.4 14.2 110.1C14.7 108.9 15.4 107.9 16.3 107.2C17.2 106.5 18.4 106.2 19.8 106.2C21.2 106.2 22.3 106.5 23.3 107.2C24.2 107.9 24.9 108.8 25.4 110.1C25.8 111.3 26.1 112.8 26.1 114.5ZM22.2 114.5C22.2 112.6 22 111.1 21.6 110.3C21.2 109.4 20.6 109 19.7 109C18.8 109 18.2 109.4 17.8 110.3C17.4 111.2 17.2 112.6 17.2 114.5C17.2 116.4 17.4 117.9 17.8 118.7C18.2 119.6 18.8 120 19.7 120C20.6 120 21.3 119.6 21.6 118.7C22 117.8 22.2 116.4 22.2 114.5Z" fill="#58320E"/>
<path d="M34.7 106.2C35.8 106.2 36.8 106.4 37.6 106.7C38.4 107 39.1 107.4 39.8 108L38 110.2C37.6 109.8 37.1 109.6 36.6 109.4C36.1 109.2 35.5 109.1 34.9 109.1C34.2 109.1 33.6 109.3 33.1 109.7C32.6 110.1 32.1 110.7 31.8 111.5C31.5 112.3 31.3 113.4 31.3 114.7C31.3 116 31.5 117 31.8 117.8C32.1 118.6 32.6 119.2 33.1 119.6C33.7 120 34.3 120.2 35 120.2C35.8 120.2 36.4 120.1 37 119.8C37.5 119.5 38 119.2 38.4 118.8L40.1 121C39.5 121.6 38.8 122.1 37.9 122.5C37 122.9 36 123.1 34.8 123.1C33.4 123.1 32.1 122.8 31 122.1C29.9 121.5 29 120.5 28.4 119.3C27.8 118.1 27.5 116.5 27.5 114.7C27.5 112.9 27.8 111.4 28.5 110.2C29.2 109 30 108 31.2 107.4C32.1 106.5 33.3 106.2 34.7 106.2Z" fill="#58320E"/>
<path d="M53.4 114.5C53.4 116.2 53.2 117.6 52.7 118.9C52.2 120.2 51.5 121.1 50.6 121.8C49.7 122.5 48.5 122.8 47.1 122.8C45.7 122.8 44.6 122.5 43.6 121.8C42.7 121.1 41.9 120.2 41.5 118.9C41 117.7 40.8 116.2 40.8 114.5C40.8 112.8 41 111.4 41.5 110.1C42 108.9 42.7 107.9 43.6 107.2C44.5 106.5 45.7 106.2 47.1 106.2C48.5 106.2 49.6 106.5 50.6 107.2C51.5 107.9 52.2 108.8 52.7 110.1C53.2 111.3 53.4 112.8 53.4 114.5ZM49.6 114.5C49.6 112.6 49.4 111.1 49 110.3C48.6 109.4 48 109 47.1 109C46.2 109 45.6 109.4 45.2 110.3C44.8 111.2 44.6 112.6 44.6 114.5C44.6 116.4 44.8 117.9 45.2 118.7C45.6 119.6 46.2 120 47.1 120C48 120 48.7 119.6 49 118.7C49.4 117.8 49.6 116.4 49.6 114.5Z" fill="#58320E"/>
<path d="M56 122.4V106.6H59.7V119.4H66.5L66.1 122.4H56Z" fill="#00C2D0"/>
<path d="M76.7 119H72.1L71.3 122.4H67.4L72.2 106.6H76.7L81.5 122.4H77.5L76.7 119ZM72.7 116.3H76.1L74.4 109.3L72.7 116.3Z" fill="#00C2D0"/>
<path d="M94.3 117.8C94.3 118.7 94.1 119.5 93.8 120.1C93.5 120.7 93 121.2 92.4 121.5C91.8 121.8 91.1 122.1 90.3 122.2C89.5 122.3 88.7 122.4 87.8 122.4H82.6V106.6H87.6C88.4 106.6 89.2 106.7 89.9 106.8C90.6 106.9 91.3 107.2 91.8 107.5C92.3 107.8 92.8 108.2 93.1 108.7C93.4 109.2 93.6 109.9 93.6 110.6C93.6 111.2 93.5 111.8 93.2 112.2C92.9 112.6 92.6 113 92.1 113.3C91.7 113.6 91.2 113.8 90.7 113.9C91.3 114 91.8 114.2 92.4 114.4C93 114.7 93.4 115.1 93.8 115.6C94.1 116.3 94.3 116.9 94.3 117.8ZM89.8 111C89.8 110.4 89.6 109.9 89.2 109.6C88.8 109.3 88.2 109.2 87.4 109.2H86.2V112.9H87.5C88.3 112.9 88.9 112.8 89.3 112.5C89.7 112.2 89.8 111.7 89.8 111ZM90.4 117.6C90.4 117 90.3 116.6 90.1 116.3C89.9 116 89.6 115.7 89.2 115.6C88.8 115.5 88.4 115.4 87.8 115.4H86.3V119.7H87.7C88.1 119.7 88.4 119.7 88.7 119.6C89 119.5 89.3 119.4 89.6 119.3C89.9 119.2 90.1 118.9 90.2 118.7C90.4 118.4 90.4 118.1 90.4 117.6Z" fill="#00C2D0"/>
<path d="M107.9 117.8C107.9 118.8 107.6 119.6 107.1 120.4C106.6 121.2 105.9 121.7 104.9 122.2C103.9 122.6 102.8 122.8 101.4 122.8C99.9 122.8 98.7 122.6 97.7 122.1C96.7 121.7 95.9 121.1 95.2 120.5L97.1 118.4C97.7 118.9 98.3 119.3 99 119.6C99.7 119.9 100.5 120 101.3 120C101.8 120 102.3 119.9 102.7 119.8C103.1 119.6 103.4 119.4 103.6 119.1C103.8 118.8 103.9 118.5 103.9 118.1C103.9 117.7 103.8 117.4 103.6 117.1C103.4 116.8 103.1 116.6 102.7 116.4C102.3 116.2 101.7 116 101 115.8C99.8 115.4 98.8 115 98 114.5C97.3 114 96.7 113.5 96.4 112.9C96.1 112.3 95.9 111.6 95.9 110.8C95.9 109.8 96.2 109 96.7 108.3C97.2 107.6 98 107.1 98.9 106.7C99.8 106.3 100.8 106.2 101.9 106.2C103.1 106.2 104.2 106.4 105.1 106.7C106 107 106.8 107.6 107.5 108.2L105.7 110.2C105.2 109.8 104.6 109.4 104 109.2C103.4 109 102.8 108.9 102.1 108.9C101.6 108.9 101.2 109 100.9 109.1C100.5 109.2 100.3 109.4 100.1 109.6C99.9 109.8 99.8 110.1 99.8 110.5C99.8 110.8 99.9 111.1 100.1 111.3C100.3 111.5 100.6 111.7 101.1 111.9C101.6 112.1 102.2 112.3 103.1 112.6C104.1 112.9 104.9 113.3 105.7 113.7C106.4 114.1 107 114.7 107.3 115.3C107.7 116 107.9 116.8 107.9 117.8Z" fill="#00C2D0"/>
</svg>
