<svg width="129" height="127" viewBox="0 0 129 127" fill="none" xmlns="http://www.w3.org/2000/svg">
<path d="M49.8509 111.303C77.3827 119.683 106.252 104.957 114.332 78.4117C122.411 51.8664 106.642 23.5537 79.1106 15.1735C51.5788 6.79343 22.7097 21.5193 14.6299 48.0646C6.55005 74.61 22.319 102.923 49.8509 111.303Z" fill="#654323"/>
<path d="M79.7874 49.0902C84.8638 44.0706 89.8907 39.2134 95.1294 34.2433C95.8637 33.5797 96.6968 32.5913 97.6711 32.8878C99.1819 33.1703 100.559 34.4764 101.921 35.246C104.922 37.0464 107.873 39.0092 110.612 41.085C112.801 42.6382 115.123 39.0871 112.935 37.5338C109.708 35.3098 106.482 33.0857 103.206 31.0241C100.043 29.1743 97.0429 27.3739 93.8305 29.7672C90.8793 31.8851 88.4294 34.6879 85.8665 37.2788C82.88 40.0957 79.8441 43.075 76.8576 45.8919C75.029 47.8193 77.7964 50.9681 79.7874 49.0902Z" fill="white"/>
<path d="M50.8395 108.055C42.1204 105.224 34.8062 100.691 30.0268 92.4942C26.4263 86.253 25.2828 79.5176 26.3349 72.5634C28.7147 54.8356 38.4509 43.2504 55.4305 37.5957C66.7127 33.7554 79.4913 37.8223 87.3701 47.4948C99.4071 62.159 99.7595 83.7346 87.7993 98.5463C79.5316 108.804 68.3837 111.621 55.6474 109.164C53.9741 108.832 52.3503 108.338 50.8395 108.055Z" fill="white"/>
<path d="M82.5045 85.0473C83.1964 82.774 82.6669 81.016 81.0431 80.5217C78.7698 79.8298 77.626 81.2559 77.0329 83.2045C75.176 88.1394 71.9283 91.2316 66.8662 92.707C63.5126 93.8154 60.0178 93.6388 56.5725 93.2998C54.6875 93.0809 53.2542 93.7092 52.9859 95.7566C52.767 97.6416 54.0307 98.736 55.9158 98.9549C57.476 99.075 58.8245 99.308 60.2718 99.2163C70.5937 99.6966 79.4613 93.8794 82.5045 85.0473Z" fill="#654323"/>
<path d="M67.1426 56.2417C68.5775 56.6785 70.0947 55.8693 70.5315 54.4344C70.9682 52.9995 70.1591 51.4823 68.7242 51.0455C67.2893 50.6088 65.772 51.4179 65.3353 52.8528C64.8985 54.2877 65.7077 55.805 67.1426 56.2417Z" fill="#654323"/>
<path d="M56.0441 54.8152C57.479 55.2519 58.9962 54.4428 59.433 53.008C59.8697 51.5731 59.0606 50.0558 57.6257 49.6191C56.1908 49.1823 54.6735 49.9915 54.2368 51.4263C53.8 52.8612 54.6092 54.3785 56.0441 54.8152Z" fill="#654323"/>
<path d="M61.473 63.2098C62.9079 63.6466 64.4252 62.8374 64.8619 61.4026C65.2987 59.9677 64.4895 58.4504 63.0546 58.0136C61.6198 57.5769 60.1025 58.3861 59.6657 59.8209C59.229 61.2558 60.0381 62.7731 61.473 63.2098Z" fill="#654323"/>
</svg>
