<svg xmlns="http://www.w3.org/2000/svg" xmlns:xlink="http://www.w3.org/1999/xlink" width="318" zoomAndPan="magnify" viewBox="0 0 238.5 223.499994" height="298" preserveAspectRatio="xMidYMid meet" version="1.0"><defs><clipPath id="0e5d1cd7db"><path d="M 0.0976562 18.515625 L 237.816406 18.515625 L 237.816406 222.628906 L 0.0976562 222.628906 Z M 0.0976562 18.515625 " clip-rule="nonzero"/></clipPath><clipPath id="aab0465f9c"><path d="M 173 0.714844 L 188 0.714844 L 188 45 L 173 45 Z M 173 0.714844 " clip-rule="nonzero"/></clipPath><clipPath id="28512cd521"><path d="M 69.742188 144 L 169 144 L 169 206.921875 L 69.742188 206.921875 Z M 69.742188 144 " clip-rule="nonzero"/></clipPath><clipPath id="43782dff8f"><path d="M 126 89.1875 L 170.976562 89.1875 L 170.976562 113 L 126 113 Z M 126 89.1875 " clip-rule="nonzero"/></clipPath></defs><path fill="#231815" d="M 69.699219 26.652344 L 166.789062 26.652344 C 167.683594 26.652344 168.410156 25.925781 168.410156 25.027344 L 168.410156 20.160156 C 168.410156 19.261719 167.683594 18.535156 166.789062 18.535156 L 69.699219 18.535156 C 68.804688 18.535156 68.078125 19.261719 68.078125 20.160156 L 68.078125 25.027344 C 68.078125 25.925781 68.804688 26.652344 69.699219 26.652344 " fill-opacity="1" fill-rule="nonzero"/><g clip-path="url(#0e5d1cd7db)"><path fill="#231815" d="M 212.542969 214.511719 L 25.378906 214.511719 C 15.898438 214.511719 8.21875 206.828125 8.21875 197.351562 L 8.21875 83.117188 L 229.699219 83.117188 L 229.699219 197.351562 C 229.699219 206.828125 222.019531 214.511719 212.542969 214.511719 Z M 212.542969 18.535156 L 194.386719 18.535156 C 193.492188 18.535156 192.765625 19.261719 192.765625 20.15625 L 192.765625 25.027344 C 192.765625 25.925781 193.492188 26.652344 194.386719 26.652344 L 212.542969 26.652344 C 222.007812 26.652344 229.699219 34.347656 229.699219 43.828125 L 229.699219 75 L 8.21875 75 L 8.21875 43.828125 C 8.21875 34.347656 15.914062 26.652344 25.378906 26.652344 L 42.101562 26.652344 C 42.996094 26.652344 43.722656 25.925781 43.722656 25.027344 L 43.722656 20.15625 C 43.722656 19.261719 42.996094 18.535156 42.101562 18.535156 L 25.378906 18.535156 C 11.449219 18.535156 0.0976562 29.882812 0.0976562 43.828125 L 0.0976562 197.351562 C 0.0976562 211.253906 11.472656 222.628906 25.378906 222.628906 L 212.542969 222.628906 C 226.445312 222.628906 237.820312 211.253906 237.820312 197.351562 L 237.820312 43.828125 C 237.820312 29.882812 226.46875 18.535156 212.542969 18.535156 " fill-opacity="1" fill-rule="nonzero"/></g><path fill="#231815" d="M 55.898438 46.410156 C 59.925781 46.410156 63.207031 43.148438 63.207031 39.105469 L 63.207031 10.09375 C 63.207031 6.050781 59.925781 2.785156 55.898438 2.785156 C 51.859375 2.785156 48.59375 6.050781 48.59375 10.09375 L 48.59375 39.105469 C 48.59375 43.148438 51.859375 46.410156 55.898438 46.410156 " fill-opacity="1" fill-rule="nonzero"/><g clip-path="url(#aab0465f9c)"><path fill="#231815" d="M 180.589844 44.414062 C 184.617188 44.414062 187.894531 41.132812 187.894531 37.105469 L 187.894531 8.078125 C 187.894531 4.050781 184.617188 0.773438 180.589844 0.773438 C 176.546875 0.773438 173.285156 4.050781 173.285156 8.078125 L 173.285156 37.105469 C 173.285156 41.132812 176.546875 44.414062 180.589844 44.414062 " fill-opacity="1" fill-rule="nonzero"/></g><g clip-path="url(#28512cd521)"><path fill="#000000" d="M 167.617188 144.839844 C 159.726562 145.921875 157.511719 149.476562 145.574219 149.476562 C 131.371094 149.476562 131.160156 144.496094 118.015625 144.496094 C 104.867188 144.496094 104.671875 149.476562 90.460938 149.476562 C 79.8125 149.476562 76.804688 146.613281 70.84375 145.277344 C 70.054688 150.054688 69.753906 154.902344 69.949219 159.78125 C 71.007812 186.089844 92.753906 206.871094 119.269531 206.871094 C 145.753906 206.871094 167.527344 186.109375 168.582031 159.78125 C 168.785156 154.75 168.460938 149.757812 167.617188 144.839844 Z M 92.613281 163.109375 C 91.335938 163.109375 90.296875 162.074219 90.296875 160.804688 C 90.296875 159.535156 91.335938 158.5 92.613281 158.5 C 93.890625 158.5 94.933594 159.535156 94.933594 160.804688 C 94.933594 162.074219 93.890625 163.109375 92.613281 163.109375 Z M 101.886719 181.535156 C 100.609375 181.535156 99.566406 180.5 99.566406 179.230469 C 99.566406 177.964844 100.609375 176.929688 101.886719 176.929688 C 103.160156 176.929688 104.203125 177.960938 104.203125 179.230469 C 104.203125 180.5 103.164062 181.535156 101.886719 181.535156 Z M 118.109375 172.320312 C 116.832031 172.320312 115.792969 171.289062 115.792969 170.019531 C 115.792969 168.75 116.832031 167.714844 118.109375 167.714844 C 119.386719 167.714844 120.425781 168.75 120.425781 170.019531 C 120.425781 171.289062 119.386719 172.320312 118.109375 172.320312 Z M 136.648438 186.140625 C 135.375 186.140625 134.332031 185.109375 134.332031 183.839844 C 134.332031 182.570312 135.371094 181.535156 136.648438 181.535156 C 137.925781 181.535156 138.96875 182.570312 138.96875 183.839844 C 138.96875 185.109375 137.925781 186.140625 136.648438 186.140625 Z M 148.238281 160.804688 C 146.960938 160.804688 145.921875 159.769531 145.921875 158.5 C 145.921875 157.234375 146.960938 156.199219 148.238281 156.199219 C 149.515625 156.199219 150.554688 157.230469 150.554688 158.5 C 150.554688 159.769531 149.515625 160.804688 148.238281 160.804688 Z M 148.238281 160.804688 " fill-opacity="1" fill-rule="nonzero"/></g><g clip-path="url(#43782dff8f)"><path fill="#000000" d="M 168.867188 93.980469 L 142.605469 98.074219 C 141.214844 98.292969 140.015625 99.109375 139.3125 100.320312 L 132.261719 112.433594 L 126.90625 112.433594 L 135.300781 98.011719 C 136.707031 95.59375 139.109375 93.957031 141.886719 93.523438 L 168.148438 89.429688 C 169.414062 89.234375 170.597656 90.089844 170.796875 91.347656 C 170.996094 92.605469 170.132812 93.78125 168.867188 93.980469 Z M 168.867188 93.980469 " fill-opacity="1" fill-rule="nonzero"/></g><path fill="#000000" d="M 159.707031 118.617188 C 159.390625 117.675781 158.503906 117.042969 157.507812 117.042969 L 81.027344 117.042969 C 80.027344 117.042969 79.140625 117.675781 78.828125 118.617188 C 74.058594 133.082031 72.988281 135.402344 71.742188 140.757812 C 78.375 142.21875 80.621094 144.867188 90.460938 144.867188 C 103.625 144.867188 103.78125 139.886719 118.015625 139.886719 C 132.226562 139.886719 132.410156 144.867188 145.574219 144.867188 C 156.535156 144.867188 158.171875 141.5625 166.6875 140.316406 C 165.492188 135.316406 164.539062 133.234375 159.707031 118.617188 Z M 159.707031 118.617188 " fill-opacity="1" fill-rule="nonzero"/></svg>