<svg width="411" height="515" viewBox="0 0 411 515" fill="none" xmlns="http://www.w3.org/2000/svg">
<g clip-path="url(#clip0_11_40)">
<g opacity="0.28">
<path d="M411 217.132C382.625 196.212 351.959 179.512 319.882 165.449C304.02 158.417 287.277 157.363 270.358 157.89C264.365 158.066 258.373 158.593 252.381 159.121C250.09 159.296 249.209 158.945 249.737 156.484C252.733 141.366 255.906 126.072 258.902 110.778C259.254 108.669 260.488 108.669 262.074 109.02C273.001 110.778 283.928 112.536 295.032 113.767C316.357 116.052 337.683 117.634 359.008 117.458C362.181 117.458 364.472 115.876 365.529 113.063C366.939 109.723 366.058 106.911 363.238 104.45C350.372 93.0232 338.388 80.542 327.108 67.7093C310.013 47.8449 294.327 26.9258 279.522 5.3035C275.469 -0.497602 272.12 -1.37656 266.304 2.49084C236.519 22.8826 205.5 41.3406 172.719 56.6345C166.198 59.6229 159.853 62.6114 153.156 65.424C149.631 66.8303 147.516 69.1156 147.692 72.8072C147.692 76.323 149.983 78.6083 153.332 79.8389C170.251 86.1673 187.523 91.6169 204.971 96.3632C216.956 99.5274 228.94 102.692 241.278 104.801C244.626 105.329 245.155 106.735 244.45 109.899C240.925 126.072 237.753 142.42 234.58 158.593C234.228 160.703 233.347 161.582 231.055 161.933C210.611 165.273 190.343 169.844 170.251 175.469C167.784 176.172 166.55 175.645 164.964 173.711C159.148 165.625 152.803 157.89 147.164 149.804C138.175 136.795 126.19 128.181 110.857 123.611C81.9534 114.821 53.0494 105.68 24.3217 96.3632C18.3295 94.4295 14.0996 96.0116 10.2223 100.406C2.46753 109.196 -0.881104 119.216 0.705078 130.994C1.41006 135.74 3.70123 138.026 8.1073 139.432C28.3753 146.112 48.4671 152.792 68.7351 159.472C78.2523 162.636 87.7694 166.328 97.2866 169.668C102.75 171.602 106.98 174.942 110.505 179.337C113.148 182.677 115.616 186.192 118.436 189.532C120.374 191.818 119.669 192.697 117.378 193.576C106.627 198.146 96.5816 203.42 87.4169 210.627C83.1871 213.967 79.3097 217.835 76.1373 222.23C54.8119 253.169 34.7201 284.987 18.5057 318.915C11.9847 332.626 5.9924 346.69 2.46753 361.632C-1.93857 380.617 0.528839 399.251 5.28741 417.709C12.5134 445.66 25.0267 471.325 40.0074 495.76C43.356 501.034 46.8809 506.308 50.2295 511.581C51.287 513.339 52.5207 514.042 54.6356 514.042C59.3942 513.867 64.1528 514.042 69.6163 514.042C65.9152 508.593 62.5666 503.847 59.3942 498.924C41.7698 471.853 27.1416 443.55 19.0344 412.084C16.3908 401.712 14.8046 391.165 14.8046 380.441C14.8046 376.222 15.157 376.047 19.2107 377.101C36.4825 381.32 52.8732 378.859 68.7351 371.124C75.6086 367.784 81.9534 363.565 87.7694 358.643C89.7081 357.061 91.2943 357.061 93.4092 357.94C139.761 374.992 182.06 367.433 220.305 336.494C225.239 332.626 229.645 328.231 234.404 324.012C236.343 322.255 238.458 321.376 241.101 321.727C252.028 322.958 262.956 324.716 274.059 324.891C316.357 325.595 352.84 311.356 382.977 281.471C388.441 276.022 393.728 273.209 401.483 274.967C404.655 275.67 408.004 275.318 411.353 275.318C411.353 270.572 411.353 266.001 411.353 261.255C403.95 261.079 396.724 259.146 389.322 259.849C386.678 260.025 384.564 259.497 382.449 258.267C368.349 249.477 356.188 238.578 344.028 227.503C336.978 221.175 330.633 214.319 324.288 207.112C321.997 204.475 318.648 204.123 316.357 206.057C314.242 207.815 313.89 210.979 315.652 213.792C316.181 214.671 316.886 215.374 317.415 216.077C334.334 234.711 352.84 251.411 373.636 265.65C375.751 267.232 376.28 267.935 373.989 269.869C370.817 272.506 367.997 275.494 365.001 278.131C340.503 299.578 311.775 309.598 279.522 310.477C265.952 310.828 252.557 308.367 239.163 306.961C237.224 306.785 236.519 305.379 235.814 303.972C230.527 294.128 226.297 283.756 222.948 273.033C220.305 264.771 218.013 256.333 215.898 247.895C215.017 244.379 212.55 242.621 209.554 243.149C206.381 243.676 204.795 246.489 205.324 250.18C205.5 250.708 205.5 251.411 205.676 251.938C210.435 271.451 216.427 290.436 225.944 308.191C226.649 309.598 227.178 310.652 225.592 312.059C216.78 319.793 208.32 328.231 198.274 334.384C167.608 353.37 135.179 357.237 101.164 344.932C99.049 344.228 98.1678 343.525 99.2253 341.064C105.923 326.474 110.857 311.356 114.206 295.71C115.792 288.327 117.026 280.768 118.26 273.209C118.788 270.045 116.673 267.408 113.677 267.056C110.505 266.705 108.566 268.463 107.685 271.451C107.332 272.682 107.156 273.912 106.98 275.143C104.513 290.964 100.459 306.433 95.3479 321.551C91.823 331.747 88.2982 341.592 78.076 347.744C71.555 351.612 65.5627 356.358 58.513 359.522C46.3522 364.796 34.0151 366.202 21.1494 362.511C18.5057 361.808 17.6245 360.753 18.5057 357.94C22.9118 344.053 28.9041 330.693 35.425 317.508C36.3063 315.75 37.3637 315.75 38.9499 316.453C43.356 318.563 47.7621 320.672 52.3445 322.606C55.6931 324.188 59.0417 322.958 60.2754 320.321C61.5091 317.157 60.2754 314.168 56.7505 312.586C52.6969 310.652 48.4671 308.719 44.4135 306.961C42.1223 306.082 41.9461 304.851 43.1798 303.093C43.7085 302.214 44.2373 301.511 44.5898 300.456C45.6472 297.468 47.2334 296.941 50.2295 298.347C58.3367 302.214 66.6202 305.73 74.9036 309.07C78.6047 310.652 81.4247 309.246 82.6584 306.433C83.8921 303.445 82.6584 300.808 78.9572 299.226C72.6125 296.413 66.0915 293.601 59.7467 290.788C51.6395 287.272 51.6395 287.272 56.3981 279.889C57.4555 278.131 58.513 277.779 60.2754 278.658C63.9765 280.241 67.5014 281.647 71.3788 282.877C74.7274 284.108 77.5473 282.877 78.6047 279.889C79.8384 277.076 78.4285 274.264 75.2561 272.857C72.6125 271.627 69.7926 270.572 66.9727 269.693C64.329 268.814 63.8003 267.935 65.5627 265.298C72.7887 254.575 79.8384 243.852 86.7119 232.953C88.1219 230.843 89.7081 230.492 91.9993 230.492C114.735 231.195 137.47 229.613 160.029 226.273C189.462 221.878 218.542 215.198 246.917 206.233C266.657 200.08 285.691 192.345 301.729 178.985C305.43 175.997 308.25 175.997 312.304 177.579C330.809 185.489 348.61 194.63 365.882 204.65C381.92 213.792 397.077 224.339 411.705 235.59C411 229.437 411 223.284 411 217.132ZM154.037 212.385C152.803 212.913 152.098 211.33 151.041 210.1C144.872 201.486 138.704 193.048 132.535 184.434C129.187 179.864 129.187 180.04 133.24 176.172C135.355 174.063 135.708 170.723 133.769 168.613C131.654 166.152 129.187 165.976 126.543 167.559C125.662 168.086 124.957 168.613 124.252 169.316C122.842 170.547 121.961 170.371 120.551 168.965C117.202 165.976 116.145 162.988 119.317 159.296C119.669 158.945 119.669 158.417 120.022 157.89C121.608 154.198 120.727 151.034 117.731 149.804C114.558 148.397 111.915 149.804 109.976 153.495C107.685 158.242 107.685 158.066 102.926 156.308C100.283 155.253 99.9302 154.023 100.988 151.562C101.516 150.331 102.045 149.1 102.221 147.694C102.75 144.882 101.516 142.596 98.6965 141.541C95.8766 140.663 93.5854 141.541 92.1755 144.178C91.4706 145.409 90.9418 146.639 90.5893 147.87C89.8843 150.507 88.8269 150.858 86.1832 149.979C64.8577 142.772 43.5323 135.565 22.2068 128.533C14.0996 125.896 13.2184 123.787 17.0957 115.876C17.4482 114.997 18.1532 114.294 18.5057 113.415C19.7394 110.954 21.5018 110.778 23.9692 111.481C51.6395 120.271 79.3097 128.885 106.98 137.674C115.087 140.311 123.018 143.475 128.658 150.331C143.815 168.613 157.209 188.126 171.661 206.76C173.248 208.869 172.366 209.397 170.251 209.748C165.14 210.627 160.029 211.506 154.037 212.385ZM266.833 32.9027C267.185 34.6606 267.538 35.5395 267.538 36.4185C270.005 56.2829 275.645 75.2683 282.695 93.9021C283.928 97.2422 283.224 97.5937 280.051 97.2422C262.427 94.7811 244.979 91.4411 227.531 87.2221C226.649 87.0463 225.239 87.2221 225.063 85.9916C224.711 84.761 225.944 84.4094 226.649 83.7063C235.109 75.9715 242.864 67.5335 249.913 58.5682C256.082 50.8334 261.193 42.3954 266.833 32.9027ZM338.916 101.813C325.169 101.813 311.775 100.758 298.38 99.3517C296.442 99.1759 295.913 97.5937 295.384 96.0116C288.863 79.6631 283.4 62.9629 280.227 45.7354C279.17 40.4617 278.289 35.188 278.641 29.7384C297.147 54.8765 316.71 79.4873 338.916 101.813ZM175.186 71.5767C203.914 58.5682 230.703 43.0986 257.139 26.0468C257.139 27.1016 257.139 27.4532 256.963 27.6289C245.684 48.5481 230.703 66.4787 212.374 81.5968C211.14 82.6515 209.906 82.8273 208.32 82.2999C200.037 79.8389 191.753 77.3778 183.646 74.9167C181.002 74.0378 178.182 73.5104 175.186 71.5767ZM230.174 179.512C229.117 184.61 228.059 189.884 227.178 194.982C226.826 196.916 225.416 197.267 224.006 197.619C213.255 200.431 202.68 203.244 191.753 205.529C189.991 205.881 188.757 205.705 187.7 204.299C184.527 199.904 181.355 195.685 178.006 191.29C176.772 189.708 176.949 188.829 178.887 188.302C195.102 184.083 211.316 180.567 227.707 177.403C229.469 177.051 230.527 177.579 230.174 179.512ZM283.928 172.481C283.928 173.008 283.928 173.184 283.752 173.184C271.768 181.622 258.373 187.071 244.626 191.466C242.511 192.169 242.687 190.763 243.04 189.532C243.921 185.489 244.802 181.446 245.507 177.227C245.86 175.118 247.094 174.414 248.856 174.063C260.488 172.656 272.12 171.778 283.928 172.481ZM105.57 216.077C110.857 212.209 115.792 210.1 120.727 207.815C129.363 203.771 129.363 203.947 134.474 211.858C135.884 214.143 135.003 214.671 133.064 214.671C126.014 215.198 119.141 215.549 112.091 215.901C110.329 216.253 108.566 216.077 105.57 216.077Z" fill="#A28164"/>
<path d="M411 488.201C407.651 486.795 405.184 484.158 402.364 482.224C399.368 480.291 396.548 480.466 394.433 482.752C392.494 485.037 392.671 488.201 395.491 490.486C400.602 494.53 405.889 498.221 411 502.089C411 497.694 411 492.948 411 488.201Z" fill="#A28164"/>
<path d="M405.889 514.042C393.023 504.022 380.686 494.002 368.702 483.455C366.234 481.17 362.533 481.345 360.595 483.279C358.303 485.74 358.656 489.08 361.652 491.717C369.759 499.1 378.395 506.132 387.031 512.988C387.912 513.691 388.617 514.042 389.675 514.042C395.138 514.042 400.426 514.042 405.889 514.042Z" fill="#A28164"/>
<path d="M29.0804 410.502C30.6666 419.115 34.3677 427.378 40.36 434.409C42.4749 436.695 45.1186 436.167 47.4097 434.409C49.7009 432.651 50.2296 430.014 48.6434 427.905C44.4136 421.752 41.2412 415.248 39.4788 408.041C38.7738 405.052 36.1302 403.822 33.134 404.349C30.1379 404.876 28.9042 406.986 29.0804 410.502Z" fill="#A28164"/>
<path d="M300.143 297.468C308.603 296.941 316.181 294.128 322.702 288.679C325.17 286.569 325.522 283.229 323.583 280.768C321.468 278.307 318.649 278.131 316.357 280.065C310.894 284.284 305.078 286.745 298.028 286.745C294.679 286.745 292.565 289.382 292.741 292.546C292.917 295.534 294.856 297.292 298.381 297.468C298.909 297.468 299.614 297.468 300.143 297.468Z" fill="#A28164"/>
</g>
</g>
<defs>
<clipPath id="clip0_11_40">
<rect width="411" height="514.013" fill="white" transform="matrix(-1 0 0 1 411 0.0297699)"/>
</clipPath>
</defs>
</svg>
