<svg width="618" height="142" viewBox="0 0 618 142" fill="none" xmlns="http://www.w3.org/2000/svg">
<path d="M311.409 141.159C351.837 141.159 384.611 109.56 384.611 70.5796C384.611 31.5996 351.837 0 311.409 0C270.98 0 238.206 31.5996 238.206 70.5796C238.206 109.56 270.98 141.159 311.409 141.159Z" fill="#00C2D0"/>
<path d="M326.192 45.543C330.961 36.7205 335.73 28.1365 340.737 19.3141C341.453 18.1218 342.168 16.4527 343.599 16.4527C345.745 16.2143 348.129 17.4065 350.275 17.8834C355.044 19.0756 359.813 20.5063 364.343 22.1754C367.92 23.3676 369.589 17.6449 366.013 16.4527C360.767 14.7836 355.521 13.1145 350.275 11.6838C345.268 10.4916 340.499 9.29939 337.161 13.8298C334.061 17.8834 331.915 22.6523 329.53 27.1827C326.669 32.1901 323.808 37.4359 320.947 42.4432C319.277 45.7814 324.285 48.8812 326.192 45.543Z" fill="white"/>
<path d="M311.409 136.39C298.533 136.152 286.849 133.052 277.073 123.991C269.681 117.076 265.389 108.492 263.958 98.716C259.905 73.9178 268.25 54.3653 288.756 39.8202C302.348 30.044 321.185 30.2824 335.73 40.0586C357.905 54.8422 367.205 83.694 357.19 108.492C350.275 125.66 336.445 134.006 318.324 135.913C315.939 136.39 313.555 136.39 311.409 136.39Z" fill="white"/>
<path d="M344.553 92.5166C344.553 89.1783 343.122 87.0323 340.737 87.0323C337.399 87.0323 336.445 89.4168 336.445 92.2781C335.969 99.6699 332.869 105.154 326.669 109.208C322.616 112.069 317.847 113.261 313.078 114.215C310.455 114.692 308.786 116.123 309.263 118.984C309.74 121.607 311.886 122.561 314.508 122.084C316.654 121.607 318.562 121.368 320.47 120.653C334.538 117.076 344.076 105.869 344.553 92.5166Z" fill="#654323"/>
<path d="M312.124 60.0881C314.231 60.0881 315.939 58.38 315.939 56.2729C315.939 54.1659 314.231 52.4578 312.124 52.4578C310.017 52.4578 308.309 54.1659 308.309 56.2729C308.309 58.38 310.017 60.0881 312.124 60.0881Z" fill="#654323"/>
<path d="M296.625 62.9494C298.732 62.9494 300.44 61.2413 300.44 59.1343C300.44 57.0273 298.732 55.3192 296.625 55.3192C294.518 55.3192 292.81 57.0273 292.81 59.1343C292.81 61.2413 294.518 62.9494 296.625 62.9494Z" fill="#654323"/>
<path d="M307.355 71.7719C309.462 71.7719 311.17 70.0638 311.17 67.9567C311.17 65.8497 309.462 64.1416 307.355 64.1416C305.248 64.1416 303.54 65.8497 303.54 67.9567C303.54 70.0638 305.248 71.7719 307.355 71.7719Z" fill="#654323"/>
<path d="M31.4747 35.0514C36.482 35.0514 40.5356 35.7667 44.1123 36.9589C47.4505 38.1512 50.7887 40.0587 53.65 42.4432L45.7814 51.981C43.8738 50.3118 41.7278 49.1196 39.5818 48.4043C37.1973 47.4505 34.8129 46.9736 32.19 46.9736C29.3287 46.9736 26.7058 47.689 24.3213 49.3581C21.9369 51.0272 20.0293 53.6501 18.5986 56.9883C17.168 60.565 16.4527 65.0954 16.4527 70.5796C16.4527 76.0639 17.168 80.5943 18.5986 84.171C20.0293 87.7476 21.9369 90.1321 24.3213 91.8012C26.7058 93.4703 29.5671 94.1856 32.6669 94.1856C36.0051 94.1856 38.8664 93.4703 41.2509 92.2781C43.6353 91.0859 45.5429 89.6552 47.4505 87.9861L54.8423 97.2854C52.2194 99.9083 49.1196 102.054 45.3045 103.723C41.4894 105.631 36.9589 106.346 31.7131 106.346C25.5135 106.346 20.0293 104.916 15.2604 102.293C10.4915 99.4314 6.67644 95.3779 4.05355 90.1321C1.43066 84.6479 0 78.2099 0 70.3412C0 62.711 1.43064 56.273 4.29197 50.7887C7.15331 45.3045 10.9684 41.251 15.7373 38.6281C19.7909 36.4821 25.2751 35.0514 31.4747 35.0514Z" fill="#654323"/>
<path d="M110.638 71.0565C110.638 78.2099 109.685 84.6479 107.539 90.1321C105.393 95.6163 102.293 99.6699 98.2392 102.77C94.1857 105.869 89.1783 107.3 82.9787 107.3C77.0176 107.3 72.0103 105.869 67.9568 103.008C63.9032 100.147 60.8034 95.8548 58.6574 90.609C56.5114 85.1247 55.5576 78.9252 55.5576 71.295C55.5576 64.1416 56.5114 57.7036 58.6574 52.2194C60.8034 46.7352 63.9032 42.6816 67.9568 39.5818C72.0103 36.4821 77.0176 35.0514 82.9787 35.0514C88.9399 35.0514 93.9472 36.4821 98.2392 39.3434C102.293 42.2047 105.393 46.4967 107.539 51.7425C109.685 57.2267 110.638 63.6647 110.638 71.0565ZM93.9472 71.0565C93.9472 62.711 92.9934 56.5114 91.3243 52.6963C89.6552 48.8812 86.7939 46.9736 82.9787 46.9736C79.1636 46.9736 76.3023 48.8812 74.6332 52.6963C72.9641 56.5114 72.0103 62.711 72.0103 71.0565C72.0103 79.4021 72.9641 85.6016 74.6332 89.4168C76.3023 93.2319 79.1636 95.1394 82.9787 95.1394C87.0323 95.1394 89.6552 93.2319 91.3243 89.4168C93.2319 85.6016 93.9472 79.4021 93.9472 71.0565Z" fill="#654323"/>
<path d="M146.405 35.0514C151.412 35.0514 155.466 35.7667 159.043 36.9589C162.381 38.1512 165.719 40.0587 168.58 42.4432L160.712 51.981C158.804 50.3118 156.658 49.1196 154.512 48.4043C152.128 47.4505 149.743 46.9736 147.12 46.9736C144.259 46.9736 141.636 47.689 139.252 49.3581C136.867 51.0272 134.96 53.6501 133.529 56.9883C132.098 60.565 131.383 65.0954 131.383 70.5796C131.383 76.0639 132.098 80.5943 133.529 84.171C134.96 87.7476 136.867 90.1321 139.252 91.8012C141.636 93.4703 144.497 94.1856 147.597 94.1856C150.935 94.1856 153.797 93.4703 156.181 92.2781C158.566 91.0859 160.473 89.6552 162.381 87.9861L169.773 97.2854C167.15 99.9083 164.05 102.054 160.235 103.723C156.42 105.631 151.889 106.346 146.643 106.346C140.444 106.346 134.96 104.916 130.191 102.293C125.422 99.4314 121.607 95.3779 118.984 90.1321C116.361 84.6479 114.93 78.2099 114.93 70.3412C114.93 62.711 116.361 56.273 119.222 50.7887C122.084 45.543 125.899 41.251 130.668 38.6281C134.96 36.4821 140.205 35.0514 146.405 35.0514Z" fill="#654323"/>
<path d="M225.569 71.0565C225.569 78.2099 224.615 84.6479 222.469 90.1321C220.323 95.6163 217.223 99.6699 213.169 102.77C209.116 105.869 204.109 107.3 197.909 107.3C191.948 107.3 186.941 105.869 182.887 103.008C178.833 100.147 175.734 95.8548 173.588 90.609C171.442 85.1247 170.488 78.9252 170.488 71.295C170.488 64.1416 171.442 57.7036 173.588 52.2194C175.734 46.7352 178.833 42.6816 182.887 39.5818C186.941 36.4821 191.948 35.0514 197.909 35.0514C203.87 35.0514 208.877 36.4821 213.169 39.3434C217.223 42.2047 220.323 46.4967 222.469 51.7425C224.615 57.2267 225.569 63.6647 225.569 71.0565ZM208.878 71.0565C208.878 62.711 207.924 56.5114 206.255 52.6963C204.585 48.8812 201.724 46.9736 197.909 46.9736C194.094 46.9736 191.233 48.8812 189.563 52.6963C187.894 56.5114 186.941 62.711 186.941 71.0565C186.941 79.4021 187.894 85.6016 189.563 89.4168C191.233 93.2319 194.094 95.1394 197.909 95.1394C201.963 95.1394 204.585 93.2319 206.255 89.4168C208.162 85.6016 208.878 79.4021 208.878 71.0565Z" fill="#654323"/>
<path d="M397.726 105.393V36.7206H413.94V92.5166H443.746L442.076 105.393H397.726Z" fill="#00C2D0"/>
<path d="M485.473 90.609H465.444L461.867 105.393H444.938L465.921 36.7206H485.712L506.695 105.393H489.288L485.473 90.609ZM468.067 78.9253H482.85L475.459 48.4043L468.067 78.9253Z" fill="#00C2D0"/>
<path d="M560.106 85.3633C560.106 89.4168 559.391 92.5166 557.722 95.1395C556.291 97.7624 554.145 99.9084 551.522 101.339C548.9 102.77 545.8 103.962 542.462 104.439C539.123 105.154 535.547 105.393 531.732 105.393H508.841V36.7206H530.539C534.116 36.7206 537.454 36.959 540.554 37.6743C543.654 38.1512 546.515 39.105 548.9 40.5357C551.284 41.9663 553.192 43.6354 554.622 46.0199C556.053 48.1659 556.768 51.0272 556.768 54.3655C556.768 57.2268 556.291 59.3728 555.099 61.5188C553.907 63.4264 552.476 65.0955 550.569 66.5261C548.661 67.7184 546.515 68.6721 544.369 69.3875C546.754 69.8644 549.138 70.5797 551.522 71.7719C553.907 72.9641 555.814 74.6333 557.484 76.7793C559.153 78.6868 560.106 81.7866 560.106 85.3633ZM540.792 56.0346C540.792 53.4117 539.839 51.2657 538.17 50.0735C536.5 48.8812 533.878 48.1659 530.301 48.1659H525.294V64.1417H530.778C534.354 64.1417 536.739 63.4264 538.408 62.2341C539.839 61.0419 540.792 58.8959 540.792 56.0346ZM543.177 84.6479C543.177 82.2635 542.7 80.3559 541.746 78.9253C540.792 77.4946 539.6 76.5408 537.693 75.8255C536.024 75.3486 534.116 74.8717 531.732 74.8717H525.055V93.4704H531.016C532.685 93.4704 534.116 93.4704 535.547 93.2319C536.977 92.9935 538.17 92.5166 539.362 92.0397C540.554 91.3244 541.508 90.609 541.985 89.4168C542.938 88.2246 543.177 86.5555 543.177 84.6479Z" fill="#00C2D0"/>
<path d="M617.333 85.3632C617.333 89.6552 616.141 93.4703 613.995 96.5701C611.849 99.9083 608.511 102.293 604.457 104.2C600.404 106.108 595.396 107.062 589.435 107.062C582.997 107.062 577.513 106.108 573.221 104.2C568.929 102.293 565.114 99.9083 562.252 97.047L570.598 87.9861C573.221 90.1321 575.844 91.8012 578.944 93.2319C582.043 94.4241 585.382 95.1394 588.958 95.1394C591.343 95.1394 593.25 94.901 594.919 94.1856C596.588 93.4703 598.019 92.5165 598.973 91.3243C599.927 90.1321 600.404 88.463 600.404 86.7939C600.404 85.1248 599.927 83.6941 599.211 82.5019C598.496 81.3097 597.065 80.3559 595.396 79.4021C593.489 78.4483 591.104 77.4945 588.005 76.5408C582.759 74.8716 578.228 72.9641 575.128 71.0565C571.79 69.149 569.406 66.7645 567.975 64.1416C566.544 61.5187 565.829 58.419 565.829 55.0807C565.829 50.7887 567.021 47.2121 569.406 44.3507C571.79 41.4894 574.89 39.1049 578.705 37.4358C582.52 35.7667 587.051 35.0514 591.581 35.0514C596.827 35.0514 601.596 35.7667 605.649 37.4358C609.703 38.8665 613.28 41.2509 616.141 44.1123L608.511 52.9347C606.126 51.0272 603.742 49.5965 601.119 48.6427C598.496 47.6889 595.635 47.2121 593.012 47.2121C590.866 47.2121 589.197 47.4505 587.528 47.9274C585.858 48.4043 584.666 49.1196 583.951 50.0734C582.997 51.0272 582.759 52.2194 582.759 53.8885C582.759 55.3192 583.236 56.5114 583.951 57.4652C584.666 58.419 586.097 59.3727 588.243 60.3265C590.389 61.2803 593.25 62.2341 596.827 63.4263C601.119 64.857 604.934 66.2876 608.034 68.1952C611.134 70.1027 613.518 72.2487 615.187 75.1101C616.379 77.733 617.333 81.3096 617.333 85.3632Z" fill="#00C2D0"/>
</svg>
