<svg xmlns="http://www.w3.org/2000/svg" width="175.226" height="175.595" viewBox="0 0 175.226 175.595">
  <g id="Grupo_616" data-name="Grupo 616" transform="translate(-3944.492 -1404.13)">
    <g id="Grupo_613" data-name="Grupo 613">
      <path id="Trazado_611" data-name="Trazado 611" d="M4077.466,1448.863h-.164a4.121,4.121,0,0,0-.367-.543c-11.068-13.48-98.318-13.385-107.435-1.549a7.189,7.189,0,0,0-.776,1.266h-.079a76.041,76.041,0,1,0,108.821.827Z" fill="none" stroke="#0876a5" stroke-miterlimit="10" stroke-width="4.237"/>
      <path id="Trazado_612" data-name="Trazado 612" d="M4076.384,1446.777c-11.162-12.282-97.049-12.323-105.789-1.566C3955.548,1463.73,4088.632,1460.254,4076.384,1446.777Z" fill="#fff" stroke="#0876a5" stroke-miterlimit="10" stroke-width="4.237"/>
      <path id="Trazado_613" data-name="Trazado 613" d="M4063.679,1446.809c-9.669-5.468-76.983-4.829-83.027.1C3970.247,1455.4,4074.288,1452.81,4063.679,1446.809Z" fill="#0876a5"/>
      <g id="Grupo_612" data-name="Grupo 612">
        <path id="Trazado_614" data-name="Trazado 614" d="M4021.785,1414.416a32.938,32.938,0,0,0-10.04-4.682c-5.815-1.757-15.307-3.286-27.755-.767l-1-3.175v0h0l0,0c-.009-.029-.023-.054-.034-.081a.97.97,0,0,0-.04-.092.8.8,0,0,0-.052-.076.79.79,0,0,0-.052-.075.87.87,0,0,0-.074-.073c-.019-.017-.035-.037-.055-.053a1.112,1.112,0,0,0-.1-.064c-.018-.011-.035-.025-.053-.034a1.209,1.209,0,0,0-.112-.047c-.019-.006-.036-.016-.055-.022a1.164,1.164,0,0,0-.119-.024c-.02,0-.038-.009-.058-.011a.9.9,0,0,0-.115,0c-.023,0-.046,0-.069,0s-.065.013-.1.019-.058.009-.087.018h-.005c-.027.008-.051.022-.077.032s-.065.025-.095.041-.048.033-.072.049-.055.035-.08.056a.741.741,0,0,0-.061.063.808.808,0,0,0-.065.066c-.019.024-.033.051-.05.076a.751.751,0,0,0-.048.075.658.658,0,0,0-.035.084.833.833,0,0,0-.033.082.694.694,0,0,0-.018.09.871.871,0,0,0-.018.088.888.888,0,0,0,0,.092.681.681,0,0,0,0,.092.884.884,0,0,0,.018.089.925.925,0,0,0,.018.094l.916,2.969a27.929,27.929,0,0,0-9.079,3.86c-5.192,3.285-12.549,9.971-18.11,23.168a.937.937,0,0,0,1.352,1.163,19.9,19.9,0,0,1,13.721-1.637l.018,0a.934.934,0,0,0,.183.02h.006c.026,0,.052-.007.078-.009a.961.961,0,0,0,.13-.016c.025-.006.048-.018.073-.026a.8.8,0,0,0,.125-.045c.023-.011.043-.028.066-.041a1.025,1.025,0,0,0,.112-.073l.007-.005a.9.9,0,0,0,.068-.07c.023-.024.049-.044.071-.071a16.025,16.025,0,0,1,17.97-4.2l5.77,18.71a.938.938,0,0,0,.9.661.951.951,0,0,0,.276-.042.936.936,0,0,0,.619-1.171l-5.6-18.165c8.563-10.06,17.939-7.315,18.425-7.163a.932.932,0,0,0,.593,0h0a.906.906,0,0,0,.12-.051h0a.937.937,0,0,0,.4-.39c.012-.023.024-.047.035-.072,3.547-7.905,10.414-7.573,10.7-7.555a.936.936,0,0,0,.639-1.674Z" fill="#0876a5" stroke="#0876a5" stroke-miterlimit="10" stroke-width="2"/>
        <path id="Trazado_615" data-name="Trazado 615" d="M3957.647,1434.818c5.2-11.2,11.654-17.042,16.287-20a30,30,0,0,1,4.387-2.324,27.2,27.2,0,0,0-7.565,12.525,36.4,36.4,0,0,0-1.476,8.793A22.482,22.482,0,0,0,3957.647,1434.818Z" fill="#fff" stroke="#0876a5" stroke-linecap="round" stroke-linejoin="round" stroke-width="2"/>
        <path id="Trazado_616" data-name="Trazado 616" d="M3975.035,1430.091a18.546,18.546,0,0,0-3.793,2.505c.4-4.722,2.344-15.462,11.541-21.128l5.447,17.665A17.7,17.7,0,0,0,3975.035,1430.091Z" fill="#fff" stroke="#0876a5" stroke-linecap="round" stroke-linejoin="round" stroke-width="2"/>
        <path id="Trazado_617" data-name="Trazado 617" d="M3990.49,1428.941c-1.024-3.213-3.466-10.835-5.745-17.67,13.466,2.669,19.951,7.875,22.558,10.639C4003.72,1421.578,3996.947,1422.109,3990.49,1428.941Z" fill="#fff" stroke="#0876a5" stroke-linecap="round" stroke-linejoin="round" stroke-width="2"/>
        <path id="Trazado_618" data-name="Trazado 618" d="M4009.439,1421.471c-2.095-2.553-7.967-8.118-21.17-11.343a53.357,53.357,0,0,1,22.835,1.369,37.554,37.554,0,0,1,7.343,3.031A13.615,13.615,0,0,0,4009.439,1421.471Z" fill="#fff" stroke="#0876a5" stroke-linecap="round" stroke-linejoin="round" stroke-width="2"/>
      </g>
    </g>
    <g id="Grupo_615" data-name="Grupo 615">
      <circle id="Elipse_72" data-name="Elipse 72" cx="46.793" cy="46.793" r="46.793" transform="translate(4024.014 1410.805)" fill="#fff" stroke="#0876a5" stroke-miterlimit="10" stroke-width="4.237"/>
      <circle id="Elipse_73" data-name="Elipse 73" cx="32.909" cy="32.909" r="32.909" transform="translate(4037.898 1424.69)" fill="#fff" stroke="#0876a5" stroke-miterlimit="10" stroke-width="4.237"/>
      <path id="Trazado_619" data-name="Trazado 619" d="M4049.153,1457.044a19.932,19.932,0,0,1,33.577-16.853" fill="none" stroke="#0876a5" stroke-linecap="round" stroke-linejoin="round" stroke-width="4.237"/>
      <line id="Línea_89" data-name="Línea 89" x2="61.415" transform="translate(4040.398 1467.328)" fill="none" stroke="#0876a5" stroke-miterlimit="10" stroke-width="4.237"/>
      <line id="Línea_90" data-name="Línea 90" x2="61.415" transform="translate(4040.398 1467.328)" fill="none" stroke="#0876a5" stroke-miterlimit="10" stroke-width="4.237"/>
      <g id="Grupo_614" data-name="Grupo 614">
        <line id="Línea_91" data-name="Línea 91" y1="14.228" x2="21.618" transform="translate(4072.792 1449.374)" fill="none" stroke="#0876a5" stroke-linecap="round" stroke-linejoin="round" stroke-width="4.237"/>
      </g>
      <circle id="Elipse_74" data-name="Elipse 74" cx="5.868" cy="5.868" r="5.868" transform="translate(4064.005 1461.46)" fill="#0876a5" stroke="#0876a5" stroke-miterlimit="10" stroke-width="1"/>
      <path id="Trazado_620" data-name="Trazado 620" d="M4083.742,1435.393l1.465,8.679-8.466-2.411Z" fill="none" stroke="#0876a5" stroke-linecap="round" stroke-linejoin="round" stroke-width="4.237"/>
    </g>
  </g>
</svg>
