<svg xmlns="http://www.w3.org/2000/svg" width="173.585" height="173.521" viewBox="0 0 173.585 173.521">
  <g id="Grupo_611" data-name="Grupo 611" transform="translate(-4497.584 -1200.661)">
    <g id="Grupo_608" data-name="Grupo 608">
      <path id="Trazado_601" data-name="Trazado 601" d="M4629.04,1244.813h-.162a4.122,4.122,0,0,0-.362-.537c-10.94-13.324-97.177-13.229-106.188-1.53a6.941,6.941,0,0,0-.767,1.251h-.079a75.159,75.159,0,1,0,107.558.818Z" fill="none" stroke="#0876a5" stroke-miterlimit="10" stroke-width="4.237"/>
      <path id="Trazado_602" data-name="Trazado 602" d="M4627.971,1242.751c-11.033-12.14-95.923-12.179-104.561-1.547C4508.537,1259.508,4640.077,1256.072,4627.971,1242.751Z" fill="#fff" stroke="#0876a5" stroke-miterlimit="10" stroke-width="4.237"/>
      <path id="Trazado_603" data-name="Trazado 603" d="M4616.243,1242.763c-9.75-5.514-77.629-4.87-83.724.1C4522.027,1251.424,4626.941,1248.814,4616.243,1242.763Z" fill="#0876a5"/>
    </g>
    <g id="Grupo_609" data-name="Grupo 609">
      <path id="Trazado_604" data-name="Trazado 604" d="M4629.453,1206.94c.66.427,1.685,7.446,2.4,9.038,1.253,2.782,6.239,3.532,9.009,4.881l9.608-5.127,9.48,9.234-4.976,10.538,3.8,7.983,10.143,2.87.131,13.639c-.231.839-7.722,2.122-9.192,2.776-2.77,1.235-3.537,6.256-4.879,9.011l5.127,9.609-9.234,9.48-10.538-4.977-7.983,3.8-2.9,10.122-13.576.138-3.03-9.751-8.794-4.306-9.609,5.127-9.48-9.234,4.977-10.538-3.8-7.983L4576,1260.4l-.13-13.639c.23-.839,7.721-2.122,9.191-2.776,2.771-1.234,3.537-6.256,4.88-9.011l-5.128-9.608,9.234-9.481,10.538,4.977,7.984-3.8,2.9-10.122Zm16.194,46.507a23.188,23.188,0,1,1-23.189-23.189A23.188,23.188,0,0,1,4645.647,1253.447Z" fill="#fff" stroke="#0876a5" stroke-miterlimit="10" stroke-width="4.237"/>
      <path id="Trazado_605" data-name="Trazado 605" d="M4643.992,1246.056c-5.8,6.246-14.275,15.574-20.609,20.894-2.6,2.188-4.15,3.07-7.115.784a104.916,104.916,0,0,1-9.834-9.845c-1.681-2.452-1.169-5.978,1.943-6.721,5.221-1.245,6.954,6.2,11.432,7.13l20.469-20.495a4.307,4.307,0,0,1,7.466,2.419C4648.016,1243,4645.541,1244.387,4643.992,1246.056Z" fill="#fff" stroke="#0876a5" stroke-miterlimit="10" stroke-width="4.237"/>
    </g>
    <g id="Grupo_610" data-name="Grupo 610">
      <path id="Trazado_606" data-name="Trazado 606" d="M4574.369,1210.939a32.917,32.917,0,0,0-10.033-4.678c-5.811-1.756-15.3-3.284-27.736-.767l-1-3.172v0h0v-.005a.828.828,0,0,0-.035-.08.694.694,0,0,0-.039-.092.905.905,0,0,0-.052-.076c-.018-.025-.033-.052-.052-.075s-.049-.049-.074-.073-.036-.037-.056-.053a1,1,0,0,0-.1-.064c-.018-.011-.035-.024-.054-.034a.856.856,0,0,0-.112-.046.476.476,0,0,0-.054-.022.8.8,0,0,0-.119-.024c-.02,0-.038-.01-.058-.012a1.124,1.124,0,0,0-.115,0c-.023,0-.046,0-.069,0s-.064.013-.1.02a.84.84,0,0,0-.088.017h-.005a.636.636,0,0,0-.076.033.816.816,0,0,0-.1.041c-.026.014-.047.032-.071.048a.971.971,0,0,0-.08.056c-.023.019-.041.042-.062.063a.484.484,0,0,0-.114.142c-.016.025-.035.048-.049.075a.709.709,0,0,0-.034.084.673.673,0,0,0-.034.082c-.008.029-.012.06-.018.09s-.014.057-.017.087,0,.062,0,.093,0,.061,0,.091.012.06.018.09.01.062.019.094l.915,2.967a27.9,27.9,0,0,0-9.072,3.856c-5.189,3.283-12.541,9.965-18.1,23.153a.936.936,0,0,0,1.352,1.162,19.892,19.892,0,0,1,13.711-1.635h.018a.95.95,0,0,0,.183.021h.006a.674.674,0,0,0,.078-.009.96.96,0,0,0,.13-.016c.025-.006.048-.017.073-.025a.942.942,0,0,0,.125-.046.776.776,0,0,0,.066-.041.8.8,0,0,0,.112-.073l.007-.005a.615.615,0,0,0,.067-.069.955.955,0,0,0,.071-.071,16.016,16.016,0,0,1,17.959-4.195l5.685,17.827a.936.936,0,1,0,1.789-.552l-5.517-17.283c8.557-10.052,17.927-7.309,18.412-7.158a.929.929,0,0,0,.594,0h0a1.052,1.052,0,0,0,.12-.05h0a.938.938,0,0,0,.4-.389q.018-.036.035-.072c3.544-7.9,10.407-7.568,10.695-7.55a.937.937,0,0,0,.638-1.674Z" fill="#0876a5" stroke="#0876a5" stroke-miterlimit="10" stroke-width="2"/>
      <path id="Trazado_607" data-name="Trazado 607" d="M4510.275,1231.329c5.192-11.2,11.646-17.032,16.275-19.986a29.858,29.858,0,0,1,4.385-2.322,27.176,27.176,0,0,0-7.56,12.515,36.4,36.4,0,0,0-1.475,8.788A22.463,22.463,0,0,0,4510.275,1231.329Z" fill="#fff" stroke="#0876a5" stroke-linecap="round" stroke-linejoin="round" stroke-width="2"/>
      <path id="Trazado_608" data-name="Trazado 608" d="M4527.651,1226.6a18.511,18.511,0,0,0-3.79,2.5c.4-4.719,2.342-15.452,11.532-21.114l5.444,17.653A17.7,17.7,0,0,0,4527.651,1226.6Z" fill="#fff" stroke="#0876a5" stroke-linecap="round" stroke-linejoin="round" stroke-width="2"/>
      <path id="Trazado_609" data-name="Trazado 609" d="M4543.1,1225.455c-1.023-3.21-3.464-10.827-5.741-17.658,13.457,2.667,19.938,7.87,22.543,10.632C4556.316,1218.1,4549.549,1218.628,4543.1,1225.455Z" fill="#fff" stroke="#0876a5" stroke-linecap="round" stroke-linejoin="round" stroke-width="2"/>
      <path id="Trazado_610" data-name="Trazado 610" d="M4562.032,1217.991c-2.094-2.552-7.962-8.114-21.156-11.337a53.33,53.33,0,0,1,22.819,1.369,37.52,37.52,0,0,1,7.339,3.029A13.6,13.6,0,0,0,4562.032,1217.991Z" fill="#fff" stroke="#0876a5" stroke-linecap="round" stroke-linejoin="round" stroke-width="2"/>
    </g>
  </g>
</svg>
