<svg xmlns="http://www.w3.org/2000/svg" width="155.291" height="185.331" viewBox="0 0 155.291 185.331">
  <g id="Grupo_916" data-name="Grupo 916" transform="translate(-744.875 -763.481)">
    <path id="Trazado_513" data-name="Trazado 513" d="M4670.587,781.186" transform="translate(-3771 -0.418)" fill="none" stroke="#0376a3" stroke-linecap="round" stroke-linejoin="round" stroke-width="1.813"/>
    <g id="Grupo_600" data-name="Grupo 600" transform="translate(-3771 -0.418)">
      <path id="Trazado_569" data-name="Trazado 569" d="M4647.965,819.239h-.164a4,4,0,0,0-.364-.539c-10.993-13.389-97.652-13.295-106.708-1.538a7.093,7.093,0,0,0-.771,1.257h-.078a75.527,75.527,0,1,0,108.085.822Z" fill="none" stroke="#0876a5" stroke-linecap="round" stroke-linejoin="round" stroke-width="2.825"/>
      <path id="Trazado_570" data-name="Trazado 570" d="M4647.965,819.239h-.164a4,4,0,0,0-.364-.539c-10.993-13.389-97.652-13.295-106.708-1.538a7.093,7.093,0,0,0-.771,1.257h-.078a75.527,75.527,0,1,0,108.085.822Z" fill="none" stroke="#0876a5" stroke-miterlimit="10" stroke-width="4.237"/>
      <path id="Trazado_571" data-name="Trazado 571" d="M4646.889,817.167c-11.086-12.2-96.391-12.239-105.073-1.555C4526.871,834.006,4659.055,830.553,4646.889,817.167Z" fill="none" stroke="#0876a5" stroke-linecap="round" stroke-linejoin="round" stroke-width="2.825"/>
      <path id="Trazado_572" data-name="Trazado 572" d="M4646.889,817.167c-11.086-12.2-96.391-12.239-105.073-1.555C4526.871,834.006,4659.055,830.553,4646.889,817.167Z" fill="#fff" stroke="#0876a5" stroke-miterlimit="10" stroke-width="4.237"/>
      <path id="Trazado_573" data-name="Trazado 573" d="M4636.373,817.183c-10.093-5.708-80.363-5.042-86.672.105C4538.84,826.149,4647.448,823.447,4636.373,817.183Z" fill="#0876a5"/>
      <g id="Grupo_596" data-name="Grupo 596">
        <path id="Trazado_574" data-name="Trazado 574" d="M4623.555,777.772s2.331-5.7,3.384-6.987,1.18.425,3.782-.081l1.067,7.814s-1.328,5.253-3.223,5.113S4623.555,777.772,4623.555,777.772Z" fill="#fff" stroke="#0876a5" stroke-linecap="round" stroke-linejoin="round" stroke-width="2.825"/>
        <path id="Trazado_575" data-name="Trazado 575" d="M4619.967,819.568s2.926-40.049,3.345-41.5,2.314,2.923,8.476.449c.566,1.159-3.927,39.626-4,40.259S4619.967,819.568,4619.967,819.568Z" fill="#fff" stroke="#0876a5" stroke-linecap="round" stroke-linejoin="round" stroke-width="2.825"/>
        <path id="Trazado_576" data-name="Trazado 576" d="M4627.131,770.574a53.185,53.185,0,0,1,2.44-5.2c.527-.642,1.017,4.364,1.15,5.334S4627.754,771.57,4627.131,770.574Z" fill="#fff" stroke="#0876a5" stroke-linecap="round" stroke-linejoin="round" stroke-width="2.825"/>
      </g>
      <g id="Grupo_597" data-name="Grupo 597">
        <path id="Trazado_577" data-name="Trazado 577" d="M4618.816,780.524s.594-6.771-3.7-6.655-3.832,5.963-3.832,5.963Z" fill="#fff" stroke="#0876a5" stroke-linecap="round" stroke-linejoin="round" stroke-width="2.825"/>
        <path id="Trazado_578" data-name="Trazado 578" d="M4607.69,819.91s2.009-36.328,2.113-37.767,1.539-2.2,4.99-2.009,4.962.309,4.922,3.213-2.043,35.96-2.043,35.96Z" fill="#fff" stroke="#0876a5" stroke-linecap="round" stroke-linejoin="round" stroke-width="2.825"/>
        <path id="Trazado_579" data-name="Trazado 579" d="M4618.837,790.649s2.172.729,2.173,4.789c0,13.9-1.2,17.228,1.3,17.382,2.53.155,2.989-5.676,2.33-17.386s-.7-10.419-5.614-10.733Z" fill="#fff" stroke="#0876a5" stroke-linecap="round" stroke-linejoin="round" stroke-width="2.825"/>
      </g>
      <g id="Grupo_599" data-name="Grupo 599">
        <path id="Trazado_580" data-name="Trazado 580" d="M4592.952,784.074c-.552-.429-13.6-10.278-37.5-5.581l-.866-2.759c-.013-.042-.034-.079-.051-.119a1.5,1.5,0,0,0-.06-.14c-.016-.029-.037-.053-.054-.08a1.437,1.437,0,0,0-.1-.149.437.437,0,0,0-.034-.033,1.36,1.36,0,0,0-.163-.158h0a1.409,1.409,0,0,0-.476-.248l-.025-.005a1.383,1.383,0,0,0-.24-.047c-.037,0-.074,0-.112,0a1.466,1.466,0,0,0-.162,0,1.432,1.432,0,0,0-.172.035c-.035.008-.07.01-.1.021h-.007a1.336,1.336,0,0,0-.151.064c-.035.016-.073.028-.107.046a1.5,1.5,0,0,0-.139.1c-.029.021-.061.039-.089.062a1.38,1.38,0,0,0-.119.122c-.023.024-.049.046-.07.072a1.154,1.154,0,0,0-.09.137c-.019.03-.042.058-.058.089a1.254,1.254,0,0,0-.058.141c-.015.036-.033.071-.045.109s-.018.093-.028.139-.02.085-.025.128,0,.093,0,.14,0,.091,0,.137.019.095.029.142a1.181,1.181,0,0,0,.027.134l0,.007h0l.752,2.44c-4.7,1.089-17.96,5.958-26.835,27.02a1.407,1.407,0,0,0,2.032,1.746,19.246,19.246,0,0,1,13.276-1.566c.009,0,.018,0,.027,0a1.413,1.413,0,0,0,.274.03h.011c.032,0,.064-.008.1-.011a1.309,1.309,0,0,0,.217-.027c.028-.007.055-.02.083-.029a1.277,1.277,0,0,0,.214-.078c.027-.013.05-.032.076-.047a1.309,1.309,0,0,0,.191-.124l.01-.006c.032-.027.057-.062.087-.091a1.2,1.2,0,0,0,.12-.121,15.415,15.415,0,0,1,17.091-4.1l6.085,19.732a1.407,1.407,0,0,0,1.344.993,1.408,1.408,0,0,0,1.344-1.822l-5.908-19.161c8.228-9.488,17.14-6.925,17.618-6.777a1.406,1.406,0,0,0,.92-.015c.006,0,0,0,0,0,.04-.015.08-.031.119-.05h0a1.4,1.4,0,0,0,.631-.6c.02-.037.039-.074.055-.111,3.379-7.526,9.9-7.233,10.16-7.22a1.406,1.406,0,0,0,.959-2.514Z" fill="#0876a5"/>
        <g id="Grupo_598" data-name="Grupo 598">
          <path id="Trazado_581" data-name="Trazado 581" d="M4529.868,803.9c5.422-11.187,12.162-16.816,17.238-19.628-5.779,6.682-6.861,15.254-7.052,18.885A22.948,22.948,0,0,0,4529.868,803.9Z" fill="#fff" stroke="#0876a5" stroke-linecap="round" stroke-linejoin="round" stroke-width="2"/>
          <path id="Trazado_582" data-name="Trazado 582" d="M4543.044,801.465c.578-4.9,2.727-14.01,10.609-19.2l4.97,16.115A17.966,17.966,0,0,0,4543.044,801.465Z" fill="#fff" stroke="#0876a5" stroke-linecap="round" stroke-linejoin="round" stroke-width="2"/>
          <path id="Trazado_583" data-name="Trazado 583" d="M4561.789,797.973c-1.079-3.378-3.183-9.926-5.207-16.016,11.432,2.4,17.555,6.655,20.475,9.394C4573.329,791.268,4567.467,792.29,4561.789,797.973Z" fill="#fff" stroke="#0876a5" stroke-linecap="round" stroke-linejoin="round" stroke-width="2"/>
          <path id="Trazado_584" data-name="Trazado 584" d="M4580.319,790.639c-2.3-2.585-7.666-7.208-18.432-10.275,12.787-1.3,21.673,1.849,26.1,4.041A13.825,13.825,0,0,0,4580.319,790.639Z" fill="#fff" stroke="#0876a5" stroke-linecap="round" stroke-linejoin="round" stroke-width="2"/>
        </g>
      </g>
    </g>
    <line id="Línea_88" data-name="Línea 88" x1="0.638" y2="55.409" transform="translate(822.211 891.285)" fill="none" stroke="#0876a5" stroke-miterlimit="10" stroke-width="4.237"/>
    <g id="Grupo_601" data-name="Grupo 601" transform="translate(-3771 -0.418)">
      <path id="Trazado_585" data-name="Trazado 585" d="M4539.1,819.219s46.956,32.018,55.062,43.373V891.7s-36.573-20.026-39.76-21.821c-2.731-1.539.07-16.39-.074-19.4s-4.4,4.44-7.117,3.823-18.606-17.693-19.269-19.278S4534.74,824.827,4539.1,819.219Z" fill="none" stroke="#0876a5" stroke-miterlimit="10" stroke-width="4.237"/>
      <path id="Trazado_586" data-name="Trazado 586" d="M4648.6,819.91s-46.336,31.327-54.442,42.682V891.7s36.612-20.116,39.76-21.821c2.756-1.494-.07-16.39.074-19.4s4.4,4.44,7.117,3.823,17.322-17.693,17.985-19.278S4652.962,825.517,4648.6,819.91Z" fill="none" stroke="#0876a5" stroke-miterlimit="10" stroke-width="4.237"/>
    </g>
    <circle id="Elipse_66" data-name="Elipse 66" cx="2.706" cy="2.706" r="2.706" transform="translate(813.217 896.907)" fill="#0876a5"/>
    <circle id="Elipse_67" data-name="Elipse 67" cx="2.706" cy="2.706" r="2.706" transform="translate(813.217 909.693)" fill="#0876a5"/>
    <circle id="Elipse_68" data-name="Elipse 68" cx="2.706" cy="2.706" r="2.706" transform="translate(813.217 922.479)" fill="#0876a5"/>
    <circle id="Elipse_69" data-name="Elipse 69" cx="2.706" cy="2.706" r="2.706" transform="translate(813.217 935.265)" fill="#0876a5"/>
    <path id="Rectángulo_124" data-name="Rectángulo 124" d="M0,0H27.423a0,0,0,0,1,0,0V18.47a8.953,8.953,0,0,1-8.953,8.953H8.953A8.953,8.953,0,0,1,0,18.47V0A0,0,0,0,1,0,0Z" transform="translate(837.161 895.056)" fill="none" stroke="#0876a5" stroke-miterlimit="10" stroke-width="4.237"/>
  </g>
</svg>
