<svg xmlns="http://www.w3.org/2000/svg" width="180.762" height="178.263" viewBox="0 0 180.762 178.263">
  <g id="Grupo_607" data-name="Grupo 607" transform="translate(-3944.572 -979.065)">
    <g id="Grupo_606" data-name="Grupo 606">
      <g id="Grupo_603" data-name="Grupo 603">
        <path id="Trazado_587" data-name="Trazado 587" d="M4077.458,1026.553h-.165a4.109,4.109,0,0,0-.366-.543c-11.06-13.471-98.251-13.376-107.361-1.547a7.05,7.05,0,0,0-.776,1.264h-.079a75.989,75.989,0,1,0,108.747.827Z" fill="none" stroke="#0876a5" stroke-miterlimit="10" stroke-width="4.237"/>
        <path id="Trazado_588" data-name="Trazado 588" d="M4076.376,1024.468c-11.154-12.274-96.982-12.314-105.717-1.565C3955.622,1041.41,4088.616,1037.936,4076.376,1024.468Z" fill="#fff" stroke="#0876a5" stroke-miterlimit="10" stroke-width="4.237"/>
        <path id="Trazado_589" data-name="Trazado 589" d="M4062.363,1024.532c-9.355-5.29-74.488-4.673-80.336.1C3971.96,1032.843,4072.628,1030.338,4062.363,1024.532Z" fill="#0876a5"/>
        <g id="Grupo_602" data-name="Grupo 602">
          <path id="Trazado_590" data-name="Trazado 590" d="M4020.513,989.344a32.915,32.915,0,0,0-10.033-4.679c-5.812-1.755-15.3-3.283-27.736-.766l-1-3.173v0h0l0,0a.694.694,0,0,0-.034-.081c-.013-.03-.023-.063-.039-.092s-.035-.05-.052-.076-.033-.052-.052-.075a.8.8,0,0,0-.074-.072c-.019-.018-.036-.038-.056-.054a.99.99,0,0,0-.1-.063c-.018-.012-.035-.025-.054-.035a.927.927,0,0,0-.112-.046.529.529,0,0,0-.054-.022.814.814,0,0,0-.119-.024c-.02,0-.039-.009-.058-.012a1.112,1.112,0,0,0-.115,0c-.023,0-.046,0-.07,0s-.064.013-.1.02a.878.878,0,0,0-.087.017l0,0h0a.75.75,0,0,0-.077.033.8.8,0,0,0-.095.041.727.727,0,0,0-.072.049c-.026.018-.055.034-.08.055s-.041.042-.061.063a.824.824,0,0,0-.065.067.712.712,0,0,0-.049.075.761.761,0,0,0-.049.075c-.014.027-.023.056-.035.084s-.024.054-.033.082a.916.916,0,0,0-.018.09c-.006.029-.014.058-.017.087s0,.062,0,.093,0,.061,0,.091.012.06.018.09a.8.8,0,0,0,.019.094l.915,2.967a27.89,27.89,0,0,0-9.073,3.857c-5.189,3.283-12.541,9.964-18.1,23.152a.936.936,0,0,0,1.352,1.162,19.893,19.893,0,0,1,13.711-1.635l.018,0a.94.94,0,0,0,.183.02h.006a.653.653,0,0,0,.077-.009.819.819,0,0,0,.131-.016c.025-.006.048-.017.073-.025a1,1,0,0,0,.125-.046c.023-.011.043-.027.065-.04a.9.9,0,0,0,.113-.074l.007,0a.891.891,0,0,0,.067-.07.772.772,0,0,0,.071-.071,16.016,16.016,0,0,1,17.959-4.2l6.192,20.081a.936.936,0,0,0,.894.66.909.909,0,0,0,.276-.042.936.936,0,0,0,.619-1.17l-6.025-19.536c8.558-10.053,17.928-7.31,18.413-7.159a.932.932,0,0,0,.593,0h0a1.03,1.03,0,0,0,.12-.05h0a.926.926,0,0,0,.4-.389.7.7,0,0,0,.035-.072c3.545-7.9,10.407-7.568,10.7-7.55a.936.936,0,0,0,.638-1.673Z" fill="#0876a5" stroke="#0876a5" stroke-miterlimit="10" stroke-width="2"/>
          <path id="Trazado_591" data-name="Trazado 591" d="M3956.419,1009.733c5.192-11.2,11.645-17.032,16.275-19.986a29.869,29.869,0,0,1,4.385-2.322,27.188,27.188,0,0,0-7.561,12.516,36.367,36.367,0,0,0-1.474,8.787A22.463,22.463,0,0,0,3956.419,1009.733Z" fill="#fff" stroke="#0876a5" stroke-linecap="round" stroke-linejoin="round" stroke-width="2"/>
          <path id="Trazado_592" data-name="Trazado 592" d="M3973.795,1005.008a18.549,18.549,0,0,0-3.791,2.5c.4-4.719,2.342-15.452,11.533-21.114l5.444,17.653A17.7,17.7,0,0,0,3973.795,1005.008Z" fill="#fff" stroke="#0876a5" stroke-linecap="round" stroke-linejoin="round" stroke-width="2"/>
          <path id="Trazado_593" data-name="Trazado 593" d="M3989.239,1003.86c-1.024-3.211-3.464-10.828-5.741-17.659,13.457,2.667,19.937,7.87,22.543,10.632C4002.46,996.5,3995.692,997.032,3989.239,1003.86Z" fill="#fff" stroke="#0876a5" stroke-linecap="round" stroke-linejoin="round" stroke-width="2"/>
          <path id="Trazado_594" data-name="Trazado 594" d="M4008.175,996.4c-2.094-2.551-7.961-8.113-21.155-11.336a53.319,53.319,0,0,1,22.819,1.368,37.623,37.623,0,0,1,7.339,3.029A13.6,13.6,0,0,0,4008.175,996.4Z" fill="#fff" stroke="#0876a5" stroke-linecap="round" stroke-linejoin="round" stroke-width="2"/>
        </g>
      </g>
      <g id="Grupo_605" data-name="Grupo 605">
        <rect id="Rectángulo_125" data-name="Rectángulo 125" width="91.108" height="70.37" rx="5.772" transform="translate(4032.108 996.557)" fill="#fff" stroke="#0876a5" stroke-miterlimit="10" stroke-width="4.237"/>
        <path id="Trazado_595" data-name="Trazado 595" d="M4088.5,1077.722l15.611-10.8H4088.5Z" fill="#fff" stroke="#0876a5" stroke-miterlimit="10" stroke-width="4.237"/>
        <g id="Grupo_604" data-name="Grupo 604">
          <path id="Trazado_596" data-name="Trazado 596" d="M4045.233,1032.344v-1.259a1.749,1.749,0,0,1,.991-1.551l12.833-7.594a1.882,1.882,0,0,1,1.047-.349,1.552,1.552,0,0,1,1.115.486,1.593,1.593,0,0,1,.494,1.184,1.443,1.443,0,0,1-.717,1.339l-12,7.1,12.008,7.06a1.544,1.544,0,0,1,.711,1.38,1.6,1.6,0,0,1-.494,1.186,1.552,1.552,0,0,1-1.115.486,2.018,2.018,0,0,1-1.047-.349l-12.838-7.571A1.7,1.7,0,0,1,4045.233,1032.344Z" fill="#0876a5"/>
          <path id="Trazado_597" data-name="Trazado 597" d="M4085.563,1021.688l-13.227,22.432a1.071,1.071,0,0,1-.988.506,1.888,1.888,0,0,1-1.191-.436,1.361,1.361,0,0,1-.552-1.115,2.592,2.592,0,0,1,.388-1.28l13.235-22.407a1.118,1.118,0,0,1,1.024-.531,1.9,1.9,0,0,1,1.168.417,1.312,1.312,0,0,1,.55,1.1A2.563,2.563,0,0,1,4085.563,1021.688Z" fill="#0876a5"/>
          <path id="Trazado_598" data-name="Trazado 598" d="M4110.09,1031.08v1.264a1.737,1.737,0,0,1-.945,1.556l-12.841,7.566a2.042,2.042,0,0,1-1.066.349,1.587,1.587,0,0,1-1.115-.466,1.553,1.553,0,0,1-.494-1.184,1.455,1.455,0,0,1,.733-1.358l11.986-7.1-11.986-7.058a1.69,1.69,0,0,1-.239-2.587,1.584,1.584,0,0,1,1.115-.467,2.117,2.117,0,0,1,1.066.349l12.839,7.584A1.736,1.736,0,0,1,4110.09,1031.08Z" fill="#0876a5"/>
        </g>
      </g>
    </g>
  </g>
</svg>
