<svg xmlns="http://www.w3.org/2000/svg" width="185.832" height="211.161" viewBox="0 0 185.832 211.161">
  <g id="Grupo_595" data-name="Grupo 595" transform="translate(-3944.572 -529.686)">
    <g id="Grupo_589" data-name="Grupo 589">
      <path id="Trazado_552" data-name="Trazado 552" d="M3980.426,682.046c-.476,0-.712-.277-.712-.83v-6.657a1.014,1.014,0,0,1,.712-1.018l27.837-12.665q.532-.277,0-.555l-27.837-12.664a1.013,1.013,0,0,1-.712-1.018v-6.748a.813.813,0,0,1,.312-.694.73.73,0,0,1,.755-.046l36.108,17.2a1.017,1.017,0,0,1,.622,1.016v6.379a1.136,1.136,0,0,1-.622,1.018l-36.108,17.194Z" fill="#845831"/>
      <path id="Trazado_553" data-name="Trazado 553" d="M4020.778,690.434l20.9-62.955a1.037,1.037,0,0,1,1.067-.74h6.67q.976,0,.711,1.016l-20.9,62.957a1.037,1.037,0,0,1-1.067.74h-6.67Q4020.512,691.452,4020.778,690.434Z" fill="#845831"/>
      <path id="Trazado_554" data-name="Trazado 554" d="M4098.119,681.908a.724.724,0,0,1-.757.046l-36.108-17.194a1.136,1.136,0,0,1-.622-1.018v-6.379a1.124,1.124,0,0,1,.712-1.016l36.018-17.2.357-.092c.472,0,.71.277.71.832v6.748a1.017,1.017,0,0,1-.71,1.018l-27.926,12.664q-.532.277,0,.555l27.926,12.665a1.017,1.017,0,0,1,.71,1.018v6.657A.806.806,0,0,1,4098.119,681.908Z" fill="#845831"/>
    </g>
    <g id="Grupo_594" data-name="Grupo 594">
      <path id="Trazado_555" data-name="Trazado 555" d="M4102.939,585l-.2,0a5.079,5.079,0,0,0-.437-.648c-13.216-16.1-117.4-15.982-128.283-1.849a8.546,8.546,0,0,0-.927,1.512H3973a90.8,90.8,0,1,0,129.937.988Z" fill="none" stroke="#845831" stroke-miterlimit="10" stroke-width="4.237"/>
      <path id="Trazado_556" data-name="Trazado 556" d="M4101.647,582.51c-13.328-14.665-115.881-14.713-126.317-1.869C3957.363,602.754,4116.272,598.6,4101.647,582.51Z" fill="#fff" stroke="#845831" stroke-miterlimit="10" stroke-width="4.237"/>
      <g id="Grupo_591" data-name="Grupo 591">
        <line id="Línea_86" data-name="Línea 86" x2="1.497" y2="4.765" transform="translate(3989.063 533.898)" fill="none" stroke="#845831" stroke-miterlimit="10" stroke-width="4.237"/>
        <g id="Grupo_590" data-name="Grupo 590">
          <path id="Trazado_557" data-name="Trazado 557" d="M3957.653,570.48a24.774,24.774,0,0,1,17.208-2.093s-.613-20.854,15.7-29.724C3990.56,538.663,3970.29,540.492,3957.653,570.48Z" fill="none" stroke="#845831" stroke-linecap="round" stroke-linejoin="round" stroke-width="4.237"/>
          <path id="Trazado_558" data-name="Trazado 558" d="M3974.861,568.387s8.794-11.138,23.751-4.97c0,0-4.322-13.646-8.052-24.754" fill="none" stroke="#845831" stroke-linecap="round" stroke-linejoin="round" stroke-width="4.237"/>
          <path id="Trazado_559" data-name="Trazado 559" d="M4021.886,554.443c4.627-10.327,13.881-9.69,13.881-9.69s-15.932-12.378-45.207-6.09c24.865,4.386,31.326,15.78,31.326,15.78s-12.329-3.963-23.274,8.974" fill="none" stroke="#845831" stroke-linecap="round" stroke-linejoin="round" stroke-width="4.237"/>
          <line id="Línea_87" data-name="Línea 87" x2="17.16" y2="53.048" transform="translate(3989.063 533.898)" fill="none" stroke="#845831" stroke-linecap="round" stroke-linejoin="round" stroke-width="4.237"/>
        </g>
      </g>
      <path id="Trazado_560" data-name="Trazado 560" d="M4078.987,583.935c-9.861-4.794-78.1-4.931-84.174-.758C3984.355,590.361,4089.808,589.2,4078.987,583.935Z" fill="#845831" stroke="#845831" stroke-miterlimit="10" stroke-width="4.387"/>
      <g id="Grupo_593" data-name="Grupo 593">
        <path id="Trazado_561" data-name="Trazado 561" d="M4066.834,583.12l4.9-26.052c3-.063,3.126-3.623,3.126-3.623,2.474-.473,2.463-3.853,2.463-3.853,1.848.126,2.237-3.179,2.237-3.179s15.618-5.623,22.675-8.788c4.638-2.08,1.353-6.973-2.176-5.554-2.078.836-25.209,9.318-25.209,9.318-3.649-1.3-5.408,1.169-5.408,1.169-3.219-.095-2.8,4.3-2.8,4.3-3.864.787-.612,7.118-.612,7.118-.689,2.963-5.621,28.514-5.621,28.514C4059.6,587.735,4065.818,588.365,4066.834,583.12Z" fill="#fff" stroke="#845831" stroke-miterlimit="10" stroke-width="4.237"/>
        <g id="Grupo_592" data-name="Grupo 592">
          <path id="Trazado_562" data-name="Trazado 562" d="M4074.82,541.608s3.569,2.805,4.71,5.024" fill="none" stroke="#845831" stroke-miterlimit="10" stroke-width="4.237"/>
          <path id="Trazado_563" data-name="Trazado 563" d="M4069.522,543.185s6.058,6.114,8,6.894" fill="none" stroke="#845831" stroke-miterlimit="10" stroke-width="4.237"/>
          <path id="Trazado_564" data-name="Trazado 564" d="M4066.235,547.314a37.2,37.2,0,0,0,8.223,6.592" fill="none" stroke="#845831" stroke-miterlimit="10" stroke-width="4.237"/>
          <path id="Trazado_565" data-name="Trazado 565" d="M4066.235,554.217a14.4,14.4,0,0,0,4.995,3.1" fill="none" stroke="#845831" stroke-miterlimit="10" stroke-width="4.237"/>
        </g>
        <path id="Trazado_566" data-name="Trazado 566" d="M4101,531.817c-4.44,1.191-2.326,7.248,2.029,5.373" fill="none" stroke="#845831" stroke-miterlimit="10" stroke-width="4.237"/>
      </g>
    </g>
    <path id="Trazado_567" data-name="Trazado 567" d="M4012.194,712.2h0s21.826,13.039,50.588,0" fill="none" stroke="#845831" stroke-linecap="round" stroke-linejoin="round" stroke-width="8.457"/>
  </g>
</svg>